SplineFontDB: 3.0
FontName: CoelacanthItalic
FullName: Coelacanth Italic
FamilyName: Coelacanth
Weight: Regular

StartChar: a
Encoding: 97 97 0
Width: 447
VWidth: 1159
Flags: HMW
HStem: -16 53<293.905 362.244> -10 65<80.3297 169.699> 406 20G<381.405 404.405> 406 20G<381.405 404.405>
VStem: 18.5113 71.2207<76.4066 192.266> 259.405 69<37.2478 82>
AnchorPoint: "Top" 299.104 465 basechar 0
AnchorPoint: "Ogonek" 345.401 23 basechar 0
AnchorPoint: "Bottom" 177.061 -15 basechar 0
LayerCount: 2
Fore
SplineSet
288.995117188 352.954101562 m 1x4c
 278.907226562 354.954101562 261.8203125 356.954101562 252.8203125 356.954101562 c 3
 230.397547761 356.954101562 201.661373325 339.661132812 183.217773438 324.954101562 c 0
 139.084448775 289.761937943 83.421875 229.366873562 83.421875 144.540039062 c 3
 83.421875 97.1560926103 104.989257812 55 149.00390625 55 c 3
 172.259849475 55 204.741832689 86.9414425332 231.527335584 129.999998132 c 4
 247.413569689 155.537629335 261.296029004 184.985778903 270.061523438 214 c 0
 280.896484375 249.864257812 302.560546875 340 288.995117188 352.954101562 c 1x4c
321.856445312 150 m 0
 314.318156845 114.021835669 308.99637673 78.084523328 309.436523438 68 c 0
 310.310546875 47.974609375 316.571289062 42 325.571289062 42 c 3
 342.571289062 42 385 78 401.213867188 96 c 1
 418 78 l 1
 386.484375 44 338.885742188 -11 286.885742188 -11 c 3x9c
 254.084189493 -11 238 22 238 47 c 3
 238 64.0316449852 240.600900718 84.0467435397 246.77734375 106 c 1
 200.319335938 40.4345703125 141.096679688 -10 106.841796875 -10 c 3
 54.69140625 -10 14.2197265625 39.1644345077 14.2197265625 98.2998046875 c 3
 14.2197265625 164.507340502 55.9873822711 234.400642502 88.3115234375 277 c 0
 116.75 314.478515625 160.070617594 342.766606906 182.8203125 356.954101562 c 0
 222.640123186 381.787109375 266.668536707 399.608047486 319.678710938 406 c 0
 333.704992228 407.691285216 341.399414062 412.8515625 352.111328125 419 c 1
 403.892578125 424 l 1x5c
 351.499962096 310.826171875 344.365461792 257.429305375 321.856445312 150 c 0
EndSplineSet
Substitution2: "case-1" A
Substitution2: "pcap-1" a.pcap
Substitution2: "smcp-1" a.smcp
EndChar

StartChar: b
Encoding: 98 98 1
Width: 438
VWidth: 1159
Flags: HMW
HStem: -9 58<115.481 228.954> 347 56<242.013 322.382>
VStem: 345.205 70.1571<192.971 323.898>
AnchorPoint: "Top" 232.66 749 basechar 0
AnchorPoint: "Bottom" 163.018 -15 basechar 0
LayerCount: 2
Fore
SplineSet
118.883789062 240 m 1
 108.637695312 190.9140625 99.4306640625 153.515625 92.6826171875 113 c 1
 93.2939453125 99 93.642578125 91 97.9052734375 85 c 0
 108.500976562 64 131.970703125 49 155.4765625 49 c 3
 246.6484375 49 339.192382812 137.7109375 334.077148438 254.865234375 c 0
 331.510742188 313.650390625 307.513671875 357 262.775390625 357 c 3
 208.1796875 357 152.393554688 291.084960938 118.883789062 240 c 1
117.09765625 699 m 1
 130.180664062 720 161.438476562 737 192.696289062 754 c 1
 221.569335938 734 237.704101562 708 252.795898438 683 c 1
 214.274414062 655.286132812 180.296875 529.505859375 128.482421875 295 c 1
 152.02734375 325.904296875 242.388671875 413 307.330078125 413 c 3
 361.053710938 413 399.827148438 355.814453125 402.827148438 287.098632812 c 0
 409.063476562 144.262695312 245.515625 -9 127.008789062 -9 c 3
 84.2177734375 -9 75.7333984375 15 59.7431640625 20 c 0
 45.1708984375 23.3173828125 27.4814453125 26 21.5244140625 25 c 1
 6.9130859375 39 l 1
 46.365234375 168.291015625 102.234375 461 115.935546875 539 c 0
 122.84375 578.329101562 124.845703125 613.137695312 123.672851562 640 c 0
 122.805664062 659.865234375 120.361328125 681.0234375 117.09765625 699 c 1
EndSplineSet
Substitution2: "case-1" B
Substitution2: "pcap-1" b.pcap
Substitution2: "smcp-1" b.smcp
EndChar

StartChar: c
Encoding: 99 99 2
Width: 367
VWidth: 1159
Flags: HMW
HStem: -15 53<138.021 225.281> 359 63<200.666 292.636>
VStem: 31.6688 74.9532<71.9391 229.688>
AnchorPoint: "Top" 257.697 465 basechar 0
AnchorPoint: "Bottom" 158.655 -15 basechar 0
LayerCount: 2
Fore
SplineSet
305.508789062 309 m 1
 286.767578125 327.240234375 260.797851562 366 227.020507812 366 c 3
 152.958984375 366 93.91796875 290.96875 100.108398438 149.185546875 c 0
 102.623046875 91.58984375 134.370117188 46 188.209960938 46 c 3
 229.209960938 46 257.825195312 66 278.169921875 81 c 1
 290 62 l 1
 265.178710938 35 207.524414062 -7 152.524414062 -7 c 3
 103.487304688 -7 30.5966796875 24.56640625 26.103515625 127.46484375 c 0
 19.5224609375 278.204101562 147.130859375 422 258.575195312 422 c 3
 305.553710938 422 345.780273438 389.5234375 357.587890625 353 c 1
 352.521484375 338.583007812 339.176757812 319.583007812 305.508789062 309 c 1
EndSplineSet
Substitution2: "case-1" C
Substitution2: "pcap-1" c.pcap
Substitution2: "smcp-1" c.smcp
EndChar

StartChar: d
Encoding: 100 100 3
Width: 464
VWidth: 1159
Flags: HMW
HStem: -23 54<297.635 374.885> -9 55<97.3336 209.668> 357 50<188.71 289.162> 659 30<325.178 370.283> 748 20G<468.878 507.878>
VStem: 29.9995 69.6452<81.7189 228.754>
AnchorPoint: "TopRight" 511.011 581 basechar 0
AnchorPoint: "Top" 350.831 734 basechar 0
AnchorPoint: "Bottom" 181.533 -15 basechar 0
LayerCount: 2
Fore
SplineSet
262.119140625 109 m 1xbc
 217.796875 52.08984375 149.649414062 -9 110.270507812 -9 c 3x7c
 53.55078125 -9 17.35546875 37.6728515625 14.4736328125 103.672851562 c 0
 9.033203125 228.280273438 150.020507812 409 293.020507812 409 c 3
 310.03125 409 330.8828125 396.797851562 337.15625 383 c 1
 358.006835938 480.905273438 371.1328125 590.6328125 369.959960938 617.481445312 c 0
 368.249023438 656.666992188 351.26171875 668 335.712890625 668 c 3
 330.712890625 668 296.061523438 660 287.10546875 659 c 1
 282.795898438 689 l 1
 334.315429688 700 403.831054688 734 448.346679688 768 c 1
 465.131835938 750 l 1
 462.096679688 705 405.983398438 393.3828125 352.625976562 189 c 0
 339.219726562 137.647460938 330.116210938 96.259765625 331.331054688 68.447265625 c 0
 331.943359375 54.41796875 336.264648438 43 347.000976562 43 c 3
 364.000976562 43 399.040039062 65 423.079101562 87 c 1
 438.865234375 69 l 1
 403.69921875 27 337.358398438 -11 305.358398438 -11 c 3
 274.873046875 -11 261.264648438 9.4384765625 259.924804688 40.1328125 c 0
 258.984375 61.6640625 259.662109375 84.8349609375 262.119140625 109 c 1xbc
256.204101562 359 m 3
 186.08984375 359 77.462890625 279 83.265625 146.091796875 c 0
 85.490234375 95.142578125 108.284179688 53 146.563476562 53 c 3
 182.163085938 53 253.4296875 120.669921875 276.712890625 187 c 0
 288.912109375 223.185546875 304.407226562 259.479492188 302.614257812 300.551757812 c 0
 300.788085938 342.380859375 270.076171875 359 256.204101562 359 c 3
EndSplineSet
Substitution2: "case-1" D
Substitution2: "pcap-1" d.pcap
Substitution2: "smcp-1" d.smcp
EndChar

StartChar: e
Encoding: 101 101 4
Width: 365
VWidth: 1159
Flags: HMW
HStem: -15 51<132.518 227.037> 367 54<183.549 254.884>
VStem: 34.5302 71.9619<61.4685 197.627> 272 60<289.245 349.853>
AnchorPoint: "Top" 223.697 465 basechar 0
AnchorPoint: "Ogonek" 230.865 26 basechar 0
AnchorPoint: "Bottom" 149.655 -15 basechar 0
LayerCount: 2
Fore
SplineSet
221.880859375 415 m 7
 271.934570312 415 317.23828125 361.005859375 319.639648438 306 c 4
 319.913085938 299.737304688 322.034179688 291.237304688 327.381835938 289 c 5
 323.560546875 262 l 5
 272.482421875 246.2421875 182.098632812 218.666992188 104.3984375 197 c 5
 102.747070312 181.831054688 100.474609375 160.733398438 101.202148438 144.0625 c 4
 104.018554688 79.556640625 136.142578125 41 176.209960938 41 c 7
 220.209960938 41 249.423828125 59 276.419921875 82 c 5
 292.162109375 65 l 5
 257.77734375 28 213.436523438 -10 145.436523438 -10 c 7
 67.564453125 -10 33.365234375 49.5966796875 30.0576171875 125.344726562 c 4
 22.625 295.579101562 157.541015625 415 221.880859375 415 c 7
198.9765625 367 m 7
 160.764648438 367 120.6015625 299.47265625 108.219726562 224 c 5
 133.409179688 233.75 229.172851562 255.897460938 239.517578125 263 c 4
 248.254882812 269 260.037109375 274 259.337890625 290 c 5
 257.4609375 333 232.9765625 367 198.9765625 367 c 7
EndSplineSet
Substitution2: "case-1" E
Substitution2: "pcap-1" e.pcap
Substitution2: "smcp-1" e.smcp
EndChar

StartChar: f
Encoding: 102 102 5
Width: 296
VWidth: 1159
Flags: HMW
HStem: -326 36<-136.972 -96.346> 341 42<181.132 319> 697 57<336.061 425.684>
AnchorPoint: "Top" 326 748 basechar 0
AnchorPoint: "Bottom" 103 -204 basechar 0
LayerCount: 2
Fore
SplineSet
419 754 m 3
 450 754 521 728 542 706 c 1
 537 679 528 672 476 646 c 1
 440 664 402 697 365 697 c 3
 283 697 253 623 212 498 c 0
 208 488 190 417 180 369 c 1
 203 370 300 382 323 383 c 1
 319 341 l 1
 297 342 195 334 173 335 c 1
 151.522460938 240.739257812 101.116210938 -78.49609375 68 -172 c 0
 46.79296875 -235.62109375 15.2421875 -278.947265625 -20 -323 c 1
 -30 -322 -29 -321 -71 -321 c 3
 -92 -321 -124 -325 -136 -326 c 1
 -141 -290 l 1
 -81.8916015625 -275.814453125 -46.2939453125 -237.05859375 -18 -187 c 0
 34.4091796875 -94.8212890625 77.470703125 155.895507812 110 329 c 1
 86.662109375 327.875 64.337890625 324.5 41 320 c 1
 46 362 l 1
 69.328125 360.5 93.671875 366.5 117 365 c 1
 125.608398438 413.620117188 137.086914062 481.092773438 139 493 c 0
 160 626 214 654 284 701 c 0
 325 728 362 754 419 754 c 3
EndSplineSet
Substitution2: "salt-1" f.alt
Substitution2: "case-1" F
Substitution2: "pcap-1" f.pcap
Substitution2: "smcp-1" f.smcp
EndChar

StartChar: g
Encoding: 103 103 6
Width: 426
VWidth: 1159
UnlinkRmOvrlpSave: 1
Flags: HMW
HStem: -337 64<20.3914 156.022> 325 55<349.705 429.963> 378 38<170.55 260.831>
AnchorPoint: "Top" 263 465 basechar 0
AnchorPoint: "Bottom" 183 -318 basechar 0
LayerCount: 2
Back
SplineSet
109 5 m 5xc0
 107 -12 136 -28 168 -30 c 5
 196 -32 205 -30 233 -31 c 5
 320 -36 351 -83 344 -132 c 5
 328 -256 143 -337 62 -337 c 7
 -34 -337 -67 -280 -61 -231 c 5
 -51 -149 63 -89 88 -80 c 5
 47 -58 33 -36 28 10 c 5
 59 30 97 42 131 53 c 5
 73 70 28 129 39 218 c 5
 55 342 166 416 248 416 c 7xa0
 289 416 320 389 336 364 c 5
 361 375 387 380 408 380 c 7
 423 380 443 378 448 374 c 5
 423 306 l 5
 406 318 382 325 364 325 c 4
 359 325 355 324 349 323 c 5
 355 300 356 274 351 244 c 5
 339 147 259 83 190 53 c 4
 120 22 111 23 109 5 c 5xc0
216 378 m 7
 161 378 117 309 108 228 c 5
 97 152 138 110 190 85 c 5
 236 110 272 160 281 236 c 5
 290 318 275 378 216 378 c 7
1 -205 m 5
 -8 -257 53 -273 103 -273 c 7
 174 -273 284 -220 293 -166 c 5
 299 -122 273 -106 226 -101 c 5
 203 -99 183 -100 161 -98 c 5
 145 -97 130 -97 115 -93 c 5
 50 -119 5 -168 1 -205 c 5
EndSplineSet
Fore
SplineSet
330 361.822265625 m 1
 357.247118902 374.300495745 385.194030984 380 408 380 c 3
 423 380 443 378 448 374 c 1
 423 306 l 1
 406 318 382 325 364 325 c 0
 357.038822855 325 351.046805455 323.263800184 344 321 c 1
 343.045419339 320.832912409 329.332814504 361.553251671 330 361.822265625 c 1
349 229 m 0
 329.34700506 138.673822732 257.197618078 82.7589451487 190 53 c 0
 147.687200515 34.2614745137 127.662717972 27.215180866 118 20.5971529285 c 0
 111.677241561 16.2666744741 109.791062872 12.1195658467 109 5 c 1xc0
 107 -12 136 -28 168 -30 c 1
 196 -32 205 -30 233 -31 c 1
 320 -36 351 -83 344 -132 c 1
 328 -256 143 -337 62 -337 c 3
 -34 -337 -67 -280 -61 -231 c 1
 -50.6219366964 -152.642417854 54 -90 99 -76.0498046875 c 1
 100.051061059 -75.5701528272 125.323924051 -89.3969843343 124 -90 c 1
 58 -110 5.5022963664 -167.622212666 1 -205 c 1
 -8 -257 53 -273 103 -273 c 3
 174 -273 284 -220 293 -166 c 1
 299 -122 273 -106 226 -101 c 1
 203 -99 186.059585381 -98.1310746151 161 -98 c 0
 104.000003482 -97.7018604861 34 -72 28 10 c 1
 83 45 100 32 190 85 c 0
 237.455466143 112.945996729 272 160 281 236 c 1
 290 318 275 378 216 378 c 3
 162.527777778 378 125.682212778 318.036662153 111 247 c 0
 90.963251009 150.056590296 138 110 197 82 c 1
 198.086106007 81.3528478651 144.753617023 48.672393672 144 49 c 1
 78.2857142857 66.1301775148 17.172763398 122.395236816 44 242 c 0
 68 349 167.961722488 416 248 416 c 3xa0
 322.172209738 416 371.985485594 334.642476004 349 229 c 0
EndSplineSet
Substitution2: "smcp-1" g.smcp
Substitution2: "pcap-1" g.pcap
Substitution2: "case-1" G
EndChar

StartChar: h
Encoding: 104 104 7
Width: 427
VWidth: 1159
Flags: HMW
HStem: 343 60<222.293 318.876> 662 38<86.0009 118.754>
VStem: -10.9996 78<-4 76.7172> 345.001 56.9735<180.359 316.446>
AnchorPoint: "Top" 209.647 733 basechar 0
AnchorPoint: "Bottom" 138.315 -15 basechar 0
LayerCount: 2
Fore
SplineSet
103.896484375 196 m 1
 84.125 139.833984375 72.3955078125 62.576171875 67.0859375 -4 c 1
 -10.9140625 -4 l 1
 24.111328125 138 101.811523438 498.5546875 118.3984375 592 c 0
 122.727539062 616.395507812 124.7734375 631.544921875 124.637695312 638 c 0
 124.302734375 654 122.009765625 668 105.009765625 668 c 3
 100.009765625 668 77.1142578125 663 68.134765625 662 c 1
 69.98828125 669 71.4853515625 693 71.3388671875 700 c 1
 123.108398438 711 184.877929688 722 252.103515625 759 c 1
 267.54296875 738 l 1
 253.8359375 724 237.071289062 701.142578125 231.52734375 691 c 0
 198.068359375 629.780273438 151.831054688 483.0859375 110.577148438 259 c 1
 132.50390625 296.360351562 216.592773438 412 293.372070312 412 c 3
 354.681640625 412 394.565429688 353.778320312 395.938476562 288.192382812 c 0
 398.711914062 155.81640625 307.624023438 40 223.420898438 -20 c 1
 185.182617188 -6.7373046875 174.017578125 8.4208984375 174.913085938 52 c 1
 268.776367188 58.4912109375 342.650390625 112.248046875 340.016601562 238 c 0
 338.518554688 309.530273438 303.4453125 352 262.62890625 352 c 3
 203.719726562 352 128.2421875 264.112304688 103.896484375 196 c 1
EndSplineSet
Substitution2: "case-1" H
Substitution2: "pcap-1" h.pcap
Substitution2: "smcp-1" h.smcp
EndChar

StartChar: k
Encoding: 107 107 10
Width: 408
VWidth: 1159
UnlinkRmOvrlpSave: 1
Flags: HMW
HStem: -6 21G<0.831055 3.33105> 372.562 46.4375<251.198 342.797> 661 28<74.5811 116.443> 749 20G<215.331 254.331>
VStem: 0.331055 70<-5 81.6634> 320.23 68.0957<292.691 368.052>
AnchorPoint: "Top" 198.077 749 basechar 0
AnchorPoint: "Bottom" 153.117 -15 basechar 0
LayerCount: 2
Fore
SplineSet
70.5927734375 -5 m 1
 64.5927734375 -5 39.5927734375 -5 32.5927734375 -5 c 0
 26.5927734375 -5 6.6455078125 -6 0.6455078125 -6 c 1
 -1.3349609375 50.87109375 57.1005859375 197.849609375 72.0234375 273 c 0
 122.66015625 528 121.185546875 610.9921875 117.737304688 641 c 0
 115.899414062 657 109.270507812 669 92.2705078125 669 c 3
 87.2705078125 669 49.63671875 662 40.689453125 661 c 1
 36.2216796875 689 l 1
 87.6455078125 700 153.811523438 735 198.029296875 769 c 1
 214.919921875 752 l 1
 210.75390625 610.631835938 98.0927734375 203.750976562 70.5927734375 -5 c 1
99.9541015625 198 m 1
 183.240234375 220.744140625 306.14453125 268.779296875 302.583984375 336.72265625 c 0
 301.485351562 357.671875 280.692382812 372.5625 260.950195312 372.5625 c 3
 213.42578125 372.5625 145.956054688 303.017578125 100.583007812 186 c 1
 88.2734375 211 l 1
 129.076171875 323.629882812 221.069335938 419 300.372070312 419 c 3
 341.3046875 419 368.080078125 386.326171875 369.897460938 351.640625 c 0
 374.810546875 257.89453125 255.375976562 208.04296875 151.583007812 186 c 1
 192.366210938 100.528320312 257.30859375 28.4853515625 416 -70 c 1
 412.048828125 -86.9326171875 373.322265625 -97.51953125 352.624023438 -101 c 1
 280.529296875 -69.8076171875 145.528320312 63.5439453125 99.9541015625 198 c 1
EndSplineSet
Substitution2: "smcp-1" k.smcp
Substitution2: "pcap-1" k.pcap
Substitution2: "case-1" K
EndChar

StartChar: l
Encoding: 108 108 11
Width: 249
VWidth: 1159
Flags: HMW
HStem: -10 21G<62.2915 107.118> 749 20G<226.618 256.618>
VStem: 31.6184 82<53.6655 157.415>
AnchorPoint: "TopRight" 279.755 581 basechar 0
AnchorPoint: "Top" 207.92 749 basechar 0
LayerCount: 2
Fore
SplineSet
164.58984375 413 m 0
 142.73828125 318 110.810019445 163.696282252 109.692382812 90 c 0
 109.434570312 73 110.264648438 54 127.307617188 53 c 1
 142.3515625 52 179.12890625 80 200.211914062 101 c 1
 222.0859375 81 l 1
 197.701171875 44 128.05859375 -10 87.05859375 -10 c 3
 38.404296875 -10 34.0886530406 11.4679526298 30.0068359375 37 c 0
 27.5986328125 52.0634765625 30.2764036505 69.8804151193 34.4306640625 96 c 0
 46.2001953125 170 84.4834199516 309.90233935 103.114257812 401 c 0
 141.447613128 588.435424015 145.067382812 624.797048832 145.067382812 663 c 7
 145.067382812 673.250746273 142.315887632 688.598310892 133.66052333 693.999998854 c 1
 132.078757959 700.612210404 130.28947249 707.007817777 128.4921875 713 c 1
 146.873019069 732.125 192.131546427 748.517857143 236.046875 764 c 1
 245.986356602 757.142857143 249.804682788 748.571428571 255 740 c 1
 244.727653447 712.898550725 227.437905433 657.459785293 220.115234375 630 c 0
 204.6484375 572 190.586017616 526.018760889 164.58984375 413 c 0
EndSplineSet
Substitution2: "case-1" L
Substitution2: "pcap-1" l.pcap
Substitution2: "smcp-1" l.smcp
EndChar

StartChar: m
Encoding: 109 109 12
Width: 686
VWidth: 1159
Flags: HMW
HStem: -11 73<533.461 588.834> 346 53<506.819 604.461> 362 56<297.864 382.461>
VStem: 37.4609 17<275.412 284.988> 55.4609 63<0.266968 30.8002> 498.461 75<62.0058 150.361>
AnchorPoint: "Bottom" 301.51 -15 basechar 0
AnchorPoint: "Top" 373.945 465 basechar 0
LayerCount: 2
Fore
SplineSet
564.055664062 63 m 3
 586.055664062 63 617.330078125 116.280273438 631.880859375 137 c 1
 651 121 l 1
 631.844726562 80.310546875 580.16015625 -10 521.16015625 -10 c 3
 491.259765625 -10 478.000976562 27.638671875 478.000976562 58.5654296875 c 3
 478.000976562 114.860351562 532 220 531.215820312 291.833007812 c 0
 530.913085938 319.584960938 522.68359375 345 500.3359375 345 c 0xdc
 454.435546875 345 367.288751232 182.432416226 360.76171875 153 c 0
 353 118 341.994114423 58.9778348953 335.502929688 28 c 0
 333.246424297 17.2312953204 332.901367188 8 328.390625 1 c 1
 324.4609375 0 297.600585938 -2 291.600585938 -2 c 1
 287.600585938 -2 266.600585938 -2 264.53125 -1 c 1
 260.390625 1 263.034780893 26.148658084 264.29296875 31 c 0
 272.18359375 61.4248046875 286.415277815 113.983392786 293.391601562 144 c 0
 303.384765625 187 316.036132812 234.390625 319.790039062 267 c 0
 324.455078125 307.512695312 322.056640625 349 291.056640625 349 c 3
 233.1015625 349 148.895507812 194 140.692382812 154 c 0
 129.702691454 100.410880321 123.46484375 77.2060546875 114.29296875 31 c 0
 112.137903541 20.143216531 108.901367188 8 107.390625 1 c 1
 106.53125 -1 76.4609375 0 71.4609375 0 c 1
 65.4609375 0 48.3212890625 2 44.181640625 4 c 1
 42.041015625 6 44.4691108603 27.0757794207 45.29296875 31 c 0
 56 82 68.411840975 123.38621192 81.8740234375 180 c 0
 90.8315422364 217.669900286 99.94140625 250.9921875 102.720703125 268 c 0
 107.623046875 298 92.5947265625 327 77.5947265625 327 c 3
 67.5947265625 327 42.6923828125 297 35.8603515625 266 c 1
 17.7412109375 282 l 1
 31.2666015625 346 97.9794921875 393 138.581054688 413 c 1
 148.720703125 411 160.60546875 400.541015625 165.259765625 389 c 0
 168.1015625 381.952148438 171.84375 366.96875 173.206054688 347.49609375 c 0
 175.046875 321.1640625 172.956054688 290.565429688 163.419921875 258 c 1
 193.296875 309.333007812 266.78515625 412 328.651367188 412 c 3xbc
 372.862304688 412 390.151367188 372.125976562 393.262695312 327.635742188 c 0
 394.547851562 309.256835938 393.15625 290.62890625 389.440429688 272 c 1
 421.112304688 311.134765625 473.602539062 401 542.419921875 401 c 3
 592.419921875 401 605.009765625 346.045898438 591.951171875 279 c 0
 576.919921875 201.828125 551.03125 155.53125 551.03125 91.544921875 c 3
 551.03125 65 556.466796875 63 564.055664062 63 c 3
EndSplineSet
Substitution2: "case-1" M
Substitution2: "pcap-1" m.pcap
Substitution2: "smcp-1" m.smcp
EndChar

StartChar: n
Encoding: 110 110 13
Width: 494
VWidth: 1159
Flags: HMW
HStem: -11 73<324.961 381.216> 346 65<302.172 397.961>
VStem: 39.4609 17<275.412 284.988> 55.4609 65<0 38.5218>
AnchorPoint: "Bottom" 213.51 -15 basechar 0
AnchorPoint: "Top" 277.945 465 basechar 0
LayerCount: 2
Fore
SplineSet
103.720703125 268 m 1xd0
 109.112304688 291 93.5947265625 327 78.5947265625 327 c 3
 68.5947265625 327 44.6923828125 297 37.8603515625 266 c 1
 19.7412109375 282 l 1xe0
 33.2666015625 346 99.9794921875 393 140.581054688 413 c 1
 150.720703125 411 162.60546875 400.541015625 167.259765625 389 c 0
 170.1015625 381.952148438 173.84375 366.96875 175.206054688 347.49609375 c 0
 176.438476562 329.869140625 171.618164062 289.928710938 162.490234375 257 c 1
 195.912109375 311.799804688 273.91796875 411 337.720703125 411 c 3
 400.720703125 411 407.813476562 345.034179688 394.951171875 279 c 0
 381.706054688 211 369.083007812 171.076171875 363.860351562 123 c 0
 360.818359375 95 357.125 62 374.125 62 c 3
 383.125 62 400.877929688 79.1943359375 414.608398438 98 c 0
 425.559570312 113 437.370117188 130 442.880859375 137 c 1
 461 121 l 1
 447.16796875 90 428.401367188 59.0712890625 402.29296875 31 c 0
 383.69140625 11 354.08984375 -9 331.08984375 -9 c 3
 301.585475068 -9 288.105247432 34.0026157047 288.105247432 63.6631710184 c 3
 288.105247432 101.000148339 333.751734141 252.973735237 333.751734141 288.132729837 c 3
 333.751734141 317.951635724 323.077008347 346 295.266601562 346 c 3
 235.2890625 346 151.405273438 201 138.321289062 145 c 0
 127.797989864 99.9598395927 124.220575073 79.5861372174 116.943359375 36 c 0
 114.942646991 24.0169383281 114.946617911 6 109.4609375 0 c 1
 104.4609375 0 74.4609375 0 72.4609375 0 c 1
 70.4609375 0 46.4609375 0 44.4609375 0 c 1
 39.4771058506 6 44.4910666126 29.3098647216 46.7333984375 39 c 0
 57.8407694394 87 77.0001786596 152.668645449 90.4755859375 200 c 0
 95.8849544356 219 100.258789062 246 103.720703125 268 c 1xd0
EndSplineSet
Substitution2: "case-1" N
Substitution2: "pcap-1" n.pcap
Substitution2: "smcp-1" n.smcp
EndChar

StartChar: o
Encoding: 111 111 14
Width: 422
VWidth: 1159
Flags: HW
HStem: -10 41<131.917 222.098> 373 46<174.469 272.728>
AnchorPoint: "Top" 241.581 465 basechar 0
AnchorPoint: "Horn" 357.611 341.8 basechar 0
AnchorPoint: "Ogonek" 235.839 19 basechar 0
AnchorPoint: "Bottom" 169.917 -15 basechar 0
AnchorPoint: "Middle" 200.41 206 basechar 0
LayerCount: 2
Back
SplineSet
213.880859375 415 m 7
 263.934570312 415 309.23828125 361.005859375 311.639648438 306 c 4
 311.913085938 299.737304688 314.034179688 291.237304688 319.381835938 289 c 5
 315.560546875 262 l 5
 264.482421875 246.2421875 174.098632812 218.666992188 96.3984375 197 c 5
 94.7470703117 181.831054688 92.4746093744 160.733398438 93.2021484375 144.0625 c 4
 96.0185546875 79.556640625 128.142578125 41 168.209960938 41 c 7
 212.209960938 41 241.423828125 59 268.419921875 82 c 5
 284.162109375 65 l 5
 249.77734375 28 205.436523438 -10 137.436523438 -10 c 7
 59.5644531248 -10 25.365234375 49.5966796877 22.0576171875 125.344726562 c 4
 14.625 295.579101562 149.541015625 415 213.880859375 415 c 7
190.9765625 367 m 7
 152.764648438 367 112.6015625 299.47265625 100.219726562 224 c 5
 125.409179688 233.75 221.172851562 255.897460938 231.517578125 263 c 4
 240.254882812 269 252.037109375 274 251.337890625 290 c 5
 249.4609375 333 224.9765625 367 190.9765625 367 c 7
EndSplineSet
Fore
SplineSet
252.71875 419 m 3
 330.472905647 419 376.870856144 353.184051103 376.870856144 265.013151325 c 0
 376.870856144 114.403938308 262.067415308 -10 151.9375 -10 c 3
 73.8267932878 -10 21.5297199148 48.2863870088 21.5297199148 147.842918773 c 0
 21.5297199148 320.034374576 170.238149617 419 252.71875 419 c 3
226.530273438 373 m 3
 170.835782557 373 97.2493693752 291.326565101 97.2493693752 169.910846282 c 0
 97.2493693752 87.3173599925 128.658824925 31 173.431640625 31 c 3
 230.599222857 31 302.52261082 120.900281235 302.52261082 246.533243666 c 0
 302.52261082 328.408260447 268.43142668 373 226.530273438 373 c 3
EndSplineSet
Substitution2: "case-1" O
Substitution2: "pcap-1" o.pcap
Substitution2: "smcp-1" o.smcp
EndChar

StartChar: p
Encoding: 112 112 15
Width: 442
VWidth: 1159
Flags: HMW
HStem: -322 34<61.265 139.962> -1 42<106.949 229.209> 351 46<223.989 344.462>
AnchorPoint: "Bottom" 82.623 -318 basechar 0
AnchorPoint: "Top" 274.222 465 basechar 0
LayerCount: 2
Fore
SplineSet
39.14453125 39 m 0
 60.091796875 137 82.3671875 231.744140625 84.3896484375 266 c 0
 85.8662109375 291 81.6357421875 302 76.4892578125 309 c 1
 66.509765625 308 33.845703125 292 24.8876953125 290 c 1
 22.1328125 326 l 1
 87.671875 348 104.735351562 345 133.640625 445 c 1
 200.431640625 453.505859375 190.823242188 469.571289062 169.442382812 359 c 1
 207.0859375 376 259.541015625 402 307.541015625 402 c 3
 365.926757812 402 414.83203125 334.9296875 405.934570312 240 c 1
 392.616210938 112 278.438476562 25 183.857421875 5 c 1
 155.982421875 -1 118.024414062 -3 94.982421875 -1 c 1
 76.8056640625 -88 49.4443359375 -214 48.32421875 -256 c 1
 48.7431640625 -276 73.0908203125 -283.166992188 87.9111328125 -284 c 0
 105.708984375 -285 135.380859375 -287 151.995117188 -288 c 1
 146.70703125 -322 l 1
 109.685546875 -321 94.685546875 -321 66.685546875 -321 c 3
 39.685546875 -321 -37.1044921875 -331 -65 -336 c 1
 -64.669921875 -304 l 1
 -58.599609375 -300 -53.5625 -296.4296875 -48.9638671875 -290 c 0
 -42.52734375 -281 -35.728515625 -260.474609375 -28.13671875 -234 c 0
 -13.2255859375 -182 15.373046875 -72.21484375 39.14453125 39 c 0
254.504882812 356 m 3
 205.504882812 356 175.965820312 334 159.405273438 313 c 1
 104.663085938 62 l 1
 125.915039062 50 151.103515625 41 185.103515625 41 c 3
 265.103515625 41 329.532226562 116 337.4375 216 c 1
 346.889648438 283.407226562 316.727539062 356 254.504882812 356 c 3
EndSplineSet
Substitution2: "case-1" P
Substitution2: "pcap-1" p.pcap
Substitution2: "smcp-1" p.smcp
EndChar

StartChar: q
Encoding: 113 113 16
Width: 427
VWidth: 1159
Flags: HMW
HStem: -342 36<301.91 370.286> -5 43<124.495 222.88> 369 49<196.948 310.151> 409 20G<411.786 442.286>
AnchorPoint: "Bottom" 205.448 -318 basechar 0
AnchorPoint: "Top" 279.448 465 basechar 0
LayerCount: 2
Fore
SplineSet
290.448242188 149 m 1xe0
 304.291015625 204.939453125 315.826171875 260.090820312 324.286132812 305 c 1
 324.286132812 311 322.168945312 322.32421875 318.286132812 330 c 0
 302.098632812 362 268.952148438 369 244.286132812 369 c 3
 173.026367188 369 107.249023438 286 96.2861328125 191 c 1
 88.701171875 105.1171875 108.697265625 45 151.448242188 45 c 3
 210.252929688 45 279.376953125 121.869140625 290.448242188 149 c 1xe0
279.448242188 95 m 1
 222.098632812 26.8623046875 175.01171875 -9 108.448242188 -9 c 3
 41.1953125 -9 20 68.8828125 20 127.37890625 c 3
 20 244.008789062 147.76953125 418 289.286132812 418 c 3xe0
 338.524414062 418 346.672851562 392 359.286132812 392 c 3
 379.95703125 392 396.870117188 417.946289062 403.448242188 424 c 1xd0
 430.448242188 411 l 1
 428.884765625 405.967773438 423.271484375 392.676757812 420.286132812 385 c 0
 413.286132812 367 402.80859375 335.147460938 383.286132812 271 c 0
 376.286132812 248 354.286132812 164 345.286132812 122 c 0
 297.286132812 -102 278.158203125 -203.026367188 276.286132812 -250 c 0
 275.010742188 -282 299.615234375 -294.672851562 313.286132812 -298 c 0
 325.612304688 -301 358.890625 -306 366.286132812 -306 c 1
 361.286132812 -342 l 1
 339.286132812 -341 304.286132812 -338 265.286132812 -338 c 3
 238.286132812 -338 172.286132812 -344 144.286132812 -348 c 1
 146.286132812 -316 l 1
 152.286132812 -315 152.149414062 -312.737304688 158.286132812 -308 c 0
 171.239257812 -298 182.202148438 -283.596679688 192.286132812 -256 c 0
 204.737304688 -221.921875 250.016601562 -40.1748046875 279.448242188 95 c 1
EndSplineSet
Substitution2: "case-1" Q
Substitution2: "pcap-1" q.pcap
Substitution2: "smcp-1" q.smcp
EndChar

StartChar: r
Encoding: 114 114 17
Width: 355
VWidth: 1159
Flags: HMW
HStem: 406 20G<310.507 331.007> 413 20G<142.507 168.507 310.507 331.007>
VStem: 32.5073 19<295.105 306.953> 43.5073 68<0 66.3041>
AnchorPoint: "Bottom" 97.0342 -15 basechar 0
AnchorPoint: "Top" 203.272 465 basechar 0
LayerCount: 2
Fore
SplineSet
107.453125 288 m 1x80
 107.30078125 321 98.3935546875 347 83.3935546875 347 c 3
 73.3935546875 347 49.4755859375 316 41.55859375 285 c 1
 22 301 l 1
 41.1953125 361.606445312 103.899414062 407.060546875 143.634765625 426 c 1
 170.71484375 421.4921875 181.4765625 397.630859375 182.606445312 365.287109375 c 0
 183.45703125 340.921875 181.65234375 312.112304688 174.698242188 281 c 1
 219.020507812 348.028320312 299.616210938 416.23828125 322.739257812 423 c 1
 345.532226562 417.911132812 370.11328125 392.463867188 366.729492188 366 c 1
 363.33984375 345 333.814453125 305 302.208984375 295 c 1
 297.37109375 312.727539062 283.97265625 334 273.84765625 334 c 3
 243.140625 334 172.802734375 264 152.155273438 182 c 0
 150.526367188 175.532226562 149.28515625 169.01171875 148.713867188 166 c 0
 141.846679688 129.825195312 137.537109375 103.138671875 134.541992188 85 c 0
 132.891601562 75 131.979492188 66.8056640625 129.520507812 57 c 0
 127.764648438 50 124.642578125 38.841796875 122.393554688 32 c 0
 118.77734375 21 116.126953125 11 111.510742188 0 c 1
 107.491210938 0.5556640625 79.58203125 -2.037109375 73.5810546875 -2 c 1
 67.5810546875 -2 47.615234375 -3 43.4755859375 1 c 1
 43.2314453125 8 48.462890625 30 49.3232421875 34 c 0
 50.18359375 38 52.7353515625 55.3125 54.4501953125 59 c 0
 55.380859375 61 58.74609375 80.29296875 60.5419921875 85 c 0
 65.123046875 97 83.24609375 169.440429688 95.2470703125 208 c 0
 103.338867188 234 107.221679688 266 107.453125 288 c 1x80
EndSplineSet
Substitution2: "case-1" R
Substitution2: "pcap-1" r.pcap
Substitution2: "smcp-1" r.smcp
EndChar

StartChar: s
Encoding: 115 115 18
Width: 332
VWidth: 1159
Flags: HMW
HStem: -10.1663 54.1517<48.012 171.476> 369 47<173.053 249.473>
VStem: 72.6733 70.1657<259.483 332.875> 186.924 68.2592<62.772 153.436> 277.016 44<317.5 339.554>
AnchorPoint: "Bottom" 122.671 -15 basechar 0
AnchorPoint: "Top" 206.713 465 basechar 0
LayerCount: 2
Fore
SplineSet
16.216796875 87 m 1
 48.498046875 52.9921875 97.076171875 35.9853515625 129.677734375 35.9853515625 c 3
 154.81640625 35.9853515625 184.448242188 56.69921875 182.528320312 100.663085938 c 0
 181.254882812 129.840820312 154.918945312 160.653320312 127.938476562 185 c 0
 97.0693359375 212.85546875 62.6923828125 228.599609375 60.6015625 276.489257812 c 0
 60.365234375 281.895507812 60.541015625 287.7109375 61.1796875 294 c 1
 66.1015625 342.541015625 162.301757812 420 226.677734375 420 c 3
 258.177734375 420 273.44140625 408.599609375 290.5078125 401 c 1
 293.98828125 390 298.384765625 358 307 321 c 1
 263.9609375 299 l 1
 250.6484375 333.099609375 227.098632812 376 193.598632812 376 c 3
 155.986328125 376 121.6875 347.034179688 123.02734375 316.326171875 c 0
 124.166015625 290.267578125 144.323242188 260.630859375 182.9296875 231 c 0
 219.45703125 202.96484375 247.810546875 168.865234375 249.301757812 134.7109375 c 0
 253.139648438 46.80859375 177.239257812 8.810546875 128.146484375 -3 c 0
 110.415039062 -7.265625 88.2119140625 -9.166015625 66.1396484375 -9.166015625 c 3
 34.92578125 -9.166015625 3.984375 -6.1083984375 -14.9404296875 -1 c 1
 -9.19140625 20 -0.9375 60 1.3916015625 83 c 1
 16.216796875 87 l 1
EndSplineSet
Substitution2: "case-1" S
Substitution2: "pcap-1" s.pcap
Substitution2: "smcp-1" s.smcp
EndChar

StartChar: t
Encoding: 116 116 19
Width: 304
VWidth: 1159
Flags: HMW
HStem: -15 53<87.8374 167.367> 342 26<61.8374 95.7364> 352 38<192.837 298.768> 358 41<193.902 299.837>
VStem: 38.8374 267
AnchorPoint: "TopRight" 259.542 538 basechar 0
AnchorPoint: "Bottom" 93.8027 -15 basechar 0
AnchorPoint: "Top" 166.986 477 basechar 0
LayerCount: 2
Fore
SplineSet
37.7119140625 373 m 1xc8
 101.228515625 394.11328125 111.91796875 396.032226562 146.016601562 492 c 1
 196.952148438 493 l 1
 192.967773438 481.583007812 173.150390625 408.3203125 169.2890625 395 c 1xa8
 191.224609375 396 259.772460938 403 281.70703125 404 c 1
 278.358398438 363 l 1x98
 256.358398438 363 182.747070312 357 160.747070312 357 c 1xa8
 144.5546875 293.762695312 115.3828125 180.3359375 105.948242188 91 c 1
 103.758789062 63 112.1171875 42 142.1171875 42 c 3
 167.1171875 42 210.112304688 73 234.948242188 91 c 1
 234.948242188 91 242.659179688 80 247.306640625 70 c 1
 211.310546875 39 153.543945312 -11 98.5439453125 -11 c 3
 80.5439453125 -11 27.8330078125 0 34.5947265625 81 c 1
 41.177734375 167.318359375 74.91015625 272.70703125 91.0703125 352 c 1
 91.0703125 352 51.3291015625 348 41.3935546875 347 c 1
 37.7119140625 373 l 1xc8
EndSplineSet
Substitution2: "case-1" T
Substitution2: "pcap-1" t.pcap
Substitution2: "smcp-1" t.smcp
EndChar

StartChar: u
Encoding: 117 117 20
Width: 482
VWidth: 1159
Flags: HMW
HStem: -18 56<294.047 386.116> -10 70<85.5471 175.547> 341 75<126.547 185.547> 387 20G<438.047 445.547>
AnchorPoint: "Ogonek" 381.534 23 basechar 0
AnchorPoint: "Bottom" 206.859 -15 basechar 0
AnchorPoint: "Top" 283.864 465 basechar 0
LayerCount: 2
Fore
SplineSet
363.638671875 399 m 1x60
 368.250976562 402.200195312 397.178710938 407 407.939453125 407 c 1
 411.939453125 407 438.026367188 406 438.551757812 400 c 1
 429.288085938 323 380.693359375 287.9140625 357.986328125 155 c 0
 353.356445312 127.903320312 349.67578125 89.9677734375 350.334960938 71 c 1
 349.735351562 55 354.434570312 47 363.434570312 47 c 3
 374.434570312 47 402.189453125 61.2373046875 437.53515625 103 c 1
 455.935546875 87 l 1
 433.05078125 51.3876953125 406.346679688 26.3134765625 381.671875 10 c 0
 366.546875 0 345.333984375 -9 324.333984375 -9 c 3x90
 294.630859375 -9 283.609375 12.1279296875 281.219726562 39.443359375 c 0
 278.361328125 72.1220703125 284.912109375 112.102539062 290.123046875 142 c 1
 246.477539062 98.34375 164.890625 -8 99.2470703125 -8 c 3
 73.2470703125 -8 52.5849609375 11 45.9599609375 41 c 1
 41.7216796875 66.5869140625 51.771484375 121.439453125 61.111328125 165 c 0
 72.474609375 218 92.095703125 266.184570312 98.3759765625 322 c 0
 99.5009765625 332 100.80078125 340 96.712890625 341 c 1
 85.712890625 341 45.1748046875 290 32.400390625 276 c 1
 17 292 l 1
 39.23828125 335 102.151367188 416 149.151367188 416 c 3
 179.151367188 416 187.901367188 396 184.263671875 369 c 1
 181.375976562 322 158.334960938 312.876953125 133.57421875 194 c 0
 118.786132812 123 115.297851562 60 157.297851562 60 c 3
 184.857421875 60 260.44140625 141.111328125 303.524414062 206 c 1
 310.2265625 234.892578125 323.3515625 290.954101562 325.475585938 298 c 0
 330.900390625 316 339.759765625 343.328125 346.05078125 360 c 0
 352.017578125 375.810546875 359.21875 389.513671875 363.638671875 399 c 1x60
EndSplineSet
Substitution2: "case-1" U
Substitution2: "pcap-1" u.pcap
Substitution2: "smcp-1" u.smcp
EndChar

StartChar: v
Encoding: 118 118 21
Width: 375
VWidth: 1159
Flags: HMW
HStem: 327 68<58.4914 165.923> 428 20G<399.923 430.923>
VStem: 392.923 59.0557<298.23 368.797>
AnchorPoint: "Bottom" 92 -15 basechar 0
AnchorPoint: "Top" 239 465 basechar 0
LayerCount: 2
Fore
SplineSet
153 72 m 1
 300.591796875 200.392578125 314 265 314 344 c 3
 314 359.376953125 307.6953125 379 285 379 c 3
 281.584960938 379 279.836914062 378.565429688 276 377 c 1
 268 400 l 1
 284.408203125 412.42578125 300.19140625 417.265625 309.748046875 417.265625 c 3
 358.790039062 417.265625 380 388.327148438 380 345 c 3xa0
 380 255 248.983398438 116.966796875 175 57 c 0
 152.112304688 38.4482421875 119.560546875 11.865234375 103 -11 c 1
 83 -5 l 1
 80.0830078125 102.701171875 77.0068359375 197.666992188 77.0068359375 306.432617188 c 3
 77.0068359375 317.366210938 76.2626953125 344 70 344 c 3
 55.2890625 344 31.7529296875 320.581054688 19 304 c 1
 2 324 l 1
 20.70703125 346.8046875 87.46875 414 115 414 c 3
 141.592773438 414 146.626953125 391.987304688 146.626953125 363.965820312 c 3
 146.626953125 265.901367188 149.649414062 148.5546875 153 72 c 1
EndSplineSet
Substitution2: "case-1" V
Substitution2: "pcap-1" v.pcap
Substitution2: "smcp-1" v.smcp
EndChar

StartChar: w
Encoding: 119 119 22
Width: 531
VWidth: 1159
Flags: HMW
HStem: 353 46<496.061 547.583> 395 20G<367.903 375.236>
VStem: 333.655 70<269.962 371.091>
AnchorPoint: "Top" 337.141 465 basechar 0
AnchorPoint: "Bottom" 162.705 -15 basechar 0
LayerCount: 2
Fore
SplineSet
525.37109375 333 m 0xa0
 532.670898438 228.598632812 409.989016478 113.772500962 337.670898438 57 c 0
 310.217773438 35.4482421875 268.446289062 11.865234375 248.42578125 -11 c 1
 228.005859375 -5 l 1
 229.991161806 60.9315402932 249.968712253 143.914202964 256.770507812 261 c 1
 212.849431736 163.746603261 147.950526629 44.1218580163 49.4951171875 -12 c 1
 29.7958984375 -2 l 1
 54.8550690968 99.852419716 79 193.609604051 79 296 c 3
 79 304.866109517 79.3955755764 344 64.6015625 344 c 3
 49.890625 344 27.9921875 320.581054688 16.3984375 304 c 1
 -2 324 l 1
 16.93359375 346.8046875 72.328125 414 115.70703125 414 c 3
 150.662354463 414 156 356.905952476 156 325 c 3
 156 291.758459723 139.08142859 151.019908391 116 88 c 1
 152.254438406 120.519580385 220.252048055 232.305157355 297.244140625 401 c 1
 331.196289062 403 l 1
 328.410439126 273.716819853 309.625135106 150.972977941 301.970703125 67 c 1
 365.926757812 120.83203125 462.452884982 248.495100404 456.66796875 331.223632812 c 0
 455.599609375 346.501953125 449.850585938 366 434.063476562 366 c 3
 426.473632812 366 422.727539062 364.043945312 414.692382812 357 c 1
 397.293945312 377 l 1
 419.9296875 405.978515625 442.86328125 417.265625 457.2265625 417.265625 c 3
 503.380859375 417.265625 521.838598537 383.521533878 525.37109375 333 c 0xa0
EndSplineSet
Substitution2: "case-1" W
Substitution2: "pcap-1" w.pcap
Substitution2: "smcp-1" w.smcp
EndChar

StartChar: x
Encoding: 120 120 23
Width: 450
VWidth: 1159
UnlinkRmOvrlpSave: 1
Flags: HW
HStem: -10 73.4414<30.7961 91.2256> -9.83984 61.8398<251.734 351.257> 326.156 82.8438<325.736 411.991> 344.576 67.4238<93.0134 189.916>
VStem: 31.1416 18.5586<273.965 282.375>
AnchorPoint: "Bottom" 172.6 -15 basechar 0
AnchorPoint: "Top" 266.838 465 basechar 0
LayerCount: 2
Fore
SplineSet
238 222 m 1
 287.11910214 85.8022111816 300.527291397 52 338.103515625 52 c 3
 353.103515625 52 370.1953125 78 392.04296875 111 c 1
 412.670898438 93 l 1
 382.33984375 40.587890625 348.419921875 -9.83984375 293.475585938 -9.83984375 c 3x68
 211.858578521 -9.83984375 213.841806985 104.380640385 196 170 c 1
 195.733390085 171.097898208 188.432042996 194.073539476 188 196 c 1
 174.470960982 253.692679707 160.873936284 344.576171875 117.362304688 344.576171875 c 3
 87.23828125 344.576171875 66.3095703125 298.083007812 49.7001953125 264 c 1
 31.1416015625 280 l 1
 53.353515625 364.333007812 91.6875 412 161.53125 412 c 3x98
 216.530111537 412 224.948817818 303.979209761 233 249 c 1
 233.251902058 247.196430859 237.67538965 222.988498725 238 222 c 1
204 168 m 1
 100.834905004 20.7307962779 98.7590062677 -10 32.2685546875 -10 c 3
 -6.1845703125 -10 -16.8655158949 21.9296095049 -17.9609375 53.3466796875 c 0
 -18.4130859375 66.314453125 -14.99609375 82.162109375 -5.7822265625 106 c 1
 15.3916015625 101 l 1x88
 40.0869140625 73.951171875 54.1943359375 63.44140625 65.1015625 63.44140625 c 3
 88.6228751732 63.44140625 156.668607419 162.105172159 189 204 c 1
 190.076067012 205.157603871 228.464873758 244.13919282 229 245 c 1
 289.840567847 370.105755626 340.21417797 409 373.63671875 409 c 3
 406.758789062 409 439.353378474 364.252822497 440.25 338.643554688 c 0
 440.588867188 328.96484375 438.048828125 319.696289062 433.05859375 311 c 1
 408.954101562 314 l 1
 400.2109375 322.447265625 389.961914062 326.15625 378.610351562 326.15625 c 3
 310.088664367 326.15625 272.756654977 250.008737085 238 211 c 1
 237.571243829 210.589829797 205.245224308 169.577604944 204 168 c 1
EndSplineSet
Substitution2: "smcp-1" x.smcp
Substitution2: "pcap-1" x.pcap
Substitution2: "case-1" X
EndChar

StartChar: y
Encoding: 121 121 24
Width: 359
VWidth: 1159
Flags: HMW
HStem: 388 20G<95.0068 108.547>
VStem: 16.0069 22<273 332.219>
AnchorPoint: "Bottom" 118.726 -161 basechar 0
AnchorPoint: "Top" 233.726 465 basechar 0
LayerCount: 2
Fore
SplineSet
-31 -325 m 1
 -33 -326 -68 -325 -99 -325 c 1
 -137.716796875 -325 -144.88671875 -325 -175 -326 c 1
 -175 -326 -170 -304 -170 -298 c 1
 -99.4482421875 -275 -14.5595703125 -224 96 -42 c 1
 105.9375 5.0087890625 109.987304688 62.5947265625 109.987304688 118.57421875 c 3
 109.987304688 208.383789062 89.64453125 342 63 342 c 3
 52.9423828125 342 31.10546875 304.098632812 19.451171875 273 c 1
 -1.548828125 290 l 1
 28.21484375 363.2578125 78.19921875 413 104 413 c 3
 149.925702735 413 172.91796875 364.926169798 172.91796875 231 c 7
 172.91796875 179.413738563 170.403507962 120.707247896 167 62 c 5
 239.03373023 198.280322675 277.375562877 285.889303768 306.725585938 407 c 1
 311.178710938 406.487304688 369.606445312 402.60546875 379.725585938 402 c 1
 382.228515625 399.9140625 377.945737665 387.561763975 371.59375 373 c 0
 362.71875 352.654296875 349.235192396 328.296951556 345.725585938 321 c 0
 330.522460938 289.390625 249.130463006 115.276637179 142 -42 c 0
 95 -111 0 -271 -31 -325 c 1
EndSplineSet
Substitution2: "case-1" Y
Substitution2: "pcap-1" y.pcap
Substitution2: "smcp-1" y.smcp
EndChar

StartChar: z
Encoding: 122 122 25
Width: 346
VWidth: 1159
Flags: HMW
HStem: -79 29<283.571 314.227> 399 20G<145.175 160.675>
VStem: 319.175 68<-39.3516 32.8313>
AnchorPoint: "Bottom" 180.23 -15 basechar 0
AnchorPoint: "Top" 245.666 465 basechar 0
LayerCount: 2
Fore
SplineSet
88 15 m 3
 58.6441616056 15 24.2079298096 -6.36959134615 12.0205078125 -12 c 1
 1.0205078125 -12 -13.3779296875 8 -13.8671875 15 c 1
 29.4344520773 106.29296875 97.9426781061 156.661132812 245.826171875 334 c 1
 235.546934741 330 213.873474182 329 198.036132812 331 c 1
 168.10704788 336 132.726617496 352 112.078125 359 c 1
 91.8466796875 348 81.9658203125 332 65.57421875 309 c 1
 51.57421875 309 47.57421875 309 46.9453125 318 c 1
 45.1962890625 343 109.833007812 434 125.833007812 434 c 1
 136.207158778 428 152.909862313 407 209.071289062 402 c 1
 285.818552747 397 315.851034151 400 336.952148438 418 c 1
 349.931640625 404 l 1
 289.202552989 274.33203125 149.366511177 186.022460938 74.4755859375 53 c 1
 88.0203700212 56.3715938827 100.342501939 57.8740234375 111.65234375 57.8740234375 c 3
 204.319259077 57.8740234375 229.027454229 -43 301.489257812 -43 c 3
 312.185546875 -43 343.767578125 -30.984375 347.6015625 -16 c 1
 357.146484375 -16 361.709960938 -17.548828125 361.810546875 -19 c 1
 365.621118615 -67.4225186435 323.338946065 -117 258 -117 c 7
 193.929726081 -117 149.310869871 15 88 15 c 3
EndSplineSet
Substitution2: "case-1" Z
Substitution2: "pcap-1" z.pcap
Substitution2: "smcp-1" z.smcp
EndChar

StartChar: A
Encoding: 65 65 26
Width: 665
VWidth: 1159
Flags: HMW
HStem: -10 43<103.227 160.116 544.577 583.188> 245 42<253.295 431.093> 691 20G<494.822 540.39>
VStem: 437.779 92.5742<383.39 544>
AnchorPoint: "Ogonek" 447 23 basechar 0
AnchorPoint: "Top" 514 699 basechar 0
AnchorPoint: "Bottom" 277 -15 basechar 0
LayerCount: 2
Fore
SplineSet
253.294921875 287 m 1
 302.184570312 284 401.9609375 285 447.857421875 287 c 1
 444.498046875 387 441.444335938 442 437.779296875 544 c 9
 366.03515625 443 318.206054688 378 253.294921875 287 c 1
382 -10 m 9
 382 -10 383 13 383 27 c 1
 424.471679688 37 450.770507812 47 448.747070312 75 c 0
 448.029296875 138 447.55078125 178 446.833007812 241 c 1
 394.020507812 251 306.331054688 252 224.620117188 245 c 9
 180.334960938 183 147.404296875 147 108.796875 87 c 0
 88.38671875 51 103.9375 28 171 33 c 9
 158 -10 l 1
 109 1 8 4 -45 -5 c 9
 -45 -5 -40 21 -39 33 c 1
 10.64453125 47 35.9736328125 57 52.1845703125 80 c 0
 208.862304688 289 343.967773438 470 463.178710938 640 c 0
 490.642578125 677 488.254882812 679 501.389648438 711 c 9
 540.389648438 711 l 1
 533.880859375 684 530.13671875 657.322265625 530.353515625 642 c 0
 533.530273438 417.05078125 533.716796875 281 540.610351562 62 c 24
 545.6484375 36 565.801757812 33 592 31 c 9
 592 31 587 8 583 -4 c 1
 524 6 442 6 382 -10 c 9
EndSplineSet
Position2: "cpsp-1" dx=0 dy=0 dh=10 dv=20
Substitution2: "c2pc-1" a.pcap
Substitution2: "c2sc-1" a.smcp
EndChar

StartChar: B
Encoding: 66 66 27
Width: 599
VWidth: 1159
Flags: HMW
HStem: -4 38<3.55189 79.4726 174.677 353.052> 349 30<245.552 380.756> 653 41<172.552 219.865 323.136 443.537>
AnchorPoint: "Top" 367.242 699 basechar 0
AnchorPoint: "Bottom" 255.938 -15 basechar 0
LayerCount: 2
Fore
SplineSet
2.6552734375 34 m 1
 46.603515625 36 82.0546875 35.1494140625 88.634765625 73 c 0
 89.5029296875 78 115.046875 175.720703125 140.899414062 292 c 0
 178.474609375 461 205.802734375 604.989257812 206.467773438 614 c 0
 207.206054688 624 207.506835938 640.092773438 189.629882812 646 c 0
 183.577148438 648 145.39453125 655 139.368164062 656 c 1
 154.373046875 694 l 1
 163.373046875 694 196.634765625 684 248.634765625 684 c 3
 290.6875 684 335.84375 694 375.373046875 694 c 3
 495.376953125 694 545.147460938 578.6796875 532.981445312 518 c 0
 518.74609375 447 465.959960938 402 376.8828125 369 c 1
 500.516601562 363 570.024414062 278.422851562 546.806640625 181 c 0
 520.3515625 70 404.844726562 -4 249.650390625 -4 c 3
 199.650390625 -4 154.493164062 2 101.493164062 2 c 3
 47.4931640625 2 4.5986328125 -2 -2.4013671875 -2 c 1
 2.6552734375 34 l 1
330.569335938 381 m 0
 391.59375 391 431.103515625 440.204101562 444.479492188 499 c 0
 458.22265625 547 456.774414062 653 355.446289062 653 c 3
 348.083007812 653 334.022460938 650.999023438 328.55078125 649 c 0
 306.682617188 644 300.551757812 624.235351562 297.467773438 614 c 0
 263.426757812 501 235.62109375 379 235.62109375 379 c 1
 311.62109375 379 320.692382812 379.381835938 330.569335938 381 c 0
299.407226562 349 m 0
 229.407226562 349 l 1
 208.973632812 251 186.73046875 154.501953125 174.032226562 96 c 0
 166.000976562 59 168.995117188 45.4716796875 191.47265625 41 c 0
 201.524414062 39 242.655273438 34 265.655273438 34 c 3
 357.018554688 34 439.411132812 83.3291015625 462.884765625 178 c 0
 483.712890625 262 445.249023438 349 299.407226562 349 c 0
EndSplineSet
Position2: "cpsp-1" dx=0 dy=0 dh=10 dv=20
Substitution2: "c2pc-1" b.pcap
Substitution2: "c2sc-1" b.smcp
EndChar

StartChar: C
Encoding: 67 67 28
Width: 620
VWidth: 1159
Flags: W
HStem: -10 42<252.828 433.111> 659 40<359.158 552.014>
VStem: 606.39 37.3193<525.562 600.835>
AnchorPoint: "Bottom" 307.347 -15 basechar 0
AnchorPoint: "Top" 459.65 699 basechar 0
LayerCount: 2
Fore
SplineSet
45.841796875 348 m 0
 82.7587890625 520 231.233398438 699 482.650390625 699 c 3
 536.758789062 699 564.418945312 694 614.200195312 678 c 0
 648.48828125 667 667.331054688 673 682.200195312 678 c 1
 704.56640625 664 l 1
 654.137695312 604 648.1328125 566 643.708984375 544 c 0
 639.232421875 524 637.389648438 518 606.389648438 518 c 9
 600.420898438 555 620.452148438 592 592.90234375 613 c 0
 552.1796875 645 518.575195312 659 459.697265625 659 c 27
 318.125976562 659 183.129882812 553 143.34375 367 c 0
 101.140625 160 206.150390625 32 337.116210938 32 c 3
 429.345703125 32 513.364257812 86 566.37109375 175 c 9
 591.581054688 167 l 1
 572.837890625 119 558.466796875 95 536.723632812 47 c 1
 473.543945312 16 399.568359375 -10 315.215820312 -10 c 3
 122.796875 -10 2.4794921875 140 45.841796875 348 c 0
EndSplineSet
Position2: "cpsp-1" dx=0 dy=0 dh=10 dv=20
Substitution2: "c2pc-1" c.pcap
Substitution2: "c2sc-1" c.smcp
EndChar

StartChar: D
Encoding: 68 68 29
Width: 745
VWidth: 1159
Flags: W
HStem: -10 40<-23.7676 44.0425> -7 44<113.21 414.666> 655 34<123.881 175.205 274.394 445.329>
VStem: 643.567 89.291<243.649 470.932>
AnchorPoint: "Bottom" 269.41 -15 basechar 0
AnchorPoint: "Top" 430.713 699 basechar 0
LayerCount: 2
Fore
SplineSet
269.048828125 37 m 3x70
 496.8203125 37 648.629882812 176.061523438 643.567382812 369.3828125 c 0
 638.763671875 552.821289062 490.93359375 655 342.866210938 655 c 3
 331.424804688 655 311.05859375 656.241210938 297.944335938 652 c 0
 272.171875 643.665039062 265.627929688 629.97265625 261.043945312 610 c 0
 218.779296875 425.836914062 189.83984375 265.158203125 144.765625 86 c 0
 140.237304688 68 136.65234375 50.8212890625 162.813476562 46 c 0
 189.944335938 41 227.048828125 37 269.048828125 37 c 3x70
124.896484375 692 m 1
 163.94921875 690 186.106445312 684 227.106445312 684 c 3
 289.159179688 684 316.607421875 689 357.975585938 689 c 3
 547.736328125 689 727.388671875 578.5390625 732.858398438 369.661132812 c 0
 740.000976562 96.8857421875 476.409179688 -7 255.201171875 -7 c 3x70
 185.201171875 -7 150.017578125 0 80.017578125 0 c 3
 10.017578125 0 -0.8515625 -5 -28.720703125 -10 c 1
 -23.767578125 30 l 1xb0
 14.126953125 34 46.30078125 35.9306640625 55.2373046875 68 c 0
 101.981445312 235.75 161.291015625 513.283203125 175.861328125 617 c 0
 180.91796875 653 164.997070312 650 114.997070312 650 c 1
 124.896484375 692 l 1
EndSplineSet
Position2: "cpsp-1" dx=0 dy=0 dh=10 dv=20
Substitution2: "c2pc-1" d.pcap
Substitution2: "c2sc-1" d.smcp
EndChar

StartChar: E
Encoding: 69 69 30
Width: 624
VWidth: 1159
Flags: W
HStem: -10 36<4.20215 60.1368> 337 36<227.173 421.499> 659 31<150.872 192.652> 680 20G<562.614 583.261>
VStem: 438.604 36.7646<251 326.443> 519.983 25.9209<536 581.468>
AnchorPoint: "Ogonek" 483.399 23 basechar 0
AnchorPoint: "Bottom" 262.333 -15 basechar 0
AnchorPoint: "Top" 403.636 699 basechar 0
LayerCount: 2
Fore
SplineSet
150.872070312 690 m 1xec
 236.274414062 677 551.556640625 689 573.671875 700 c 1xdc
 592.850585938 674.7890625 583.733398438 675.5 545.904296875 536 c 1
 519.983398438 533 l 1
 520.708984375 584 517.311523438 614.818359375 513.819335938 618 c 0
 483.0859375 646 387.974609375 650.18359375 327.102539062 643 c 0
 310.155273438 641 294.114257812 627.129882812 288.993164062 609 c 0
 266.114257812 528 245.235351562 447 227.172851562 373 c 1
 278.704101562 375 406.9453125 374.14453125 417.094726562 376 c 0
 444.443359375 381 454.294921875 406 474.157226562 450 c 1
 505.313476562 444 l 1
 484.865234375 379.330078125 477.959960938 315.669921875 475.368164062 251 c 1
 438.603515625 242 l 1
 435.744140625 313 444.318359375 326.4453125 407.247070312 332 c 0
 371.919921875 337 293.827148438 336 219.116210938 337 c 1
 195.17578125 238.067382812 178.018554688 148.391601562 175.819335938 81 c 0
 175.264648438 64 181.666015625 50.5830078125 196.657226562 49 c 0
 281.892578125 40 344.994140625 32.2998046875 421.421875 58 c 0
 480.897460938 78 497.322265625 100 550.33203125 176 c 1
 572.489257812 170 l 1
 543.26953125 102 523.317382812 62 497.940429688 0 c 1
 319.966796875 -1 127.65234375 11 4.2021484375 -10 c 1
 3.259765625 26 l 1
 54.998046875 36 79.68359375 48 85.9501953125 76 c 1
 106.08203125 153.716796875 191.138671875 532.34375 204.7578125 618 c 0
 209.05078125 645 206.05078125 645 140.68359375 659 c 1
 150.872070312 690 l 1xec
EndSplineSet
Position2: "cpsp-1" dx=0 dy=0 dh=10 dv=20
Substitution2: "c2pc-1" e.pcap
Substitution2: "c2sc-1" e.smcp
EndChar

StartChar: F
Encoding: 70 70 31
Width: 553
VWidth: 1159
Flags: W
HStem: -12 54<165.517 251.259> -10 36<-12.2031 40.4561> 335 39<214.741 397.605> 657 31<126.52 171.011>
VStem: 401.251 36.7119<251 325.661> 541.552 28.9219<537 586.343>
AnchorPoint: "Top" 384.231 699 basechar 0
AnchorPoint: "Bottom" 140.928 -15 basechar 0
LayerCount: 2
Fore
SplineSet
248.849609375 -12 m 1xbc
 157.168945312 14 111.247070312 11 -12.203125 -10 c 1
 -13.1455078125 26 l 1x7c
 38.5927734375 36 63.2783203125 48 69.544921875 76 c 1
 89.6826171875 153.4296875 176.530273438 530.525390625 189.404296875 616 c 0
 193.697265625 643 180.697265625 643 115.331054688 657 c 1
 126.51953125 688 l 1
 309.78125 678 586.51953125 688 596.125976562 703 c 1
 623.650390625 683 603.990234375 670 570.473632812 537 c 1
 541.551757812 534 l 1
 539.609375 570 553.352539062 618 522.090820312 628 c 0
 468.619140625 646 374.409179688 654 297.671875 644 c 0
 280.723632812 642 275.168945312 625 269.640625 607 c 0
 246.76171875 526 230.803710938 448 214.741210938 374 c 1
 265.766601562 376 370.625976562 372.506835938 380.741210938 374 c 0
 414.610351562 379 427.956054688 404 452.803710938 448 c 1
 481.9609375 442 l 1
 452.63671875 378 442.286132812 315 437.962890625 251 c 1
 401.250976562 240 l 1
 398.391601562 311 409.024414062 325 371.893554688 330 c 0
 336.797851562 334.725585938 278.916992188 334 204.762695312 335 c 1
 182.256835938 220.649414062 163.765625 147.7890625 160.4140625 81 c 0
 159.859375 64 164.435546875 42 267.435546875 42 c 1
 248.849609375 -12 l 1xbc
EndSplineSet
Position2: "cpsp-1" dx=0 dy=0 dh=10 dv=20
Substitution2: "c2pc-1" f.pcap
Substitution2: "c2sc-1" f.smcp
EndChar

StartChar: G
Encoding: 71 71 32
Width: 691
VWidth: 1159
Flags: W
HStem: -9 39<273.642 471.531> 668 38<372.969 562.85> 677 20G<669.917 700.682>
VStem: 37.1426 94.4199<178.581 407.693> 651.159 27.8174<532 570.168>
AnchorPoint: "Top" 479.604 699 basechar 0
AnchorPoint: "Bottom" 335.3 -15 basechar 0
LayerCount: 2
Fore
SplineSet
503.419921875 706 m 3xd8
 558.5 706 595.004882812 690 636.205078125 676 c 0
 661.44140625 667 663.1796875 677 676.655273438 697 c 9xb8
 700.681640625 696 l 9
 678.9765625 532 l 9
 651.159179688 525 l 1
 632.303710938 621 567.625976562 668 473.415039062 668 c 3
 256.643554688 668 127.342773438 456.978180566 131.5625 281.783203125 c 0
 135.84765625 136.089444337 230.827148438 30 368.122070312 30 c 11
 415.884765625 30 444.171875 37.1474609375 491.415039062 57 c 24
 507.231445312 64 510.8125 80 515.393554688 96 c 0
 525.068359375 135.68359375 542.631835938 201.474609375 556.072265625 261 c 0
 564.260742188 292 560.7109375 313 516.606445312 317 c 0
 485.553710938 319 467.553710938 319 436.52734375 320 c 9
 444.689453125 352 l 1
 536.951171875 342 642.92578125 343 689.768554688 349 c 9
 685.396484375 325 l 1
 657.6328125 316 647.763671875 311 642.313476562 290 c 0
 622.10546875 214.338867188 605.961914062 144.895507812 591.524414062 91 c 0
 585.126953125 68 590.284179688 62 607.676757812 47 c 9
 602.2265625 26 l 1
 529.401367188 16 375.2265625 -9 327.142578125 -9 c 3
 157.306640625 -9 41.908203125 101.052701368 37.142578125 264.528320312 c 0
 30.197265625 549.762447527 278.59765625 706 503.419921875 706 c 3xd8
EndSplineSet
Position2: "cpsp-1" dx=0 dy=0 dh=10 dv=20
Substitution2: "c2pc-1" g.pcap
Substitution2: "c2sc-1" g.smcp
EndChar

StartChar: H
Encoding: 72 72 33
Width: 708
VWidth: 1159
Flags: W
HStem: -10 35<148.237 196.922 412.646 475.605> -7 42<-33.2326 38.175> 327 40<196.714 555.46> 662 38<109.454 160.066 265.975 343.965 557.306 601.595>
AnchorPoint: "Top" 451.219 699 basechar 0
AnchorPoint: "Bottom" 310.393 -15 basechar 0
LayerCount: 2
Fore
SplineSet
111.174804688 700 m 1x70
 187.655273438 689 251.829101562 685 348.349609375 696 c 1
 343.96484375 659 l 1
 318.139648438 655 269.209960938 654.971679688 263.793945312 640 c 0
 250.41015625 603 222.0859375 473 196.713867188 367 c 1
 564.713867188 367 l 1
 578.701171875 436 591.836914062 515.762695312 611.841796875 616 c 0
 619.2265625 653 579.270507812 652 544.790039062 663 c 1
 557.305664062 697 l 1
 635.00390625 681 683.091796875 679 774 704 c 1
 771.615234375 667 l 1
 723.095703125 656 713.263671875 657.248046875 705.362304688 627 c 0
 660.556640625 455.499023438 577.021484375 118.518554688 582.3359375 55 c 0
 584.427734375 30 611.470703125 29 639.55859375 27 c 1
 639.55859375 27 629.431640625 7 628.04296875 -7 c 1x70
 564.387695312 8 495.30078125 10 412.173828125 -10 c 1
 412.173828125 -10 412.169921875 13 412.645507812 25 c 1xb0
 458.208984375 35 486.517578125 36.873046875 493.943359375 64 c 0
 520.8046875 162.134765625 533.678710938 223.958984375 555.459960938 327 c 1
 187.459960938 327 l 1
 169.0234375 238.698242188 146.317382812 136.66796875 135.8125 67 c 0
 130.383789062 31 179.208984375 35 207.514648438 28 c 1
 207.514648438 28 199.518554688 5 195.129882812 -9 c 1
 108.431640625 7 41.30078125 10 -34.95703125 -7 c 1
 -34.95703125 -7 -34.0048828125 17 -32.791015625 35 c 1
 0.947265625 41 38.876953125 40.7001953125 45.8125 67 c 0
 95.7373046875 256.333007812 168.719726562 593.3984375 165.012695312 635 c 0
 163.051757812 657 136.051757812 657 101.833984375 662 c 1
 111.174804688 700 l 1x70
EndSplineSet
Position2: "cpsp-1" dx=0 dy=0 dh=10 dv=20
Substitution2: "c2pc-1" h.pcap
Substitution2: "c2sc-1" h.smcp
EndChar

StartChar: I
Encoding: 73 73 34
Width: 391
VWidth: 1159
Flags: W
HStem: -2 40<-5.74609 95.0633 204.093 280.957> 656 43<138.421 215.708 330.979 416.446>
AnchorPoint: "Ogonek" 157.909 23 basechar 0
AnchorPoint: "Top" 283.395 699 basechar 0
AnchorPoint: "Bottom" 140.568 -15 basechar 0
LayerCount: 2
Fore
SplineSet
140.39453125 699 m 1
 243.310546875 678 306.223632812 680 423.568359375 695 c 1
 416.446289062 652 l 1
 362.533203125 650 333.28125 660.922851562 320.84375 620 c 0
 285.23828125 502.858398438 233.859375 325.626953125 199.682617188 74 c 0
 194.384765625 35 240.166992188 40 290.25390625 38 c 1
 280.95703125 -1 l 1
 189.4765625 10 74.4765625 10 -10 -2 c 1
 -5.74609375 38 l 1
 49.25390625 38 97.4501953125 33.3017578125 111.202148438 85 c 4
 152.124023438 238.845703125 205.161132812 497.926757812 219.930664062 618 c 4
 224.358398438 654 177.490234375 651 128.271484375 656 c 1
 140.39453125 699 l 1
EndSplineSet
Position2: "cpsp-1" dx=0 dy=0 dh=10 dv=20
Substitution2: "c2pc-1" i.pcap
Substitution2: "c2sc-1" i.smcp
EndChar

StartChar: J
Encoding: 74 74 35
Width: 351
VWidth: 1356
Flags: HMW
HStem: 652 39<146.291 216.947 331.911 420.291>
AnchorPoint: "Top" 272.987 699 basechar 0
AnchorPoint: "Bottom" 104.904 -138 basechar 0
LayerCount: 2
Fore
SplineSet
211.055664062 620 m 0
 212.165039062 654 165.19140625 653 116.060546875 658 c 1
 130.0390625 697 l 1
 232.588867188 676 295.432617188 682 413.0390625 697 c 1
 405.165039062 654 l 1
 351.217773438 652 318.198242188 662.908203125 305.002929688 622 c 0
 266.359375 502.189453125 242.806640625 381.420898438 208.399414062 225 c 0
 179.803710938 95 175.651367188 42.884765625 166.291015625 0 c 0
 146.647460938 -90 78.533203125 -147.073242188 6.423828125 -196 c 0
 -23.052734375 -216 -52.5810546875 -234 -82.13671875 -251 c 1
 -98 -218 l 1
 -68.3671875 -204 -44.4814453125 -190.296875 -24.1787109375 -173 c 0
 -18.3095703125 -168 -13.6220703125 -163.7890625 -8.5458984375 -159 c 0
 52.935546875 -101 80.0302734375 -23.77734375 100.588867188 65 c 0
 109.719726562 104.42578125 209.868164062 583.612304688 211.055664062 620 c 0
EndSplineSet
Position2: "cpsp-1" dx=0 dy=0 dh=10 dv=20
Substitution2: "c2pc-1" j.pcap
Substitution2: "c2sc-1" j.smcp
EndChar

StartChar: K
Encoding: 75 75 36
Width: 682
VWidth: 1159
Flags: W
HStem: -6 30<161.559 206.514> -1 35<-30.917 37.012> 660 35<622.625 679.691> 660 29<124.932 162.777 287.246 351.691 468.01 498.187>
AnchorPoint: "Top" 403.67 699 basechar 0
AnchorPoint: "Bottom" 284.366 -15 basechar 0
LayerCount: 2
Fore
SplineSet
468.009765625 686 m 1x50
 529.68848792 679 610.197958093 681 679.774414062 695 c 1
 679.69140625 660 l 1
 633.953005139 650 605.512876976 637.5546875 569.921875 613 c 0
 464.068359375 531.0078125 360.2421875 448.00390625 256.416015625 365 c 1
 507.538085938 93 l 0
 534.271484375 65 563.900390625 41 587.266601562 27 c 1
 577.920898438 2 l 1
 551.833984375 5.3330078125 517.790039062 7 491.790039062 7 c 0
 460.790039062 7 421.883789062 3.4443359375 391 -1 c 1x60
 391.319335938 25 l 1
 421.083007812 34 435.4765625 36.70703125 421.350585938 62 c 0
 408.704101562 84.6435546875 264.188476562 233.302734375 188.69921875 316 c 1
 171.122070312 237.338867188 150.704101562 134.796875 140.852539062 81 c 0
 132.978515625 38 161.978515625 38 214.344726562 24 c 1
 204.130859375 -6 l 1x80
 134.81640625 6 60.7119140625 10 -35 -1 c 1
 -30.9169921875 34 l 1
 21.056640625 35 43.7861328125 41.033203125 53.009765625 75 c 0
 98.26953125 241.677734375 141.752929688 421.020507812 171.471679688 592 c 0
 181.03125 647 168.978515625 649 113.69140625 660 c 1
 124.931640625 689 l 1
 196.219726562 678 281.140625 681 355.87890625 691 c 1
 351.69140625 660 l 1
 297.822265625 655 272.205078125 652.549804688 260.026367188 609 c 0
 236.252929688 523.98828125 217.319335938 445.047851562 197.625 357 c 1
 291.608398438 434.004882812 387.33203125 504.094726562 475.602539062 587 c 0
 487.314453125 598 502.895507812 614 505.633789062 624 c 0
 511.938476562 647.02734375 493.900390625 652 461.716796875 659 c 1
 468.009765625 686 l 1x50
EndSplineSet
Position2: "cpsp-1" dx=0 dy=0 dh=10 dv=20
Substitution2: "c2pc-1" k.pcap
Substitution2: "c2sc-1" k.smcp
EndChar

StartChar: L
Encoding: 76 76 37
Width: 653
VWidth: 1159
Flags: W
HStem: -7 44<-2.37891 66.3822> 2 50<164.984 517.814> 650 46<137.987 188.929 291.13 385.368>
VStem: 589.792 32.208<139.775 160.521>
AnchorPoint: "TopRight" 420.975 581 basechar 0
AnchorPoint: "Top" 262.973 699 basechar 0
AnchorPoint: "Bottom" 258.164 -15 basechar 0
LayerCount: 2
Fore
SplineSet
140.061523438 696 m 1xb0
 215.685546875 675 317.477539062 682 391.151367188 693 c 1
 385.368164062 652 l 1
 301.694335938 641 294.143554688 659.99609375 271.623046875 576 c 0
 258.903320312 528.555664062 174.296875 149 174.296875 149 c 0
 161.047851562 90 155.17578125 52 192.17578125 52 c 0
 232.3203125 52 422.717773438 51.66796875 451.145507812 53 c 0
 517.02734375 57 550.017578125 91 589.791992188 166 c 1
 622 159 l 1
 609.69140625 102 601.09765625 122 545.341796875 -21 c 1
 527.075195312 -12 522.71484375 -5.0849609375 481.748046875 -1 c 0
 468.529296875 0 362.95703125 2 237.659179688 2 c 0x70
 38.6591796875 2 1.9267578125 -7 -8.0732421875 -7 c 1
 -2.37890625 37 l 1
 54.4423828125 43 66.5927734375 43.68359375 73.4931640625 75 c 0
 74.3740234375 79 98.267578125 177.79296875 124.815429688 300 c 0
 158.69921875 455.98046875 188.805664062 603.8515625 190.465820312 615 c 0
 194.634765625 643 183.486328125 648 126.426757812 650 c 1
 140.061523438 696 l 1xb0
EndSplineSet
Position2: "cpsp-1" dx=0 dy=0 dh=10 dv=20
Substitution2: "c2pc-1" l.pcap
Substitution2: "c2sc-1" l.smcp
EndChar

StartChar: M
Encoding: 77 77 38
Width: 928
VWidth: 1159
Flags: W
HStem: -7 38<586.42 657.912> -4 41<-23.8936 57.1353 156.508 213.253 777.57 837.253> 648 40<881.416 967.097> 652 44<120.926 191.836>
AnchorPoint: "Top" 549.424 699 basechar 0
AnchorPoint: "Bottom" 397.83 -15 basechar 0
LayerCount: 2
Fore
SplineSet
837.252929688 -4 m 1x60
 766.51953125 10 679.466796875 11 583.41015625 -7 c 1
 586.419921875 31 l 1x80
 664.842773438 42 686.390625 54.2177734375 701.599609375 123 c 0
 733.823242188 268.71875 756.955078125 412.413085938 772.38671875 547 c 1
 676.502929688 417.098632812 585.341796875 279.734375 495.5 144 c 0
 467.701171875 102 436.633789062 46 419.043945312 0 c 1
 381.043945312 0 l 1
 390.162109375 55 379.805664062 109.893554688 368.028320312 153 c 2
 260.38671875 547 l 1
 215.697265625 414.870117188 179.076171875 269.815429688 149.599609375 123 c 0
 133.739257812 44 154.372070312 51 226.106445312 37 c 1
 213.252929688 -4 l 1
 147.73046875 6 58.4150390625 12 -27.7470703125 -4 c 1
 -23.8935546875 37 l 1
 61.58203125 47 82.8857421875 62.958984375 96.0185546875 115 c 2
 202.015625 535 l 2
 210.405273438 568.241210938 212.676757812 602.665039062 200.509765625 621 c 0
 188.567382812 639 165.939453125 651 106.885742188 652 c 1
 123.58203125 696 l 1x50
 176.052734375 687 239.228515625 683 298.262695312 683 c 0
 315.262695312 683 316.06640625 670.01953125 318.572265625 658 c 0
 354.634765625 485 398.33203125 319 453.556640625 162 c 1
 807.681640625 675 l 0
 813.208984375 684 820.982421875 687.822265625 827.052734375 687 c 0
 871.3671875 681 922.262695312 683 970 688 c 1
 967.096679688 648 l 1
 896.200195312 646 867.743164062 637.969726562 855.762695312 578 c 0
 824.865234375 423.341796875 796.131835938 268.662109375 772.915039062 117 c 0
 761.739257812 44 782.948242188 40 846.000976562 39 c 1
 837.252929688 -4 l 1x60
EndSplineSet
Position2: "cpsp-1" dx=0 dy=0 dh=10 dv=20
Substitution2: "c2pc-1" m.pcap
Substitution2: "c2sc-1" m.smcp
EndChar

StartChar: N
Encoding: 78 78 39
Width: 784
VWidth: 1159
Flags: W
HStem: -5 44<6.23926 73.5495> 647 44<112.179 172.173 765.053 856.614> 657 38<618.15 678.209>
VStem: 586.422 36.5205<0 52.4211>
AnchorPoint: "Top" 493.434 699 basechar 0
AnchorPoint: "Bottom" 351.597 -15 basechar 0
LayerCount: 2
Fore
SplineSet
113.782226562 691 m 1xd0
 155.907226562 687 210.834960938 683 255.130859375 683 c 0
 269.130859375 683 271.223632812 679.5859375 275.611328125 672 c 0
 377.502929688 495.836914062 486.623046875 327.50390625 604.653320312 167 c 1
 636.45703125 289.721679688 663.666015625 411.680664062 689.416015625 539 c 0
 714.090820312 661 660.571289062 650 607.265625 657 c 1
 620.607421875 695 l 1xb0
 712.534179688 681 783.557617188 681 860 686 c 1
 856.614257812 649 l 1
 794.014648438 643 767.951171875 645.13671875 751.622070312 603 c 0
 705.666015625 438.103515625 664.63671875 261.4375 630.188476562 86 c 0
 625.280273438 61 621.938476562 23 622.942382812 0 c 1
 586.421875 -11 l 1
 580.37890625 32 561.48046875 72.7509765625 541.359375 105 c 0
 445.291015625 258.977539062 346.82421875 409.975585938 242.629882812 557 c 1
 155.001953125 159 l 2
 131.869140625 53.9306640625 164.934570312 46 246.37109375 36 c 1
 228.37890625 -10 l 1
 146.025390625 21 66.8544921875 2 2.1611328125 -5 c 1
 6.2392578125 39 l 1
 59.2392578125 39 79.216796875 50.1591796875 91.6650390625 98 c 0
 131.176757812 249.852539062 162.244140625 410.952148438 195.0625 570 c 0
 201.666015625 602 172.24609375 648 103.702148438 647 c 1
 113.782226562 691 l 1xd0
EndSplineSet
Position2: "cpsp-1" dx=0 dy=0 dh=10 dv=20
Substitution2: "c2pc-1" n.pcap
Substitution2: "c2sc-1" n.smcp
EndChar

StartChar: O
Encoding: 79 79 40
Width: 757
VWidth: 1159
Flags: W
HStem: -10 53<272.863 456.334> 655 50<341.459 522.992>
VStem: 36.7354 96.0459<202.593 413.03> 662.638 100.362<290.286 501.723>
AnchorPoint: "Middle" 406.734 358 basechar 0
AnchorPoint: "Ogonek" 385.734 10 basechar 0
AnchorPoint: "Top" 474.562 699 basechar 0
AnchorPoint: "Bottom" 339.562 -15 basechar 0
LayerCount: 2
Fore
SplineSet
427.563476562 655 m 3
 283.125 655 132.78125 545.053710938 132.78125 322.274414062 c 3
 132.78125 167.192382812 226.79296875 43 368.563476562 43 c 3
 518.885742188 43 662.637695312 200.982421875 662.637695312 384.791015625 c 3
 662.637695312 535.33203125 569.92578125 655 427.563476562 655 c 3
474.563476562 705 m 3
 647.458984375 705 763 579.896484375 763 411.1640625 c 3
 763 183.0703125 545.200195312 -10 338.563476562 -10 c 3
 158.209960938 -10 36.7353515625 117.641601562 36.7353515625 287.963867188 c 3
 36.7353515625 530.426757812 255.122070312 705 474.563476562 705 c 3
EndSplineSet
Position2: "cpsp-1" dx=0 dy=0 dh=10 dv=20
Substitution2: "c2pc-1" o.pcap
Substitution2: "c2sc-1" o.smcp
EndChar

StartChar: P
Encoding: 80 80 41
Width: 620
VWidth: 1159
Flags: W
HStem: -11 37<9.2239 64.8022> -7 47<190.368 255.644> 247 36<238.167 387.462> 645 42<154.717 219.524> 654 28<315.897 408.936>
AnchorPoint: "Top" 388.322 699 basechar 0
AnchorPoint: "Bottom" 143.755 -15 basechar 0
LayerCount: 2
Fore
SplineSet
296.594726562 283 m 3x28
 392.829101562 283 490.5 338.01171875 518.234375 452 c 0
 538.858398438 536.767578125 503.985351562 611.611328125 467.720703125 632 c 0
 439.26171875 648 398.708007812 654 339.413085938 654 c 3
 325.413085938 654 313.696289062 642.208007812 310.790039062 627 c 0
 296.778320312 553.663085938 264.759765625 423.8359375 237.42578125 295 c 1
 254.98046875 286 271.420898438 283 296.594726562 283 c 3x28
156.953125 687 m 1xb0
 179.979492188 685 212.022460938 682 248.022460938 682 c 3
 310.953125 682 348.938476562 693 411.868164062 693 c 3
 567.456054688 693 638.852539062 570.385742188 611.150390625 458 c 0
 583.505859375 345.846679688 467.0703125 247 281.096679688 247 c 3
 259.096679688 247 245.02734375 252 227.970703125 256 c 1
 212.76171875 186.220703125 192.864257812 108.416992188 189.470703125 77 c 0
 185.043945312 36 206.91796875 45 272.987304688 40 c 1
 255.643554688 -7 l 1x68
 163.419921875 9 120.340820312 14.6669921875 9.7001953125 -11 c 1
 7.1826171875 26 l 1
 82.8056640625 53.0341796875 93.5185546875 42.7763671875 104.400390625 82 c 0
 143.366210938 227.723632812 186.32421875 444.322265625 220.02734375 610 c 0
 224.70703125 633 208.552734375 644 143.5390625 645 c 1
 156.953125 687 l 1xb0
EndSplineSet
Position2: "cpsp-1" dx=0 dy=0 dh=10 dv=20
Substitution2: "c2pc-1" p.pcap
Substitution2: "c2sc-1" p.smcp
EndChar

StartChar: Q
Encoding: 81 81 42
Width: 725
VWidth: 1361
Flags: W
HStem: -162 49<504.938 712.528> 684 32<386.254 534.078>
AnchorPoint: "Top" 475.591 699 basechar 0
AnchorPoint: "Bottom" 256.523 -15 basechar 0
LayerCount: 2
Fore
SplineSet
461.114257812 684 m 3
 333.114257812 684 215.4453125 566.940429688 178.311523438 392 c 0
 140.52734375 214 196.393554688 46 347.393554688 46 c 3
 476.393554688 46 593.224609375 170.951171875 630.8828125 347 c 0
 676.444335938 560 591.114257812 684 461.114257812 684 c 3
477.997070312 716 m 3
 655.997070312 716 772.666015625 567.131835938 730.18359375 367 c 0
 692.400390625 189 539.84765625 33 373.96484375 1 c 1
 430.681640625 -84.2236328125 547.12890625 -113 653.946289062 -113 c 3
 677.249023438 -113 705.3359375 -109.142578125 715.701171875 -106 c 1
 720.784179688 -137 l 1
 702.90234375 -144.876953125 640.31640625 -162 591.657226562 -162 c 3
 441.934570312 -162 330.545898438 -99.3642578125 279.0703125 -2 c 1
 124.126953125 25 38.6123046875 172.837890625 79.2890625 364 c 0
 125.67578125 582 300.997070312 716 477.997070312 716 c 3
EndSplineSet
Position2: "cpsp-1" dx=0 dy=0 dh=10 dv=20
Substitution2: "salt-1" Q.alt
Substitution2: "c2pc-1" q.pcap
Substitution2: "c2sc-1" q.smcp
EndChar

StartChar: R
Encoding: 82 82 43
Width: 747
VWidth: 1159
Flags: HMW
HStem: -32 36<596.499 649.034> -10 44<-1.96609 66.894 174.767 220.739> 322 45<232.034 342.548> 649 37<157.034 205.076> 664 42<320.477 473.152>
AnchorPoint: "Top" 375.93 699 basechar 0
AnchorPoint: "Bottom" 340.165 -15 basechar 0
LayerCount: 2
Fore
SplineSet
228.793945312 371 m 1x28
 265.810546875 369 285.830078125 367 322.830078125 367 c 3
 457.830078125 367 508.879882812 455.28125 521.598632812 508 c 0
 536.07421875 568 501.236328125 664 393.236328125 664 c 3
 365.236328125 664 304.944335938 655.787109375 290.681640625 613 c 0
 265.345703125 537 245.131835938 447 228.793945312 371 c 1x28
151.04296875 686 m 1x70
 192.051757812 685 213.051757812 685 254.051757812 685 c 0
 319.051757812 685 349.877929688 705 422.877929688 705 c 0
 545.877929688 705 629.510742188 622.46875 604.494140625 520 c 0
 583.251953125 433 503.78515625 372 423.046875 342 c 1
 484.8203125 139 571.962890625 8 696 4 c 5
 681.313476562 -32 l 5xa8
 514.356445312 -37 366.697265625 153 338.212890625 323 c 1
 329.221679688 322 322.221679688 322 315.221679688 322 c 0
 277.221679688 322 257.1953125 325 220.178710938 327 c 1
 201.399414062 232.170898438 187.165039062 164.038085938 172.301757812 84 c 0
 165.615234375 48 183.666992188 42 235.711914062 37 c 1
 219.094726562 -7 l 1
 148.946289062 10 73.9375 11 -4.931640625 -4 c 1
 -1.2880859375 37 l 1
 48.6943359375 39 63.6669921875 42 74.396484375 73 c 1
 137.88671875 303.684570312 157.956054688 392.1796875 201.803710938 599 c 1
 206.490234375 635 199.384765625 647 141.3671875 649 c 1
 151.04296875 686 l 1x70
EndSplineSet
Position2: "cpsp-1" dx=0 dy=0 dh=10 dv=20
Substitution2: "salt-1" R.alt
Substitution2: "c2pc-1" r.pcap
Substitution2: "c2sc-1" r.smcp
EndChar

StartChar: S
Encoding: 83 83 44
Width: 555
VWidth: 1159
Flags: W
HStem: -10 43<160.629 332.782> 672 38<289.828 429.79> 681 20G<516.709 556>
VStem: 37.1113 32.79<111.023 202> 488.832 38.8477<531.982 616.02>
AnchorPoint: "Top" 357.756 699 basechar 0
AnchorPoint: "Bottom" 233.688 -15 basechar 0
LayerCount: 2
Fore
SplineSet
37.111328125 202 m 1xd8
 69.9013671875 208 l 1
 73.4912109375 149 72.962890625 128.506835938 86.3935546875 108 c 0
 117.293945312 66.58203125 193.084960938 33 251.012695312 33 c 3
 346.012695312 33 404.55859375 102.38671875 413.682617188 157 c 0
 435.971679688 290.41796875 301.270507812 317.834960938 232.5234375 362 c 0
 214.110351562 373.829101562 121.939453125 436 149.749023438 556 c 0
 166.701171875 629.151367188 249.569335938 710 379.37109375 710 c 3xd8
 428.619140625 710 467.481445312 695.456054688 485.139648438 688 c 0
 499.348632812 682 504.733398438 671 528.685546875 701 c 1xb8
 556 692 l 1
 522.793945312 612 525.86328125 610.009765625 527.6796875 558 c 0
 528.412109375 537 520.041015625 519 488.83203125 525 c 1
 486.272460938 541 487.603515625 565.840820312 483.771484375 584 c 0
 473.640625 632 421.516601562 672 356.698242188 672 c 3
 316.291015625 672 232.693359375 644.06640625 221.469726562 564 c 0
 208.293945312 470.0078125 271.2265625 453.661132812 385.231445312 399 c 0
 507.870117188 339.081054688 509.583007812 237.479492188 495.088867188 174 c 0
 477.4921875 96.931640625 400.076171875 -10 219.514648438 -10 c 3
 169.681640625 -10 121.198242188 2.4521484375 80.2568359375 26 c 0
 62.423828125 35.5458984375 61.3779296875 34.181640625 46.3046875 -4 c 1
 13.1650390625 0 l 1
 33.90625 71.845703125 34.4189453125 90.587890625 37.111328125 202 c 1xd8
EndSplineSet
Position2: "cpsp-1" dx=0 dy=0 dh=10 dv=20
Substitution2: "c2pc-1" s.pcap
Substitution2: "c2sc-1" s.smcp
EndChar

StartChar: T
Encoding: 84 84 45
Width: 711
VWidth: 1159
Flags: HMW
HStem: -21 51<146.854 251.432> -11 44<363.699 433.854> 632 51<195.933 406.854 497.181 715.797> 676 34G<181.854 198.354 774.854 797.854>
AnchorPoint: "Top" 424.346 699 basechar 0
AnchorPoint: "Bottom" 298.509 -15 basechar 0
LayerCount: 2
Fore
SplineSet
216.869140625 687 m 0x20
 380.956054688 685 545.04296875 683 710.956054688 685 c 0
 725.956054688 685 740.737304688 690 750.301757812 700 c 1
 769 684 l 1
 748.5703125 648 726.317382812 608 714.368164062 561 c 1
 679.106445312 567 l 1
 692.796875 597 l 0
 712.658203125 646 528.137695312 635 475.137695312 635 c 1
 432.556640625 456.666992188 394.880859375 281.35546875 360.489257812 100 c 0
 348.239257812 37 351.977539062 43 449.4140625 33 c 1
 434.333984375 -11 l 1x60
 358.461914062 9 224.766601562 2 144.771484375 -21 c 1
 145.544921875 30 l 1
 257.065429688 41 258.541015625 53 264.537109375 76 c 0
 295.4765625 197.870117188 380.805664062 573.553710938 380.094726562 636 c 1xa0
 321.051757812 637 261.094726562 636 203.356445312 630 c 0
 157.575195312 625 157.356445312 630 107.5859375 556 c 1
 74.84375 573 l 1
 101.142578125 612 144.650390625 692 159.689453125 714 c 1x10
 177.475585938 696 196.869140625 687 216.869140625 687 c 0x20
EndSplineSet
Position2: "cpsp-1" dx=0 dy=0 dh=10 dv=20
Substitution2: "c2pc-1" t.pcap
Substitution2: "c2sc-1" t.smcp
EndChar

StartChar: comma
Encoding: 44 44 47
Width: 183
VWidth: 1159
Flags: W
HStem: -125 247
VStem: 5.56055 162.308
LayerCount: 2
Fore
SplineSet
16.6875 -125 m 1
 5.560546875 -100 l 1
 42.2939453125 -79 89.5859375 -42 80.66796875 -11 c 0
 74.4365234375 11 55.9599609375 26 38.3447265625 37 c 0
 34.4140625 39 32.6591796875 46 32.8681640625 52 c 1
 33.078125 58 38.251953125 63 43.322265625 65 c 0
 64.7060546875 76 81.2646484375 92 95.998046875 113 c 0
 98.1728515625 118 105.3125 122 111.3125 122 c 3
 117.3125 122 122.172851562 118 122.998046875 113 c 0
 131.264648438 92 145.706054688 76 163.322265625 65 c 0
 167.251953125 63 168.078125 58 167.868164062 52 c 1
 167.659179688 46 141.95703125 -60 16.6875 -125 c 1
EndSplineSet
Validated: 33
Position2: "cpsp-1" dx=0 dy=0 dh=10 dv=20
EndChar

StartChar: period
Encoding: 46 46 49
Width: 184
VWidth: 1159
Flags: W
HStem: -18 140<84.9007 113.663>
VStem: 31 136
LayerCount: 2
Fore
SplineSet
156.44140625 36 m 0
 135.057617188 25 117.568359375 11 102.834960938 -10 c 0
 100.66015625 -15 93.5556640625 -18 87.5556640625 -18 c 3
 81.5556640625 -18 74.66015625 -15 73.8349609375 -10 c 0
 65.568359375 11 54.0576171875 25 36.44140625 36 c 0
 32.5107421875 38 30.7900390625 46 31 52 c 1
 31.2099609375 58 36.3837890625 63 41.4541015625 65 c 0
 62.837890625 76 79.396484375 92 94.1298828125 113 c 0
 96.3046875 118 104.444335938 122 110.444335938 122 c 3
 116.444335938 122 122.3046875 118 123.129882812 113 c 0
 131.396484375 92 143.837890625 76 161.454101562 65 c 0
 165.383789062 63 167.209960938 58 167 52 c 1
 166.790039062 46 161.510742188 38 156.44140625 36 c 0
EndSplineSet
Validated: 1
Position2: "cpsp-1" dx=0 dy=0 dh=10 dv=20
EndChar

StartChar: uni0307
Encoding: 775 775 50
Width: 0
VWidth: 1159
Flags: W
HStem: 451 102<-126.919 -55.6741>
VStem: -143.509 104.425<467.528 536.472>
AnchorPoint: "TopMark" -118.415 405 mark 0
AnchorPoint: "TopMark" -83.9316 539 basemark 0
AnchorPoint: "Top" -124 389 mark 0
LayerCount: 2
Fore
SplineSet
-80.4560546875 553 m 0
 -52.4560546875 553 -33.1328125 531 -39.083984375 503 c 0
 -45.4609375 473 -75.13671875 451 -102.13671875 451 c 0
 -130.13671875 451 -149.885742188 471 -143.508789062 501 c 0
 -137.1328125 531 -107.456054688 553 -80.4560546875 553 c 0
EndSplineSet
Validated: 33
EndChar

StartChar: dotlessi
Encoding: 305 305 51
Width: 277
VWidth: 1159
Flags: HMW
HStem: 354 75<141 212>
VStem: 60 202
AnchorPoint: "Top" 207 465 basechar 0
LayerCount: 2
Fore
SplineSet
173 197 m 0
 161 153.317460317 150 91.3492063496 155 69 c 1
 157 60 164 59 176 63 c 1
 190 67.1428571428 222 97.1785714281 242 121 c 1
 262 106 l 1
 235 66.025 158 -11 121 -11 c 3
 87.4541262184 -11 73 20.1579839821 73 56 c 3
 73 100.187516119 98.3622368969 147.377879626 112 194 c 0
 117.818181818 212.581560284 138.181818182 274.829787234 144 325 c 0
 145 335 144 343 140 344 c 1
 129.166666667 344 86.8181818182 301.575757576 75 288 c 1
 60 305 l 1
 85.3157894737 342.451612903 162.236842105 413 208 413 c 3
 238 413 241 392 235 365 c 0
 234 358 227 347 225 341 c 0
 210.142857143 303.2 177.235403486 212.41776507 173 197 c 0
EndSplineSet
Substitution2: "case-1" I
EndChar

StartChar: uniFB01
Encoding: 64257 64257 52
Width: 511
VWidth: 1159
Flags: W
HStem: -326 36<-130.972 -90.3675> -5 21G<327.492 346.729> 351 62<329.382 427.658> 697 57<341.935 440.122>
VStem: 280.492 82<73.8162 149.7>
LayerCount: 2
Fore
SplineSet
179 335 m 1
 157.522460938 240.739257812 105.368238572 -77.8952842851 74 -172 c 0
 52.79296875 -235.62109375 21.2421875 -278.947265625 -14 -323 c 1
 -24 -322 -23 -321 -65 -321 c 3
 -86 -321 -118 -325 -130 -326 c 1
 -135 -290 l 1
 -75.8916015625 -275.814453125 -40.4205396097 -236.986829044 -12 -187 c 0
 40.4091796875 -94.8212890625 83.470703125 155.895507812 116 329 c 1
 92.662109375 327.875 70.337890625 324.5 47 320 c 1
 52 362 l 1
 75.328125 360.5 104 364 123 365 c 1
 131.608398438 413.620117188 143.119102083 481.087646528 145 493 c 0
 166 626 219.582663748 654.627607834 290 701 c 0
 331 728 368 754 425 754 c 3
 455.243902439 754 524.512195122 702 545 658 c 1
 540 631 531 624 479 598 c 1
 443.972972973 632.941176471 407 697 371 697 c 3
 289 697 252.857286895 620.143217238 218 498 c 0
 215.044359537 487.643157361 196 417 186 369 c 1
 386.199083306 396 384.748227945 413 413.4921875 413 c 3
 443.4921875 413 445.753247596 392.153659913 440.4921875 365 c 0
 432.878308762 325.702848832 412 307 378.4921875 197 c 0
 366.305098164 156.992021951 358.047851562 100.428710938 362.4921875 80 c 1
 364.4921875 71 371.4921875 70 383.4921875 74 c 1
 397.067382812 77.357421875 428.09765625 101.696289062 447.4921875 121 c 1
 467.4921875 106 l 1
 440.875 68.0751953125 364.966796875 -5 328.4921875 -5 c 3
 326.4921875 -5 316.352771599 -3.4477190373 312.4921875 -2 c 0
 296.4921875 4 285.515430792 19.837296959 282.4921875 41 c 0
 281.4921875 48 280.4921875 55 280.4921875 62 c 0
 280.4921875 66 281.26625691 70.006385676 281.4921875 74 c 0
 283.38671875 107.48828125 305.894260233 154.997968614 317.4921875 194 c 0
 322.764648438 211.73046875 339.772601083 271.309420034 346.4921875 319 c 0
 348.865234375 335.842105263 346.78432292 351 337 351 c 3
 310.66500756 351 207.726594002 338.87875 179 335 c 1
EndSplineSet
LCarets2: 1 262
Ligature2: "liga-1" f i
EndChar

StartChar: uni0237
Encoding: 567 567 53
Width: 237
VWidth: 1159
Flags: HMW
HStem: 353 75<133 203>
AnchorPoint: "Top" 199 465 basechar 0
LayerCount: 2
Fore
SplineSet
-112 -311 m 1
 -71 -272 -42 -236 -15 -192 c 0
 2 -167 31 -88 41 -62 c 0
 51 -37 75 63 97 153 c 0
 116.425 240.466666667 124.75 267.8 134 317 c 0
 136 327 134 336 130 337 c 1
 119.492537313 337 77.4626865672 299.121212121 66 287 c 1
 52 304 l 1
 77.4834437086 341.451612903 153.933774834 412 200 412 c 3
 230 412 231 391 225 364 c 0
 224 357 215 345 213 339 c 0
 197.979591837 301.226415094 176.387755102 232.874213836 167 196 c 0
 147 116 126 27 116 -25 c 0
 105 -88 87 -163 76 -186 c 0
 58 -228 23 -274 0 -289 c 0
 -14 -299 -76 -315 -97 -332 c 1
 -112 -311 l 1
EndSplineSet
Validated: 33
EndChar

StartChar: U
Encoding: 85 85 54
Width: 777
VWidth: 1159
Flags: W
HStem: -10 54<239.68 460.587> 651 39<112.318 172.767 275.016 361.419 628.318 696.924 762.585 837.576>
AnchorPoint: "Ogonek" 365.686 10 basechar 0
AnchorPoint: "Top" 491.036 699 basechar 0
AnchorPoint: "Bottom" 316.471 -15 basechar 0
LayerCount: 2
Fore
SplineSet
112.318359375 690 m 1
 166.5390625 683 288.5390625 683 365.318359375 690 c 1
 361.418945312 655 l 1
 296.638671875 648 268.94921875 648.659179688 258.3671875 593 c 0
 256.630859375 583.892578125 182.045898438 286.654296875 174.987304688 255 c 0
 160.967773438 192 162.19140625 140.728515625 188.700195312 105 c 0
 216.89453125 67 272.6171875 44 368.6171875 44 c 3
 391.6171875 44 471.813476562 45.8740234375 536.794921875 102 c 0
 579.6328125 139 601.733398438 189.1015625 621.830078125 260 c 0
 649.155273438 356.104492188 680.993164062 512.041992188 698.895507812 608 c 0
 707.44921875 654 680.544921875 651 618.512695312 652 c 1
 628.318359375 690 l 1
 675.5390625 683 812.6015625 681 844.318359375 690 c 1
 837.576171875 650 l 1
 790.606445312 649 769.286132812 656.360351562 756.581054688 618 c 0
 752.888671875 606.876953125 727.217773438 487.592773438 671.987304688 255 c 0
 652.563476562 173 614.622070312 107.98046875 560.95703125 65 c 0
 498.529296875 15 415.314453125 -10 317.314453125 -10 c 3
 208.314453125 -10 142.056640625 18.771484375 108.86328125 68 c 0
 80.54296875 110 76.9677734375 165.724609375 90.5849609375 236 c 0
 96.673828125 267.348632812 171.453125 581.645507812 174.272460938 596 c 0
 182.890625 640 173.827148438 642 98.544921875 651 c 1
 112.318359375 690 l 1
EndSplineSet
Position2: "cpsp-1" dx=0 dy=0 dh=10 dv=20
Substitution2: "c2pc-1" u.pcap
Substitution2: "c2sc-1" u.smcp
EndChar

StartChar: V
Encoding: 86 86 55
Width: 691
VWidth: 1159
Flags: W
HStem: 651 42<102.467 150.064 254.484 335.001 557.449 609.482 700.59 769.885>
VStem: 160.765 42.7793<-27 14.614> 161.254 85.0049<111 591.14> 161.391 92.2598<137.86 646.685>
AnchorPoint: "Top" 446 699 basechar 0
AnchorPoint: "Bottom" 186.649 -15 basechar 0
LayerCount: 2
Fore
SplineSet
344.227539062 692 m 1x90
 335.000976562 656 l 1
 309.216796875 657 290.305664062 656.294921875 278.688476562 654 c 0
 248.3203125 648 253.848632812 631.770507812 253.650390625 618 c 2x90
 246.258789062 111 l 1xa0
 602.623046875 608 l 2
 616.521484375 623.654296875 618.797851562 651 595.044921875 651 c 0
 589.46484375 651 550.916992188 653 546.267578125 653 c 1
 557.44921875 693 l 1
 624.286132812 678 729.21484375 681 776 693 c 1
 769.884765625 651 l 1
 733.358398438 650 706.204101562 641.541992188 654.834960938 594 c 0
 623.390625 558.201171875 367.18359375 221.500976562 255.0234375 60 c 0
 234.216796875 35.64453125 215.328125 0 203.543945312 -27 c 1
 160.764648438 -27 l 1xc0
 160.115234375 0 161.248046875 21.015625 161.25390625 57 c 0xa0
 161.272460938 169.40625 161.331054688 403.74609375 161.390625 610 c 0
 161.403320312 652.190429688 132.327148438 649 90.41015625 656 c 1
 104.80078125 694 l 1
 201.557617188 676 238.787109375 687 344.227539062 692 c 1x90
EndSplineSet
Position2: "cpsp-1" dx=0 dy=0 dh=10 dv=20
Substitution2: "c2pc-1" v.pcap
Substitution2: "c2sc-1" v.smcp
EndChar

StartChar: W
Encoding: 87 87 56
Width: 937
VWidth: 1159
Flags: W
HStem: 661 29<91 132.598 292.728 344 436 479.875 604.084 686 787 833.406>
VStem: 172 80<130 633.169> 172 34<-21 13.3559> 498 91<404.765 476 556 648.438> 498 74<113 317.235>
AnchorPoint: "Top" 567 699 basechar 0
AnchorPoint: "Bottom" 355 -15 basechar 0
LayerCount: 2
Fore
SplineSet
1027 693 m 1x88
 1023 657 l 1
 941.095703125 630 925.485351562 607.025390625 856 496 c 0
 657.6171875 179.017578125 592.538085938 79.681640625 569 42 c 0
 553.713867188 17.5302734375 543.451171875 7 533 -15 c 1
 497 -16 l 1
 501 2 498.1796875 18.5419921875 498 58 c 0
 497.370117188 196.162109375 496.629882812 337.837890625 496 476 c 1
 314.416015625 172.07421875 252.02734375 66.6865234375 228 23 c 0
 217 3 211 -9 206 -21 c 1
 172 -21 l 1
 172 -1 172.338867188 23.3837890625 172 89 c 0xa8
 170.658203125 348.821289062 166.040039062 558.569335938 166 574 c 0
 165.922851562 603.966796875 158 627.045898438 147 637 c 0
 128.606445312 653.645507812 106.771484375 659.451171875 83 661 c 1
 91 690 l 1
 143.333007812 678.9765625 285.666992188 681.379882812 347 690 c 1
 344 655 l 1
 294.655273438 655 273.747070312 643.354492188 263 619 c 0
 258 607.668945312 256.120117188 585.325195312 256 572 c 2
 252 130 l 1
 498 556 l 1
 498 611.3125 498 626.78125 495 631 c 1
 481.983398438 656 448.849609375 656 424 661 c 1
 436 690 l 1
 501 679 607 678 691 694 c 1
 686 658 l 1
 680 657 636.943359375 657.461914062 627 656 c 0
 593 651 589.611328125 626.842773438 589 609 c 2xd0
 572 113 l 1
 663.740234375 257.756835938 746.68359375 398.971679688 820 525 c 0
 866.002929688 604.078125 882 653.576171875 780 656 c 1
 787 688 l 1
 839 679 935 679 1027 693 c 1x88
EndSplineSet
Position2: "cpsp-1" dx=0 dy=0 dh=10 dv=20
Substitution2: "c2pc-1" w.pcap
Substitution2: "c2sc-1" w.smcp
EndChar

StartChar: X
Encoding: 88 88 57
Width: 733
VWidth: 1159
Flags: W
HStem: -8 21G<391.522 424.5> 0 33<-18.1523 30.2408 150.297 202.931 618.379 648> 654 39<310.892 358.693> 660 26<121.035 149.424 519.965 548.511 708.119 751.979>
AnchorPoint: "Top" 426.581 699 basechar 0
AnchorPoint: "Bottom" 298.524 -15 basechar 0
LayerCount: 2
Fore
SplineSet
121.03515625 686 m 1x50
 228.245117188 680 264.280273438 679 365.791015625 693 c 1
 358.978515625 659 l 1
 353.047851562 657 336.26953125 657.044921875 321.15234375 654 c 0
 296.328125 649 294.018554688 631.026367188 300.446289062 617 c 2
 397.920898438 403 l 1
 464.805664062 476.005859375 521.42578125 547.182617188 551.563476562 585 c 0
 567.864257812 605 585.704101562 635.3671875 556.467773438 645 c 0
 550.387695312 647.286132812 511.98828125 658.713867188 506.908203125 661 c 1
 519.96484375 688 l 1
 595.314453125 678 677.209960938 681 756.860351562 691 c 1
 751.978515625 659 l 1
 735.047851562 657 689.046875 648.15234375 637.829101562 606 c 0
 618.314453125 589.63671875 601.883789062 571.227539062 414.690429688 381 c 1
 451.625976562 314.563476562 560.325195312 112.913085938 574.8203125 91 c 0
 601.25390625 50 618.358398438 47 662.708007812 37 c 1
 648 0 l 1x60
 585.580078125 12 459.719726562 8 389.280273438 -8 c 1x80
 393.091796875 26 l 1
 404.84765625 33 429.272460938 36.1787109375 440.602539062 40 c 0
 476.18359375 52 468.172851562 80.244140625 460.4375 102 c 0
 441.84765625 152.47265625 413.981445312 227.645507812 366.821289062 320 c 1
 282.28515625 230.28125 211.817382812 145.796875 164.890625 89 c 0
 151.484375 72 137.319335938 43.1220703125 165.672851562 38 c 0
 176.7421875 36 199.8125 34 209.84765625 33 c 1
 202.930664062 2 l 1
 118.719726562 8 55.650390625 10 -25 0 c 1
 -18.15234375 33 l 1
 -8.2919921875 37 44.375 45.646484375 89.9599609375 87 c 0
 107.696289062 102.416992188 122.423828125 116.805664062 346.913085938 346 c 1
 206.271484375 590.099609375 199.243164062 603.336914062 188.446289062 617 c 0
 162.29296875 650 134.118164062 655 115.943359375 660 c 1
 121.03515625 686 l 1x50
EndSplineSet
Position2: "cpsp-1" dx=0 dy=0 dh=10 dv=20
Substitution2: "c2pc-1" x.pcap
Substitution2: "c2sc-1" x.smcp
EndChar

StartChar: Y
Encoding: 89 89 58
Width: 670
VWidth: 1159
Flags: W
HStem: -11 41<137 215.388> -5 42<347.234 415> 649 39<90.9459 139.89 267.248 328 531.029 572.562 672.962 751>
AnchorPoint: "Top" 412 699 basechar 0
AnchorPoint: "Bottom" 283 -15 basechar 0
LayerCount: 2
Fore
SplineSet
328 649 m 1xa0
 328 649 305 649 293 649 c 0
 276 649 258.8984375 636.963867188 265 620 c 0
 315 483.288085938 374 386.901367188 378 381 c 1
 467 485.5 553.465820312 585.603515625 557 590 c 0
 573 610 583.615234375 633.192382812 562 644 c 0
 552 649 536 650 521 654 c 1
 532 692 l 1
 565 686 696 675 761 691 c 1
 751 648 l 1
 691 646 661.059570312 627.9296875 629 601 c 0
 554 538.248046875 463 429.676757812 397 348 c 1
 384.307617188 296.431640625 366.258789062 242.5546875 342 85 c 0
 336 46 354 41 429 37 c 1
 415 -5 l 1x60
 323 9 240 15 137 -11 c 1
 137 30 l 1
 213 42 251.646484375 57.087890625 263 105 c 2
 312 311 l 1
 307 321.852539062 249.916015625 472.883789062 168 606 c 0
 151 634 129 635 79 651 c 1
 92 690 l 1
 144 684 277 677 334 688 c 1
 328 649 l 1xa0
EndSplineSet
Position2: "cpsp-1" dx=0 dy=0 dh=10 dv=20
Substitution2: "c2pc-1" y.pcap
Substitution2: "c2sc-1" y.smcp
EndChar

StartChar: Z
Encoding: 90 90 59
Width: 689
VWidth: 1159
Flags: W
HStem: 4 40<126.113 496.248> 646 43<195.288 597.917>
AnchorPoint: "Top" 418.516 699 basechar 0
AnchorPoint: "Bottom" 284.689 -15 basechar 0
LayerCount: 2
Fore
SplineSet
92.1474609375 570 m 1
 158.388671875 679 156.772460938 716 183.3359375 726 c 1
 195.515625 699 228.924804688 690.24609375 238.952148438 689 c 0
 268.280273438 684.284179688 604.0625 679.569335938 701.643554688 684.6171875 c 0
 711.2890625 685.001953125 718.610351562 685.4609375 723.083007812 686 c 1
 730 665 l 1
 717.067382812 651.998046875 l 0
 126.11328125 44 l 1
 197.11328125 44 269.200195312 42 340.200195312 42 c 0
 485.200195312 42 579.41015625 83 618.1796875 157 c 1
 640.747070312 144 l 1
 587.719726562 53 568.291992188 17 538.08203125 -24 c 1
 521.6015625 -13 507.037109375 -0.099609375 429.990234375 1 c 0
 289.903320312 3 63.5537109375 11 -11.140625 4 c 1
 -14.40625 33 l 1
 26.6767578125 54 64.931640625 88.2509765625 94.8388671875 119 c 0
 261.729492188 289.559570312 430.420898438 465.3203125 594.134765625 639 c 0
 597.916992188 644 l 1
 259.829101562 646 l 2
 207.822265625 646.154296875 164.702148438 626 113.93359375 552 c 1
 92.1474609375 570 l 1
EndSplineSet
Position2: "cpsp-1" dx=0 dy=0 dh=10 dv=20
Substitution2: "c2pc-1" z.pcap
Substitution2: "c2sc-1" z.smcp
EndChar

StartChar: parenleft
Encoding: 40 40 60
Width: 383
VWidth: 1515
Flags: W
VStem: 37 48<49.4585 379.9>
LayerCount: 2
Fore
SplineSet
337 724 m 9
 358 689 l 1
 173.908045977 597 85 426 85 214 c 27
 85 2 161.356321839 -154 358 -263 c 9
 339 -301 l 1
 145 -194 37 -18 37 214 c 27
 37 445 149 627 337 724 c 9
EndSplineSet
Validated: 1
Position2: "cpsp-1" dx=0 dy=0 dh=10 dv=20
Position2: "'case' vertical ajustments for all-caps-1" dx=0 dy=125 dh=0 dv=0
EndChar

StartChar: parenright
Encoding: 41 41 61
Width: 380
VWidth: 1516
Flags: W
VStem: 296 48<49.4585 379.9>
LayerCount: 2
Fore
SplineSet
46 724 m 1
 234 627 344 445 344 214 c 3
 344 -18 237 -194 43 -301 c 1
 25 -263 l 1
 221.71042471 -154 296 2 296 214 c 3
 296 426 209.154440154 597 25 689 c 1
 46 724 l 1
EndSplineSet
Validated: 1
Position2: "cpsp-1" dx=0 dy=0 dh=10 dv=20
Position2: "'case' vertical ajustments for all-caps-1" dx=0 dy=125 dh=0 dv=0
EndChar

StartChar: zero
Encoding: 48 48 64
Width: 503
VWidth: 1159
Flags: W
HStem: 1 33<167.776 279.07> 375 36<209.091 325.043>
LayerCount: 2
Fore
SplineSet
263.017578125 375 m 3
 187.447265625 375 139.41015625 298.412109375 125.08984375 227 c 0
 106.099609375 123.569335938 129.801757812 34 227.72265625 34 c 3
 307.885742188 34 345.719726562 126.92578125 358.567382812 195 c 0
 377.422851562 294.771484375 359.709960938 375 263.017578125 375 c 3
290.35546875 411 m 3
 395.118164062 411 461.342773438 317.724609375 439.810546875 206 c 0
 418.274414062 93.4091796875 318.922851562 1 206.997070312 1 c 3
 97.4560546875 1 26.837890625 93.4091796875 47.810546875 206 c 0
 69.8212890625 315.674804688 181.051757812 411 290.35546875 411 c 3
EndSplineSet
Substitution2: "dnom-1" zero.denom
Substitution2: "numr-1" zero.numerator
Substitution2: "lnum-1" zero.proportionallining
Substitution2: "tnum-1" zero.tabulartext
EndChar

StartChar: one
Encoding: 49 49 65
Width: 370
VWidth: 1159
Flags: W
HStem: 0 26<31.8135 87.6873 199.022 246.514> 369 23<118.41 164.102> 379 23<279.414 319.76>
VStem: 28.5137 293.935
LayerCount: 2
Fore
SplineSet
118.41015625 392 m 1xd0
 171.053710938 387.885742188 262.731445312 388.837890625 322.448242188 402 c 9
 319.759765625 379 l 1xb0
 257.314453125 367 256.48046875 358 244.162109375 327 c 0
 241.328125 318 221.264648438 249 211.27734375 200 c 24
 200.067382812 145 189.374023438 68 189.334960938 58 c 0
 189.83203125 31 217.423828125 29 253.017578125 27 c 9
 246.513671875 0 l 1
 173.34375 6.4775390625 104.725585938 7.2900390625 28.513671875 0 c 9
 31.8134765625 26 l 1
 65.62890625 30 94.0361328125 32 112.151367188 62 c 0
 117.985351562 71 128.672851562 94 150.27734375 200 c 0
 170.251953125 298 170.532226562 319 170.754882812 325 c 0
 171.276367188 357 176.90625 365 112.721679688 369 c 9
 118.41015625 392 l 1xd0
EndSplineSet
Substitution2: "dnom-1" one.denom
Substitution2: "numr-1" one.numerator
Substitution2: "tnum-1" one.tabulartext
Substitution2: "lnum-1" one.proportionallining
EndChar

StartChar: two
Encoding: 50 50 66
Width: 445
VWidth: 1159
Flags: W
HStem: -11 21G<298.934 321.898> 2 64<80.9961 312.83> 405 53<151.591 258.051>
LayerCount: 2
Fore
SplineSet
77.3447265625 367 m 1x60
 113.602539062 414.314453125 161.87109375 458 229.891601562 458 c 0
 305.891601562 458 357.08984375 405 342.823242188 335 c 0
 319.791992188 222 102.684570312 89 80.99609375 66 c 9x60
 298.607421875 69 l 2
 330.607421875 69 361.556640625 108 389.671875 138 c 1
 406.20703125 121 l 1
 406.20703125 121 329.493164062 39 314.303710938 -11 c 1xa0
 283.563476562 5 207.952148438 2 133.952148438 2 c 0
 43.9521484375 2 -15.455078125 0 -20.455078125 0 c 1
 -22.7861328125 18 l 1
 30.8310546875 75 244.658203125 187 272.786132812 325 c 0
 284.40234375 382 242.08984375 405 198.08984375 405 c 0
 152.08984375 405 120.19921875 381 94.4921875 353 c 1
 77.3447265625 367 l 1x60
EndSplineSet
Substitution2: "dnom-1" two.denom
Substitution2: "numr-1" two.numerator
Substitution2: "tnum-1" two.tabulartext
Substitution2: "lnum-1" two.proportionallining
EndChar

StartChar: three
Encoding: 51 51 67
Width: 388
VWidth: 1159
Flags: W
HStem: -234 26<8.51653 33.2284> 122 26<74.3408 106.059> 402 52<175.34 253.297>
VStem: 5.08105 324.507
LayerCount: 2
Fore
SplineSet
5.0810546875 -208 m 1
 133.883789062 -155 188.31640625 -94 206.047851562 -7 c 0
 221.334960938 68 174.118164062 116 131.397460938 137 c 1
 127.397460938 137 95.3408203125 122 74.3408203125 122 c 1
 70.6396484375 148 l 1
 134.307617188 166 237.926757812 223 259.938476562 331 c 0
 271.759765625 389 229.409179688 402 212.409179688 402 c 3
 171.409179688 402 147.720703125 379 123.255859375 362 c 1
 112.92578125 380 l 1
 129.85546875 414 206.0078125 454 242.0078125 454 c 3
 301.0078125 454 342.8359375 409 329.587890625 344 c 0
 310.021484375 248 198.346679688 176 193.53125 172 c 1
 239.862304688 154 298.838867188 95 280.698242188 6 c 0
 250.534179688 -142 55.208984375 -227 9.7822265625 -234 c 1
 5.0810546875 -208 l 1
EndSplineSet
Substitution2: "dnom-1" three.denom
Substitution2: "numr-1" three.numerator
Substitution2: "tnum-1" three.tabulartext
Substitution2: "lnum-1" three.proportionallining
EndChar

StartChar: four
Encoding: 52 52 68
Width: 463
VWidth: 1159
Flags: W
HStem: -7 21G<368.328 391.68> 0 45.5<29.5312 221.258 291.531 377.827> 402.3 20G<355.708 392.721>
LayerCount: 2
Fore
SplineSet
231.53125 45.5 m 17x60
 248.55078125 129 274.12890625 221.055664062 276.81640625 277.5 c 9
 276.81640625 277.5 129.87890625 130.26953125 29.53125 45.5 c 9
 231.53125 45.5 l 17x60
392.720703125 409.5 m 25
 379.985351562 383.370117188 364.161132812 359.635742188 360.064453125 342.5 c 0
 332.932617188 229 321.272460938 174.200195312 291.53125 45.5 c 1x60
 358.225585938 44 374.6328125 46 422.556640625 104.5 c 9
 422.556640625 104.5 437.51953125 97.83984375 441.721679688 95.5 c 9
 441.721679688 95.5 404.528320312 32.974609375 378.831054688 -7 c 1xa0
 357.82421875 2.591796875 310.24609375 1.060546875 282.461914062 1 c 1
 267.040039062 -73.654296875 253.33984375 -154.471679688 252.671875 -179.5 c 1
 208.8828125 -203 181.9921875 -227 162.793945312 -252.5 c 9
 162.793945312 -252.5 141.984375 -239.349609375 139.666992188 -233.5 c 1
 186.774414062 -179 197.145507812 -116.307617188 221.2578125 0 c 1
 37.2578125 0 -1.5380859375 1 -33.20703125 -17 c 9
 -33.20703125 -17 -45.9345703125 -1.2900390625 -50.130859375 3 c 1
 -31.869140625 19 339.587890625 367.799804688 371.829101562 422.299804688 c 9
 392.720703125 409.5 l 25
EndSplineSet
Substitution2: "dnom-1" four.denom
Substitution2: "numr-1" four.numerator
Substitution2: "tnum-1" four.tabulartext
Substitution2: "lnum-1" four.proportionallining
EndChar

StartChar: five
Encoding: 53 53 69
Width: 362
VWidth: 1159
Flags: W
HStem: -215 32<-40.9825 20.4845> 323.5 70<141.406 310.18>
LayerCount: 2
Fore
SplineSet
129.672851562 393.5 m 9
 194.420898438 395.450195312 279.68359375 396 295.693359375 398.5 c 0
 322.97265625 402.759765625 341.939453125 428.610351562 357.883789062 448.5 c 9
 357.883789062 448.5 374.826171875 436.83984375 379.029296875 434.5 c 9
 343.14453125 392.379882812 304.416015625 326 287.017578125 326.5 c 0
 256.672851562 327.372070312 203.416992188 323.5 141.40625 323.5 c 9
 141.40625 323.5 124.849609375 264.299804688 111.802734375 217.5 c 1
 195.625976562 224 298.377929688 176.166015625 272.356445312 48.5 c 0
 242.98828125 -95.595703125 64.4853515625 -206 -45.3486328125 -215 c 9
 -45.3486328125 -215 -39.6796875 -188.849609375 -40.826171875 -183 c 1
 43.7861328125 -180 180.701171875 -92.1005859375 205.177734375 28 c 0
 217.216796875 87.0654296875 189.3984375 164 55.4521484375 152 c 1
 76.3662109375 208 108.028320312 305.161132812 129.672851562 393.5 c 9
EndSplineSet
Substitution2: "dnom-1" five.denom
Substitution2: "numr-1" five.numerator
Substitution2: "tnum-1" five.tabulartext
Substitution2: "lnum-1" five.proportionallining
EndChar

StartChar: six
Encoding: 54 54 70
Width: 496
VWidth: 1159
Flags: W
HStem: -10 40<190.17 287.191> 320 44<237.383 329.218> 607 23<435.38 451.186>
LayerCount: 2
Fore
SplineSet
451.185546875 630 m 9
 451.185546875 630 455.711914062 612.459960938 458.498046875 607 c 1
 291.435546875 538 181.016601562 413.28515625 146.513671875 244 c 24
 125.831054688 142.525390625 148.780273438 30 250.897460938 30 c 3
 299.123046875 30 345.55078125 82.2705078125 357.723632812 142 c 0
 378.876953125 245.787109375 342.603515625 320 277.00390625 320 c 3
 249.623046875 320 229.7421875 304 205.258789062 282 c 1
 187.111328125 296 l 1
 213.264648438 336 263.817382812 364 318.970703125 364 c 3
 393.970703125 364 449.177734375 276.702148438 429.061523438 178 c 0
 408.26171875 75.951171875 296.766601562 -10 208.743164062 -10 c 3
 83.5986328125 -10 49.62890625 121.913085938 68.3984375 214 c 0
 109.075195312 413.572265625 265.365234375 572 451.185546875 630 c 9
EndSplineSet
Substitution2: "dnom-1" six.denom
Substitution2: "numr-1" six.numerator
Substitution2: "tnum-1" six.tabulartext
Substitution2: "lnum-1" six.proportionallining
EndChar

StartChar: seven
Encoding: 55 55 71
Width: 420
VWidth: 1159
Flags: W
HStem: 339 67<122.5 357.028>
LayerCount: 2
Fore
SplineSet
122.236328125 422 m 17
 127.790039062 410 137.803710938 406.586914062 151.974609375 406 c 24
 270.9921875 401.072265625 445.568359375 404 460.3828125 408 c 9
 460.3828125 408 463.77734375 390.900390625 466.103515625 387 c 1
 423.98828125 357 68.322265625 -132 64.576171875 -170 c 9
 64.576171875 -170 18.322265625 -167.219726562 -6.0166015625 -168 c 1
 128.225585938 0 229.0546875 122.745117188 366.8359375 317 c 0
 371.918945312 324.166992188 368.377929688 334.358398438 360.50390625 335 c 0
 285.336914062 341.12109375 276.134765625 343 159.319335938 339 c 0
 113.13671875 337.418945312 76.240234375 328.799804688 51.9052734375 283 c 9
 51.9052734375 283 32.8662109375 291.440429688 26.943359375 293 c 9
 26.943359375 293 86.9365234375 396 99.2548828125 427 c 9
 122.236328125 422 l 17
EndSplineSet
Substitution2: "dnom-1" seven.denom
Substitution2: "numr-1" seven.numerator
Substitution2: "tnum-1" seven.tabulartext
Substitution2: "lnum-1" seven.proportionallining
EndChar

StartChar: eight
Encoding: 56 56 72
Width: 461
VWidth: 1159
UnlinkRmOvrlpSave: 1
Flags: W
HStem: -7 34<150.815 257.76> 601 30<244.375 331.253>
LayerCount: 2
Fore
SplineSet
286.315429688 601 m 3
 248.076171875 601 196.397460938 557.240234375 189.01171875 521 c 0
 156.146484375 359.752929688 425.803710938 333.541992188 389.4140625 155 c 24
 369.567382812 57.6220703125 274.7734375 -7 166.395507812 -7 c 3
 83.48046875 -7 16.283203125 41.5078125 34.9306640625 133 c 0
 75.9326171875 334.173828125 333.486328125 331.985351562 362.838867188 476 c 0
 371.846679688 520.192382812 358.5078125 601 286.315429688 601 c 3
296.430664062 631 m 3
 345.3125 631 379.375976562 621.931640625 406.416015625 586.771484375 c 0
 420.334960938 568.669921875 432.80859375 539.63671875 424.119140625 497 c 0
 391.70703125 337.97265625 141.758789062 333.3203125 109.083007812 173 c 0
 94.357421875 100.75 131.46875 27 201.326171875 27 c 3
 287.409179688 27 312.442382812 101.166992188 318.930664062 133 c 0
 334.536132812 209.573242188 303.204101562 244.362304688 245.22265625 296 c 0
 185.024414062 349.612304688 120.793945312 402.180664062 137.469726562 484 c 0
 153.928710938 564.750976562 240.6796875 631 296.430664062 631 c 3
EndSplineSet
Substitution2: "dnom-1" eight.denom
Substitution2: "numr-1" eight.numerator
Substitution2: "lnum-1" eight.proportionallining
Substitution2: "tnum-1" eight.tabulartext
EndChar

StartChar: uniFB00
Encoding: 64256 64256 74
Width: 527
VWidth: 1159
UnlinkRmOvrlpSave: 1
Flags: W
HStem: -329 36<-152.972 -102.433> -259 29<22.499 106.241> 280 42<45 107.907> 341 42<410.277 550> 657 57<334.2 452.554> 697 57<567.235 656.684>
LayerCount: 2
Fore
SplineSet
346 355 m 1xf8
 355.390980114 407.418563843 367.971153109 480.150636356 370 493 c 0
 391 626 444.582663748 654.627607834 515 701 c 0
 556 728 593 754 650 754 c 3
 681 754 752 728 773 706 c 1
 768 679 759 672 707 646 c 1
 671 664 633 697 596 697 c 3xf4
 514 697 492.498724567 619.884684297 443 498 c 0
 438.75 487.534883721 419.625 413.23255814 409 363 c 1
 432.321678322 365.678571429 530.678321678 381.571428571 554 383 c 1
 550 341 l 1
 527.698630137 343 424.301369863 330 402 329 c 1
 386.456318943 258.702655032 354.053618554 52.4297204806 326.499023438 -69 c 1
 307.079894674 -153.987176335 214.499023438 -277.512820513 -3.5009765625 -259 c 1
 22.4990234375 -230 l 1
 159.77516059 -224.842975207 229.823874478 -150.197165745 253 -74 c 1
 286.965556185 36.3778092138 315.789410645 198.528828957 339 320 c 1
 313.720812183 317.24137931 203.335025381 303.448275862 173 300 c 1
 153.772488839 211.688653769 108.579558341 -87.2254391454 79 -175 c 1
 55.2862659801 -238.62109375 10.055131392 -281.947265625 -36 -326 c 1
 -46 -325 -45 -324 -87 -324 c 3
 -108 -324 -140 -328 -152 -329 c 1
 -157 -293 l 1
 -84.9165872713 -278.814453125 -40.8524851382 -240.357183889 -7 -190 c 1
 40.4958190918 -104.431002831 79.520324707 128.308039229 109 289 c 1
 85.662109375 285.875 63.337890625 284.5 40 280 c 1
 45 322 l 1
 68.328125 320.5 98 324 116 325 c 1
 124.217107599 373.620117188 135.120042173 441.093600429 137 453 c 0
 158 586 211.582663748 614.627607834 282 661 c 0
 323 688 360 714 417 714 c 3
 443.715447154 714 504.902439024 693.958333333 523 677 c 1
 514 659 489 628 474 606 c 1
 438 624 400 657 363 657 c 3
 281 657 257.811764122 580.556253253 210 458 c 0
 206.25 448.387596899 189.375 380.139534884 180 334 c 1
 206.699300699 336.307692308 319.300699301 351.467741935 346 355 c 1xf8
EndSplineSet
Ligature2: "liga-1" f f
EndChar

StartChar: question
Encoding: 63 63 75
Width: 378
VWidth: 1159
Flags: W
HStem: -18 140<102.901 131.663> 680.8 20G<154.749 189.614>
VStem: 49 136 133.068 18.2549<184.428 208.086>
LayerCount: 2
Fore
SplineSet
140.3515625 556.799804688 m 5xd0
 184.7578125 690.440429688 124.537109375 689.404296875 184.959960938 700.799804688 c 5
 194.268554688 645.799804688 201.268554688 645.799804688 231.268554688 645.799804688 c 7
 327.401367188 645.799804688 405.272460938 565.836914062 379.544921875 444.799804688 c 4
 343.768554688 276.485351562 227.291015625 267.418945312 211.647460938 261.799804688 c 4
 181.361328125 247.799804688 162.662109375 225.799804688 151.323242188 185 c 13
 151.323242188 185 137.868164062 183.799804688 133.068359375 183.799804688 c 5
 141.16015625 259.505859375 147.849609375 320.763671875 188.2265625 339.799804688 c 4
 218.153320312 353.909179688 326.346679688 321.544921875 350.631835938 435.799804688 c 4
 369.416015625 524.169921875 285.55078125 571.465820312 140.3515625 556.799804688 c 5xd0
EndSplineSet
Refer: 49 46 N 1 0 0 1 18 0 2
Validated: 33
Position2: "cpsp-1" dx=0 dy=0 dh=10 dv=20
EndChar

StartChar: exclam
Encoding: 33 33 76
Width: 266
VWidth: 1159
Flags: W
LayerCount: 2
Fore
SplineSet
112.46484375 209 m 17
 136.685546875 339 152.9453125 437 163.831054688 533 c 0
 168.587890625 580 149.05859375 604 160.375 654 c 1
 243.23828125 664 291.455078125 692 290.678710938 661 c 1
 267.971679688 625 265.686523438 602 246.831054688 533 c 0
 212.541015625 408 182.244140625 342 157.279296875 208 c 9
 112.46484375 209 l 17
EndSplineSet
Refer: 49 46 N 1 0 0.0349208 1 11.5253 0 2
Position2: "cpsp-1" dx=0 dy=0 dh=10 dv=20
EndChar

StartChar: paragraph
Encoding: 182 182 77
Width: 605
VWidth: 1159
UnlinkRmOvrlpSave: 1
Flags: W
HStem: -8 21G<335.141 437.704> 686 55<384.014 530>
VStem: 290 38<57 490.2> 298 40<235.8 673>
LayerCount: 2
Fore
SplineSet
298 673 m 25xd0
 338 681 l 25xd0
 328 45 l 25
 290 57 l 25xe0
 298 673 l 25xd0
530 741 m 1
 532 686 l 1
 490 683 342 681 274 638 c 0
 223.677265889 606.178271077 206 581.006849235 206 289 c 3
 206 149 231.183524335 116.392422813 262 89 c 0
 280.613636364 72.619047619 375.75 53.1666666667 444 46 c 1
 434 -8 l 1
 236.281690141 35.3043478261 198.544797859 69.7754876614 144 131 c 0
 86 197 57.718337988 279.143475457 41 343 c 0
 35.5443009018 363.838314408 32.1187943776 378.508865382 40 399 c 0
 70 477 121.142297883 586.795128918 222 657 c 0
 324 728 530 741 530 741 c 1
EndSplineSet
Position2: "cpsp-1" dx=0 dy=0 dh=10 dv=20
EndChar

StartChar: ampersand
Encoding: 38 38 79
Width: 676
VWidth: 1159
Flags: W
HStem: -11 57<161.575 299.635 513.09 600.584> 461 35<584.895 645> 492 33<480.667 506.511>
VStem: 17 72<119.103 262.82> 81 38<475.664 567.366> 289 62<462.542 556.254>
LayerCount: 2
Fore
SplineSet
202 360 m 1x94
 131 330 89 273 89 216 c 3
 89 111 147 46 242 46 c 3
 312 46 353 107 386 146 c 1
 316 303 240 344 202 360 c 1x94
197 594 m 0
 166 594 119 568 119 525 c 3
 119 466 183 440 225 415 c 1
 268 442 289 467 289 492 c 3xac
 289 542 251 594 197 594 c 0
645 461 m 1xcc
 604 461 574 446 562 415 c 0
 526 330 495 261 448 181 c 1
 489 75 532 41 565 41 c 3
 602 41 627 90 641 121 c 1
 672 108 l 1
 640 39 616 -5 530 -5 c 3
 477 -5 433 45 406 108 c 1
 374 78 332 -11 199 -11 c 3
 80 -11 17 85 17 172 c 3xd4
 17 274 88 345 169 378 c 1
 121 404 81 448 81 506 c 3
 81 593 156 626 231 653 c 1
 316 623 351 575 351 498 c 3
 351 482 304 429 260 399 c 1
 317 376 392 298 428 216 c 1
 466 279 512 384 526 443 c 0
 532 469 492 485 472 492 c 1
 483 525 l 1xac
 525 509 598 495 648 496 c 1
 645 461 l 1xcc
EndSplineSet
Validated: 33
Position2: "cpsp-1" dx=0 dy=0 dh=10 dv=20
EndChar

StartChar: quotesingle
Encoding: 39 39 80
Width: 200
VWidth: 1159
Flags: W
HStem: 445.7 254<143.561 151.34>
VStem: 144.998 96<636.29 699.7>
LayerCount: 2
Fore
SplineSet
144.998046875 699.700195312 m 9
 240.998046875 699.700195312 l 17
 222.896484375 630.734375 175.409179688 537.034179688 150.139648438 445.700195312 c 9
 110.139648438 445.700195312 l 17
 129.922851562 536.911132812 129.159179688 630.889648438 144.998046875 699.700195312 c 9
EndSplineSet
Position2: "cpsp-1" dx=0 dy=0 dh=10 dv=20
EndChar

StartChar: bracketleft
Encoding: 91 91 86
Width: 246
VWidth: 1515
Flags: W
HStem: -230 33<159.267 219> 685 32<163 219>
VStem: 37 54<-182 669>
LayerCount: 2
Fore
SplineSet
91 669 m 1
 91 -182 l 1
 219 -197 l 1
 219 -230 l 1
 37 -230 l 1
 37 717 l 1
 219 717 l 1
 219 685 l 1
 91 669 l 1
EndSplineSet
Validated: 1
Position2: "cpsp-1" dx=0 dy=0 dh=10 dv=20
Position2: "'case' vertical ajustments for all-caps-1" dx=0 dy=90 dh=0 dv=0
EndChar

StartChar: asterisk
Encoding: 42 42 88
Width: 362
VWidth: 1159
Flags: W
HStem: 402 21G<266.661 292.816> 540 74<111.295 168.005> 561 74<344.851 394.664>
LayerCount: 2
Fore
SplineSet
239.673828125 522 m 1xa0
 203.61328125 468 206.141601562 444 163.522460938 387 c 1
 139.77734375 383 111.92578125 416 110.278320312 434 c 1
 157.153320312 487 177.153320312 487 222.724609375 533 c 1
 164.028320312 540 141.791992188 528 81.0283203125 540 c 1
 73.3125 563 105.138671875 605 118.815429688 614 c 1xc0
 177.4609375 596 179.735351562 576 230.822265625 555 c 1
 230.815429688 614 213.423828125 628 218.34765625 692 c 1
 236.329101562 708 283.3984375 703 297.162109375 691 c 1
 286.23828125 627 269.188476562 616 254.1953125 557 c 1
 312.78515625 587 323.698242188 608 387.728515625 635 c 1
 402.423828125 628 410.78515625 587 396.940429688 561 c 1
 333.028320312 540 319.078125 551 259.283203125 536 c 1
 295.458007812 494 318.270507812 493 353.514648438 446 c 1
 347.787109375 426 304.31640625 402 281.31640625 402 c 1
 252.005859375 454 262.544921875 473 239.673828125 522 c 1xa0
EndSplineSet
EndChar

StartChar: acutecomb
Encoding: 769 769 93
Width: 0
VWidth: 1159
Flags: W
HStem: 427.951 225.517
VStem: -139.253 205.956
AnchorPoint: "Top" -124 394 mark 0
AnchorPoint: "TopMark" -130.34 403 mark 0
AnchorPoint: "TopMark" -60.0654 616 basemark 0
LayerCount: 2
Fore
SplineSet
-139.252929688 448.625 m 17
 -101.385742188 509.115234375 -32.2607421875 601.944335938 16.0546875 653.467773438 c 9
 16.0546875 653.467773438 49.02734375 636.885742188 66.703125 618.620117188 c 1
 13.40234375 577.967773438 -52.3701171875 509.458984375 -115.977539062 427.951171875 c 9
 -139.252929688 448.625 l 17
EndSplineSet
Validated: 1
EndChar

StartChar: uni0302
Encoding: 770 770 94
Width: 0
VWidth: 1159
Flags: W
HStem: 422.6 184.801
VStem: -217.618 225.5
AnchorPoint: "Top" -115 389 mark 0
AnchorPoint: "TopMark" -72.7295 587 basemark 0
AnchorPoint: "TopMark" -125.878 384 mark 0
LayerCount: 2
Fore
SplineSet
7.8818359375 435.799804688 m 1
 -14.7236328125 422.599609375 l 1
 -85.146484375 528.581054688 l 1
 -200.624023438 422.599609375 l 1
 -217.618164062 435.799804688 l 1
 -84.3427734375 607.400390625 l 1
 -52.443359375 607.400390625 l 1
 7.8818359375 435.799804688 l 1
EndSplineSet
Validated: 1
EndChar

StartChar: gravecomb
Encoding: 768 768 95
Width: 0
VWidth: 1159
Flags: W
HStem: 430.175 225.517
VStem: -103.898 25.0635<445.075 460.102>
AnchorPoint: "Top" -124 394 mark 0
AnchorPoint: "TopMark" -62.1523 625 basemark 0
AnchorPoint: "TopMark" -108.852 410 mark 0
LayerCount: 2
Fore
SplineSet
-78.8349609375 450.848632812 m 13
 -103.8984375 430.174804688 l 17
 -132.85546875 511.681640625 -169.502929688 580.192382812 -205.521484375 620.84375 c 1
 -182.802414356 639.109375 -147.061523438 655.69140625 -147.061523438 655.69140625 c 21
 -120.6484375 604.16796875 -90.9882812499 511.338867188 -78.8349609375 450.848632812 c 13
EndSplineSet
Validated: 1
EndChar

StartChar: uni030A
Encoding: 778 778 99
Width: 0
VWidth: 1159
Flags: W
HStem: 425.265 31.6064<-131.984 -64.3948> 545.129 31.6064<-118.623 -51.4016>
VStem: -169.045 155.071
AnchorPoint: "TopMark" -119.304 382 mark 0
AnchorPoint: "TopMark" -79.043 562 basemark 0
AnchorPoint: "Top" -114.54 395 mark 0
LayerCount: 2
Fore
SplineSet
-82.12890625 545.12890625 m 4
 -105.491210938 545.12890625 -131.168945312 526.092773438 -136.685546875 500.134765625 c 4
 -142.204101562 474.17578125 -125.116210938 456.87109375 -100.888671875 456.87109375 c 4
 -77.52734375 456.87109375 -51.849609375 475.907226562 -46.33203125 501.865234375 c 4
 -41.1826171875 526.092773438 -57.90234375 545.12890625 -82.12890625 545.12890625 c 4
-75.4111328125 576.735351562 m 0
 -33.8310546875 576.735351562 -5.1357421875 544.064453125 -13.9736328125 502.485351562 c 0
 -23.443359375 457.934570312 -67.51171875 425.264648438 -107.607421875 425.264648438 c 0
 -149.1875 425.264648438 -178.514648438 454.96484375 -169.044921875 499.514648438 c 0
 -159.575195312 544.064453125 -115.505859375 576.735351562 -75.4111328125 576.735351562 c 0
EndSplineSet
Validated: 33
EndChar

StartChar: uni031B
Encoding: 795 795 100
Width: 0
VWidth: 1159
Flags: W
HStem: 330 18<-84.5 -47.4434>
VStem: 12.8818 62.7432<400.38 466.056>
AnchorPoint: "Horn" -73.5 341.8 mark 0
LayerCount: 2
Fore
SplineSet
12.8818359375 414.884765625 m 7
 12.8818359375 428.595703125 2.005859375 439.401367188 -15.744140625 450.72265625 c 5
 -6.4501953125 476.256835938 12.16015625 492.322265625 32.20703125 492.322265625 c 7
 58.421875 492.322265625 75.625 468.857421875 75.625 444.775390625 c 7
 75.625 399.205078125 -15.2378927954 330.428 -84.5 330 c 1
 -85 348 l 1
 -41.3873810375 349.464 12.8818359375 384.092773438 12.8818359375 414.884765625 c 7
EndSplineSet
Validated: 1
EndChar

StartChar: tildecomb
Encoding: 771 771 101
Width: 0
VWidth: 1159
Flags: W
HStem: 421.645 21G<-252.389 -215.599> 434.053 60<-104.274 -19.7566> 471.391 59.4463<-185.338 -104.274>
VStem: -252.389 294.189
AnchorPoint: "Top" -124 389 mark 0
AnchorPoint: "TopMark" -123.315 389 mark 0
AnchorPoint: "TopMark" -72.1445 538 basemark 0
LayerCount: 2
Fore
SplineSet
-252.388671875 435.353515625 m 1xb0
 -213.055664062 489.608398438 -162.302734375 530.836914062 -155.278320312 530.836914062 c 3xb0
 -115.55078125 530.836914062 -77.978515625 494.052734375 -39.310546875 494.052734375 c 3
 -29.7109375 494.052734375 -4.13671875 518.275390625 13.33984375 547.82421875 c 1
 41.80078125 534.5390625 l 1
 11.3046875 483.78125 -36.970703125 434.052734375 -48.7314453125 434.052734375 c 3x50
 -86.671875 434.052734375 -134.6875 471.390625 -170.577148438 471.390625 c 3
 -182.40234375 471.390625 -207.311523438 440.771484375 -223.88671875 421.64453125 c 1
 -252.388671875 435.353515625 l 1xb0
EndSplineSet
Validated: 1
EndChar

StartChar: uni0304
Encoding: 772 772 102
Width: 0
VWidth: 1159
Flags: W
HStem: 446.6 49.2002<-221.015 27.3281>
VStem: -231.473 269.259
AnchorPoint: "Top" -124 389 mark 0
AnchorPoint: "TopMark" -120.115 397 mark 0
AnchorPoint: "TopMark" -93.2842 495 basemark 0
LayerCount: 2
Fore
SplineSet
-231.47265625 446.599609375 m 1
 -221.014648438 495.799804688 l 1
 37.7861328125 495.799804688 l 1
 27.328125 446.599609375 l 1
 -231.47265625 446.599609375 l 1
EndSplineSet
Validated: 1
EndChar

StartChar: uni030B
Encoding: 779 779 103
Width: 0
VWidth: 1159
Flags: W
HStem: 432.981 247.172
VStem: -262.202 31.3643<453.32 485.66>
AnchorPoint: "TopMark" -200.5 408 mark 0
AnchorPoint: "TopMark" -132 648 basemark 0
AnchorPoint: "Top" -198.5 405 mark 0
LayerCount: 2
Fore
SplineSet
-262.202148438 456.548828125 m 17
 -250.314453125 520.91796875 -221.30078125 621.987304688 -195.465820312 680.153320312 c 9
 -195.465820312 680.153320312 -156.318359375 671.521484375 -131.434570312 658.137695312 c 1
 -166.666992188 609.087890625 -202.513671875 531.4296875 -230.837890625 442.080078125 c 9
 -262.202148438 456.548828125 l 17
-173.657226562 452.677734375 m 17
 -150.7734375 514.00390625 -104.650390625 608.5 -69.107421875 661.295898438 c 9
 -69.107421875 661.295898438 -32.0537109375 645.998046875 -9.8720703125 628.495117188 c 1
 -53.0859375 586.309570312 -101.874023438 516.055664062 -145.283203125 432.981445312 c 9
 -173.657226562 452.677734375 l 17
EndSplineSet
Validated: 1
EndChar

StartChar: uni030F
Encoding: 783 783 105
Width: 0
VWidth: 1159
Flags: W
HStem: 433.917 249.433
VStem: -168.97 31.3623<456.516 488.857>
AnchorPoint: "TopMark" -200.5 410 mark 0
AnchorPoint: "TopMark" -280 648 basemark 0
AnchorPoint: "Top" -198.5 405 mark 0
LayerCount: 2
Fore
SplineSet
-137.607421875 459.74609375 m 9
 -168.969726562 445.276367188 l 17
 -197.293945312 534.625 -233.141601562 612.28515625 -268.372070312 661.333984375 c 1
 -243.489257812 674.717773438 -204.342773438 683.349609375 -204.342773438 683.349609375 c 17
 -178.506835938 625.18359375 -149.495117188 524.114257812 -137.607421875 459.74609375 c 9
-226.38671875 453.612304688 m 9
 -254.759765625 433.916992188 l 17
 -298.169921875 516.989257812 -346.95703125 587.244140625 -390.170898438 629.430664062 c 1
 -367.989257812 646.931640625 -330.936523438 662.23046875 -330.936523438 662.23046875 c 17
 -295.392578125 609.434570312 -249.271484375 514.938476562 -226.38671875 453.612304688 c 9
EndSplineSet
Validated: 1
EndChar

StartChar: uni0306
Encoding: 774 774 106
Width: 0
VWidth: 1159
Flags: W
HStem: 436.274 54.7188<-158.176 -28.895>
VStem: -214.196 31.0049<523.032 545.649>
AnchorPoint: "Top" -124 389 mark 0
AnchorPoint: "TopMark" -119.327 396 mark 0
AnchorPoint: "TopMark" -78.0068 541 basemark 0
LayerCount: 2
Fore
SplineSet
-214.196289062 545.649414062 m 1
 -183.19140625 559.41015625 l 1
 -177.947265625 513.846679688 -138.237304688 490.993164062 -93.5234375 490.993164062 c 0
 -48.90234375 490.993164062 0.7001953125 513.750976562 26.00390625 559.41015625 c 1
 51.16015625 545.649414062 l 1
 16.35546875 472.732421875 -48.4306640625 436.274414062 -105.29296875 436.274414062 c 0
 -162.155273438 436.274414062 -211.092773438 472.732421875 -214.196289062 545.649414062 c 1
EndSplineSet
Validated: 1
EndChar

StartChar: uni030D
Encoding: 781 781 107
Width: 0
VWidth: 1159
Flags: W
HStem: 434 176.4<-220.2 -175.8>
VStem: -220.2 44.4<434 610.4>
AnchorPoint: "TopMark" -200.5 396 mark 0
AnchorPoint: "TopMark" -198.5 601 basemark 0
AnchorPoint: "Top" -198.5 393 mark 0
LayerCount: 2
Fore
SplineSet
-220.2 610.4 m 1
 -175.8 610.4 l 1
 -175.8 434 l 1
 -220.2 434 l 1
 -220.2 610.4 l 1
EndSplineSet
Validated: 1
EndChar

StartChar: uni0305
Encoding: 773 773 111
Width: 0
VWidth: 1159
Flags: W
HStem: 761 33<-364.23 161.756>
LayerCount: 2
Fore
SplineSet
-371.244140625 761 m 1
 -364.23046875 794 l 1
 168.76953125 794 l 1
 161.755859375 761 l 1
 -371.244140625 761 l 1
EndSplineSet
Validated: 1
EndChar

StartChar: uni0315
Encoding: 789 789 114
Width: 0
VWidth: 1159
Flags: W
HStem: 450.494 206.751
VStem: -59.75 61<571.846 641.311>
AnchorPoint: "TopRight" -110.5 531 mark 0
LayerCount: 2
Fore
SplineSet
-59.75 657.245 m 13
 1.25 639.245 l 5
 -12.9151 577.095 -43.2689 501.134 -106 450.494 c 13
 -126 464.494 l 5
 -87.0294 521.86 -68.2984 587.855 -59.75 657.245 c 13
EndSplineSet
Validated: 1
EndChar

StartChar: Circumflex
Encoding: 65538 -1 160
Width: 281
VWidth: 1159
Flags: HMW
AnchorPoint: "Top" 288.577 699 mark 0
LayerCount: 2
Fore
SplineSet
441.336914062 761.361328125 m 1
 411.05859375 747.85546875 l 1
 308.900390625 792.262695312 l 1
 187.865234375 747.85546875 l 1
 163.327148438 761.361328125 l 1
 304.517578125 859.400390625 l 1
 341.825195312 859.400390625 l 1
 441.336914062 761.361328125 l 1
EndSplineSet
Validated: 1
EndChar

StartChar: Breve
Encoding: 65541 -1 163
Width: 321
VWidth: 1159
Flags: W
VStem: 194.985 33.4678<827.449 841.462>
AnchorPoint: "Top" 310.577 699 mark 0
LayerCount: 2
Fore
SplineSet
194.985351562 838.463867188 m 1
 228.453125 852.797851562 l 1
 245.913085938 782.921875 406.333984375 782.62890625 455.08203125 852.797851562 c 1
 482.456054688 838.463867188 l 1
 414.83203125 717.109375 209.498046875 717.109375 194.985351562 838.463867188 c 1
EndSplineSet
Validated: 33
EndChar

StartChar: Ring
Encoding: 65544 -1 166
Width: 281
VWidth: 1159
Flags: W
HStem: 736.972 38.3721<269.493 346.001> 868.246 38.3721<282.355 357.574>
VStem: 227.338 173.68
AnchorPoint: "Top" 280.577 699 mark 0
LayerCount: 2
Fore
SplineSet
324.051757812 868.24609375 m 0
 299.458984375 868.24609375 272.4296875 848.208007812 266.622070312 820.883789062 c 0
 260.814453125 793.559570312 278.802734375 775.34375 304.3046875 775.34375 c 0
 328.896484375 775.34375 355.92578125 795.381835938 361.733398438 822.706054688 c 0
 367.154296875 848.208007812 349.553710938 868.24609375 324.051757812 868.24609375 c 0
332.208007812 906.618164062 m 0
 378.77734375 906.618164062 410.916015625 870.02734375 401.017578125 823.458007812 c 0
 390.411132812 773.560546875 341.0546875 736.971679688 296.1484375 736.971679688 c 0
 249.578125 736.971679688 216.732421875 770.236328125 227.337890625 820.131835938 c 0
 237.943359375 870.02734375 287.301757812 906.618164062 332.208007812 906.618164062 c 0
EndSplineSet
Validated: 33
EndChar

StartChar: Uni030B
Encoding: 65545 -1 167
Width: 300
VWidth: 1159
Flags: W
HStem: 728.472 183.528
VStem: 20.5 261.258
AnchorPoint: "Top" 87 699 mark 0
LayerCount: 2
Fore
SplineSet
20.5 754.3 m 17
 41.5 808.3 62 861 95 912 c 9
 95 912 128.44 895.56 149.5 882.3 c 1
 107.5 838.3 91.5 814.3 47.5 734.3 c 9
 20.5 754.3 l 17
120.971 755.492 m 17
 156.841 800.993 191.854 845.396 238.322 884.52 c 9
 238.322 884.52 265.494 859.021 281.758 840.184 c 1
 228.729 810.386 206.41 792.112 140.943 728.472 c 9
 120.971 755.492 l 17
EndSplineSet
Validated: 1
EndChar

StartChar: uni0328
Encoding: 808 808 255
Width: 0
VWidth: 1159
Flags: W
HStem: -300 60.1279<-258.411 -164.603>
VStem: -312.535 76.1592<-233.636 -149.912>
AnchorPoint: "Ogonek" -99.7461 21.6582 mark 0
LayerCount: 2
Fore
SplineSet
-91.0654296875 15.54296875 m 1
 -200.703065073 -64.1085020146 -236.375378145 -136.87580599 -236.375378145 -189.830484479 c 3
 -236.375378145 -221.691863708 -218.715686968 -239.872070312 -191.8203125 -239.872070312 c 3
 -172.067382812 -239.872070312 -146.079101562 -229.18359375 -116.728515625 -205.599609375 c 9
 -116.728515625 -205.599609375 -107.815429688 -215.926757812 -106.840820312 -224 c 1
 -145.065429688 -276.788085938 -195.49609375 -300 -236.99609375 -300 c 3
 -279.826579884 -300 -312.534626989 -272.198086313 -312.534626989 -224.384117065 c 3
 -312.534626989 -154.983030756 -240.691422043 -48.9490059569 -93.25390625 36.76171875 c 1
 -91.0654296875 15.54296875 l 1
EndSplineSet
Validated: 1
EndChar

StartChar: Uni0328
Encoding: 65547 -1 258
Width: 0
VWidth: 1159
Flags: W
HStem: -338.23 73.7197<-184.546 -117.498>
VStem: -275.584 71.875<-244.983 -118.496>
AnchorPoint: "Ogonek" -105.35 23.6582 mark 0
LayerCount: 2
Fore
SplineSet
-92.1719 12.3926 m 1
 -164.514989866 -37.5177021671 -203.708984375 -122.700132364 -203.708984375 -187.03125 c 3
 -203.708984375 -228.469229743 -175.522824414 -264.510742188 -144.514648438 -264.510742188 c 3
 -123.539764965 -264.510742188 -98.3555048772 -255.777742187 -72.5146484375 -236.510742188 c 9
 -72.5146484375 -236.510742188 -61.4052257941 -246.838961447 -58.7158203125 -254.911132812 c 1
 -85.7705506897 -302.647325281 -138.205109564 -338.23046875 -179.78515625 -338.23046875 c 3
 -228.965068015 -338.23046875 -275.583984375 -289.420252063 -275.583984375 -227.85546875 c 3
 -275.583984375 -144.145292738 -241.514987387 -38.8975355005 -98.8711 45.1113 c 1
 -92.1719 12.3926 l 1
EndSplineSet
Validated: 1
EndChar

StartChar: uni0327
Encoding: 807 807 269
Width: 0
VWidth: 1159
UnlinkRmOvrlpSave: 1
Flags: W
VStem: -233 62.4277<-164.272 -94.0566>
AnchorPoint: "Bottom" -218 -15 mark 0
LayerCount: 2
Fore
SplineSet
-327.174804688 -200.002929688 m 5
 -323.140625 -177.811523438 l 5
 -276.999816953 -187.999431503 -233 -161.723668612 -233 -125 c 4
 -233 -109.445003255 -243.999931887 -85.0000083693 -274.635742188 -95.12890625 c 5
 -279.123046875 -72.462890625 l 5
 -276.075185752 -70.4490340728 -272.628664578 -69.0681522047 -269.521484375 -67.076171875 c 4
 -238.370164562 -47.1053905662 -244.753230093 -43.6228112641 -224.624023438 5.4326171875 c 5
 -189.624023438 13.4326171875 l 5
 -189.624023438 13.4326171875 -206.925202134 -41.8597066048 -213.072265625 -51.9287109375 c 5
 -189.745265625 -56.8679860336 -170.572265625 -75.8805901717 -170.572265625 -111.428710938 c 4
 -170.572265625 -180.249880904 -258.060008117 -229.425002351 -327.174804688 -200.002929688 c 5
EndSplineSet
EndChar

StartChar: cedillafloating
Encoding: 65548 -1 270
Width: 0
VWidth: 1159
Flags: W
VStem: -195 63.126<-165.104 -94.3473>
AnchorPoint: "Bottom" -193 -15 mark 0
LayerCount: 2
Fore
SplineSet
-289.175 -200.003 m 1
 -285.141 -177.812 l 1
 -239 -188 -195 -161.724 -195 -125 c 3
 -195 -109.445 -206 -85 -236.636 -95.1289 c 1
 -241.123 -72.4629 l 1
 -199.113 -38.5203 -131.874 -44.0724 -131.874 -109.349 c 3
 -131.874 -179.786 -219.751 -230.116 -289.175 -200.003 c 1
EndSplineSet
Validated: 33
EndChar

StartChar: Uni0327
Encoding: 65549 -1 282
Width: 0
VWidth: 1159
Flags: W
VStem: -194.928 70.897<-182.621 -103.12>
AnchorPoint: "Bottom" -191 -15 mark 0
LayerCount: 2
Fore
SplineSet
-302.112 -226.844 m 1
 -297.393 -200.881 l 1
 -243.408 -212.801 -194.928 -182.057 -194.928 -139.091 c 0
 -194.928 -120.892 -206.823 -92.29 -240.667 -104.142 c 1
 -245.892 -77.6221 l 1
 -241.051 -73.5835 -235.91 -70.2296 -230.581 -67.5294 c 0
 -201.19 -48.4085 -207.089 -43.3329 -187.571 4.44336 c 1
 -142.571 12.4434 l 1
 -142.571 12.4434 -152.525 -33.2849 -173.391 -61.6674 c 1
 -145.899 -69.2159 -124.031 -91.6921 -124.031 -124.709 c 0
 -124.031 -204.066 -223.518 -260.771 -302.112 -226.844 c 1
EndSplineSet
Validated: 33
EndChar

StartChar: Cedillafloating
Encoding: 65550 -1 283
Width: 0
VWidth: 1159
Flags: W
VStem: -194.928 70.8965<-182.621 -103.74>
AnchorPoint: "Bottom" -193 -15 mark 0
LayerCount: 2
Fore
SplineSet
-302.112 -226.844 m 1
 -297.393 -200.881 l 1
 -243.408 -212.801 -194.928 -182.057 -194.928 -139.091 c 3
 -194.928 -120.892 -206.798 -92.29 -240.642 -104.142 c 1
 -245.892 -77.6221 l 1
 -199.032 -34.292 -124.031 -58.5156 -124.031 -124.709 c 3
 -124.031 -204.066 -223.518 -260.771 -302.112 -226.844 c 1
EndSplineSet
Validated: 33
EndChar

StartChar: Uni030F
Encoding: 65554 -1 296
Width: 300
VWidth: 1159
Flags: W
HStem: 727.907 184.093
VStem: -108.738 262.238
AnchorPoint: "Top" 87 699 mark 0
LayerCount: 2
Fore
SplineSet
153.5 754.3 m 9
 126.5 734.3 l 17
 82.5 814.3 66.5 838.3 24.5 882.3 c 1
 45.5596 895.56 79 912 79 912 c 17
 112 861 132.5 808.3 153.5 754.3 c 9
52.0479 754.928 m 9
 32.0752 727.907 l 17
 -33.3916 791.548 -55.71 809.821 -108.738 839.619 c 1
 -92.4766 858.457 -65.3037 883.955 -65.3037 883.955 c 17
 -18.835 844.832 16.1777 800.429 52.0479 754.928 c 9
EndSplineSet
Validated: 1
EndChar

StartChar: thorn
Encoding: 254 254 318
Width: 515
VWidth: 1159
Flags: W
HStem: -348 32<8.34375 55.6963> -342 34<151.753 229> -10 46<184.803 329.513> 369 43<198.188 323.819> 654 29<16 45.5305>
VStem: 67 82<-302.037 -18.4171> 80 65<-197.411 7 69.4004 345.78 368 599.495> 406 69<130.435 275.055>
LayerCount: 2
Fore
SplineSet
145 332 m 9x3b
 144 241 143 189 143 98 c 3
 143 92 147 85 154 79 c 0
 185 52 227 36 268 36 c 3
 345 36 406 96 406 180 c 3
 406 270 352 369 251 369 c 3
 207 369 155 342 145 332 c 9x3b
76 31 m 24
 79.1289 217.79 80 367 80 510 c 3
 80 570 80 607 76 627 c 0
 71 654 64 656 46 656 c 3
 36 656 25 654 16 654 c 1
 11 683 l 1
 48 690 104 718 154 759 c 1
 175 743 l 1
 165 717 157 687 156 667 c 0
 151 599 145 484 145 368 c 1xbb
 178 382 234 412 294 412 c 3
 399 412 475 315 475 223 c 3
 475 94 363.004 -10 225 -10 c 3
 198 -10 170 -2 144 7 c 1
 144 -75 144 -247 149 -284 c 0
 151 -299 170 -303 181 -304 c 0
 197 -305 216 -307 230 -308 c 1
 229 -342 l 1x7d
 190 -341 159 -339 117 -339 c 3
 87 -339 39 -344 9 -348 c 1
 6 -316 l 1
 17 -315 25 -313 36 -311 c 0
 59 -305 65 -294 67 -266 c 0xbd
 72 -214 74.0589 -84.8672 76 31 c 24
EndSplineSet
Validated: 1
Substitution2: "case-1" Thorn
EndChar

StartChar: Thorn
Encoding: 222 222 319
Width: 587
VWidth: 1159
Flags: W
HStem: -9 35<49 91.6309> 178 45<203.142 405.091> 519 42<202.8 387.894> 652.244 37.7988<214.407 312> 661 31<29.871 95.7781>
VStem: 117 86.1416<54.7783 182.945 226.958 514.181 554.895 640.551> 479 87<299.251 431.707>
LayerCount: 2
Fore
SplineSet
314 652.244140625 m 1xf6
 283.541 652.769147191 253.069 648.465093362 225 641 c 0
 207.498 636.345 204 622 203 604 c 0
 202.239883251 587.238492476 201.659794154 570.91028451 201.219726562 554.89453125 c 1
 237.961809061 557.525733262 273.918889796 561 323 561 c 3
 456 561 566 478 566 375 c 3
 566 258.263 431.193 178 306 178 c 3
 265.719843969 178 242.812755235 181.861243996 203.141601562 182.9453125 c 1
 204.31965455 145.320541563 206.446750223 106.414148259 212 75 c 0
 215.801 58.8486 223.212 38.1826 320 36.1611 c 1
 316 -10.61 l 1
 220.463 11.9565 171.172 11.0439 49 -9 c 1
 39 26 l 1
 92 36 117 49 117 77 c 1
 121 155.005597015 120 534.902985075 114 620 c 0
 113 647 99 647 26 661 c 1
 31 692 l 1xee
 117.191 682.668930841 220 680.999824348 312 690.04296875 c 1
 314 652.244140625 l 1xf6
203.073242188 226.958007812 m 1
 242.562147428 225.396004729 263.367097504 223 304 223 c 3
 450 223 479 311 479 364 c 3
 479 424 418 519 302 519 c 3
 280.518940027 519 230.748801075 516.599942869 201.26171875 510.466796875 c 1
 199.976347343 417.947865711 201.340741584 313.533943398 203.073242188 226.958007812 c 1
EndSplineSet
Validated: 33
Position2: "cpsp-1" dx=0 dy=0 dh=10 dv=20
EndChar

StartChar: AE
Encoding: 198 198 320
Width: 1067
VWidth: 1159
Flags: W
HStem: -9 35<449 495.845> -5 39<22.2735 80.0876 173.619 239.873> 247 42<296.875 529.631> 334 36<608 868.393> 661 31<396 456.398>
VStem: 525 93<373.564 639.016> 529.631 78.3691<90.5 243.369 285.991 334 370 605.156> 892 36<250 306.348> 933 30<539 621.889> 993 28<152.034 171.75>
AnchorPoint: "Top" 580.585 699 basechar 0
AnchorPoint: "Bottom" 569.957 -15 basechar 0
LayerCount: 2
Fore
SplineSet
396 692 m 1x7bc0
 558 678 943 687 969 693 c 1
 1001 665 974 672 963 539 c 1
 933 536 l 1
 922 572 941 619 905 630 c 0
 842 648 731 653 650 643 c 0
 632 641 619 627 618 609 c 0x7dc0
 614 526.970338983 609 445.953389831 608 370 c 1
 672 372 824 372 838 373 c 0
 875 378 880 404 896 448 c 1
 930 441 l 1
 913 377 917 314 928 250 c 1
 892 241 l 1
 872 312 879 325 838 329 c 0
 794 334 701 333 608 334 c 1
 607 236.227091633 611 147.525896414 623 81 c 0
 627 64 636 50 653 49 c 0
 746 40 809 32 885 58 c 0
 944 78 954 101 993 177 c 1
 1021 170 l 1
 1005 104 994 62 982 0 c 1
 790 -1 579 12 451 -9 c 1
 441 26 l 1xbbc0
 494 36 527 49 527 77 c 1
 528.380926187 103.914026086 529.284877868 166.790357996 529.630859375 241.087890625 c 1
 467.278003094 249.660049211 355.177385742 253.494120142 272.916992188 247 c 1
 235.500997091 184.6 209.014082931 147.759493671 176.979 87 c 0
 158.157 51 172.988 29 244.937 34 c 1
 239.599 -10 l 1
 186.683 1 79.251 4 22.5469 -5 c 1
 22.5469 -5 18.2832 20 19.9365 34 c 1
 71.5889 48 102.294 57 117.652 80 c 0
 245.893953454 285.468704307 363.399910804 480.400810666 462.046875 648.923828125 c 1
 441.407911312 652.540879605 417.029954203 656.00792895 391 661 c 1
 396 692 l 1x7bc0
499.977539062 640.265625 m 1
 473.026905511 593.239042544 345.505326951 370.882231497 296.875 289 c 1
 347.043311173 284.20133642 475.957582399 285.850220822 529.76953125 285.991210938 c 1
 529.972511301 417.75573903 528.516654383 568.318110715 525 618 c 0
 524.612992871 628.452823952 515.381822824 635.158711011 499.977539062 640.265625 c 1
EndSplineSet
Validated: 33
Position2: "cpsp-1" dx=0 dy=0 dh=10 dv=20
EndChar

StartChar: uni0337
Encoding: 823 823 322
Width: 0
VWidth: 1159
Flags: W
HStem: 391.747 20G<-87.813 -46.585>
AnchorPoint: "Middle" -259 192 mark 0
LayerCount: 2
Fore
SplineSet
-68.1973 411.747 m 25
 -46.585 392.313 l 25
 -449.803 -17.7119 l 25
 -469.397 2.68652 l 25
 -68.1973 411.747 l 25
EndSplineSet
Validated: 1
EndChar

StartChar: ae
Encoding: 230 230 323
Width: 558
VWidth: 1159
Flags: W
HStem: -10 51<339.259 434.931> -8 68<63.2681 144.856> 367 54<388.467 464.359>
VStem: 12 71.2207<71.8037 178.154> 242.717 71.6689<121.345 174.385> 478.894 60<311.103 352.071>
AnchorPoint: "Top" 362.894 465 basechar 0
AnchorPoint: "Bottom" 216.894 -15 basechar 0
LayerCount: 2
Fore
SplineSet
300.893554688 323 m 0x7c
 291.544921875 328 266.306640625 333 257.893554688 333 c 0
 229.7109375 333 198.836231447 317.319882615 177.893554688 303 c 0
 135.725585938 274.166992188 83.220703125 218.973632812 83.220703125 144.540039062 c 0
 83.220703125 99.8447265625 103.79296875 60 123.893554688 60 c 0
 169.490234375 60 172.893554688 81 242.716796875 139.09765625 c 1
 245.541992188 205.252929688 268.494650598 263.360668416 299.055664062 309.3671875 c 0
 302.763671875 314.94921875 304.12894002 321.26959439 300.893554688 323 c 0x7c
421.893554688 367 m 0
 380.530273438 367 333.86328125 283.416992188 316.893554688 190 c 1
 382.054292719 242.654618474 453.456894729 270.783970309 468 283 c 0
 472.468666301 286.753624772 478.893554688 289.925925926 478.893554688 300 c 0
 478.893554688 337.416015625 455.893554688 367 421.893554688 367 c 0
446.893554688 421 m 0
 499.893554688 421 538.893554688 377.040039062 538.893554688 327 c 0
 538.893554688 321.105034722 542.393554688 313.105034722 552.893554688 311 c 1
 547.893554688 284 l 1
 497.667564358 265.119300717 396.090919259 223.016393443 314.893554688 160 c 1
 314.6796875 155.43359375 314.385742188 149.081054688 314.385742188 144.0625 c 0
 314.385742188 79.556640625 344.826171875 41 384.893554688 41 c 0
 428.893554688 41 458.893554688 59 486.893554688 82 c 1
 501.893554688 65 l 1
 465.893554688 28 419.893554688 -10 351.893554688 -10 c 0xbc
 280.391601562 -10 247.903320312 39.81640625 243.06640625 106.103515625 c 1
 192.149414062 60.94921875 147.1171875 -8 84.8935546875 -8 c 0
 41.642578125 -8 12 40.3115234375 12 98.2998046875 c 0
 12 161.483398438 59.9999677427 229.402374619 97.8935546875 269 c 0
 126.602539062 299 160.414327492 320.517122143 181.893554688 333 c 0
 231.59375 361.883789062 293.650580267 376.817883945 368.893554688 390.045898438 c 0
 372.08203125 390.606445312 375.284324896 390.684367177 377.60546875 392.34375 c 0
 403.548828125 410.890625 428.364257812 421 446.893554688 421 c 0
EndSplineSet
Validated: 1
Substitution2: "case-1" AE
EndChar

StartChar: bar
Encoding: 124 124 326
Width: 158
VWidth: 1515
Flags: W
HStem: 684 20G<60 98>
VStem: 60 38<-223 704>
LayerCount: 2
Fore
SplineSet
60 704 m 17
 98 704 l 9
 98 -223 l 1
 60 -223 l 1
 60 704 l 17
EndSplineSet
Validated: 1
Position2: "cpsp-1" dx=0 dy=0 dh=10 dv=20
Position2: "'case' vertical ajustments for all-caps-1" dx=0 dy=90 dh=0 dv=0
EndChar

StartChar: germandbls
Encoding: 223 223 328
Width: 477
VWidth: 1159
Flags: W
HStem: -326 36<-176.112 -133.832> -9.16602 45.1514<242.036 355.133> 697 57<333.094 430.814>
VStem: 265.313 65.5557<262.782 333.862> 373.424 69.4473<66.1989 155.309> 458.324 61.082<533.259 638.468>
LayerCount: 2
Fore
SplineSet
519.40625 613 m 0
 514.268554688 465.877929688 333.514648438 392.073242188 330.869140625 316.326171875 c 0
 329.959960938 290.267578125 347.7890625 260.630859375 384.06640625 231 c 0
 418.391601562 202.96484375 444.063476562 168.865234375 442.87109375 134.7109375 c 0
 439.801757812 46.80859375 360.916015625 8.8095703125 310.895507812 -3 c 0
 292.828125 -7.265625 270.4765625 -9.166015625 248.403320312 -9.166015625 c 3
 217.189453125 -9.166015625 186.489257812 -6.1083984375 167.96484375 -1 c 1
 175.365234375 20 186.762695312 60 190.8984375 83 c 1
 206.038085938 87 l 1
 235.646484375 52.9921875 282.888671875 35.9853515625 315.490234375 35.9853515625 c 3
 340.62890625 35.9853515625 371.887695312 56.69921875 373.423828125 100.663085938 c 0
 374.442382812 129.840820312 350.52734375 160.653320312 325.459960938 185 c 0
 296.780273438 212.85546875 263.640625 228.599609375 265.313476562 276.489257812 c 0
 268.770507812 375.487304688 453.498046875 443.814453125 458.32421875 582 c 0
 459.5390625 616.794921875 407.645507812 697 361.33984375 697 c 3
 279.33984375 697 253.029296875 620.734375 201.390625 498 c 0
 138.295898438 348.038085938 108.6640625 19 33.9931640625 -172 c 0
 9.2939453125 -235.178710938 -22.4990234375 -278.947265625 -59.279296875 -323 c 1
 -69.244140625 -322 -68.2099609375 -321 -110.209960938 -321 c 3
 -131.209960938 -321 -163.349609375 -325 -175.383789062 -326 c 1
 -179.126953125 -290 l 1
 -119.5234375 -275.814453125 -82.3984375 -237.158203125 -52.5302734375 -187 c 0
 20.087890625 -65.0498046875 89.0966796875 290.11328125 128.215820312 493 c 0
 153.860351562 626 208.443359375 654.627929688 280.479492188 701 c 0
 322.421875 728 360.330078125 754 417.330078125 754 c 3
 444.297851562 754 521.486328125 672.559570312 519.40625 613 c 0
EndSplineSet
Validated: 33
MultipleSubs2: "case-2" S S
Substitution2: "case-1" uni1E9E
EndChar

StartChar: minus
Encoding: 8722 8722 331
Width: 463
VWidth: 0
Flags: W
HStem: 190 54<34.2002 427.8>
LayerCount: 2
Fore
SplineSet
34.2002 244 m 25
 427.8 244 l 9
 427.8 190 l 9
 34.2002 190 l 9
 34.2002 244 l 25
EndSplineSet
Validated: 1
EndChar

StartChar: greater
Encoding: 62 62 334
Width: 463
VWidth: 0
Flags: W
HStem: -7 21G<70.4615 113.429> 392 20G<91.5605 135.282>
LayerCount: 2
Fore
SplineSet
72.5 365.6 m 25
 106 412 l 25
 412 203 l 25
 82 -7 l 25
 67 19 l 25
 332.5 187.6 l 25
 72.5 365.6 l 25
EndSplineSet
Validated: 1
EndChar

StartChar: braceleft
Encoding: 123 123 337
Width: 266
VWidth: 1515
Flags: W
HStem: -229.7 31<189.018 239.5> 685.3 31<189.018 239.5>
VStem: 91.5 59.5<-156.252 38.4622 448.137 642.851> 114 66<-8.67273 162.063 324.537 495.272>
LayerCount: 2
Fore
SplineSet
239.5 716.3 m 1xe0
 239.5 716.3 239.5 697.39 239.5 685.3 c 1
 184.336 684.28 151 654.121 151 551 c 3xe0
 151 480.769 180 464.467 180 390 c 3
 180 334.827 122.112 266.261 79.5 243.3 c 1
 122.112 220.339 180 151.773 180 96.5996 c 3xd0
 180 22.1318 151 5.83048 151 -64.4004 c 3
 151 -167.522 184.336 -197.68 239.5 -198.7 c 1
 239.5 -229.7 l 1
 164.146 -233.096 91.5 -190.992 91.5 -39.7002 c 3xe0
 91.5 20.2272 114 52.5951 114 99.5996 c 3
 114 146.535 81.5417 208.612 11.5 230.3 c 1
 11.5 256.3 l 1
 81.5417 277.987 114 340.065 114 387 c 3xd0
 114 434.004 91.5 466.372 91.5 526.3 c 3
 91.5 677.592 164.146 719.696 239.5 716.3 c 1xe0
EndSplineSet
Validated: 33
Position2: "cpsp-1" dx=0 dy=0 dh=10 dv=20
Position2: "'case' vertical ajustments for all-caps-1" dx=0 dy=90 dh=0 dv=0
EndChar

StartChar: underscore
Encoding: 95 95 339
Width: 463
VWidth: 0
Flags: W
HStem: -238 44<0 463>
LayerCount: 2
Fore
SplineSet
0 -238 m 25
 0 -194 l 25
 463 -194 l 25
 463 -238 l 25
 0 -238 l 25
EndSplineSet
Validated: 1
EndChar

StartChar: asciitilde
Encoding: 126 126 340
Width: 394
VWidth: 0
Flags: W
HStem: 190.053 64<165.217 319.341> 219.392 63.4463<79.8039 234.197>
LayerCount: 2
Fore
SplineSet
18.1338 193.354 m 1x40
 48.251 239.653 103.74 282.838 111.35 282.838 c 3x40
 154.388 282.838 245.562 254.053 287.451 254.053 c 3
 297.852 254.053 326.98 275.77 342.108 299.824 c 1
 376 286.539 l 1
 350.651 242.854 303.803 190.053 291.063 190.053 c 3x80
 249.961 190.053 145.346 219.392 106.465 219.392 c 3
 93.6533 219.392 63.7217 194.926 50.168 179.645 c 1
 18.1338 193.354 l 1x40
EndSplineSet
Validated: 1
Position2: "cpsp-1" dx=0 dy=0 dh=10 dv=20
Position2: "'case' vertical ajustments for all-caps-1" dx=0 dy=90 dh=0 dv=0
EndChar

StartChar: kgreenlandic
Encoding: 312 312 346
Width: 525
VWidth: 1159
Flags: W
HStem: -18 25.8994<461.79 501> -7 21G<208 227.941> -5 33<33.5758 85.0934> 374 27<269 299.949> 395 20G<145.5 187>
VStem: 105 64<41.8162 177 211 337.203>
LayerCount: 2
Fore
SplineSet
179 185 m 1x94
 169 177 l 1
 169 124.725 171 73.9876 175 54 c 0
 177 39 186 38 196 33 c 0
 206 29 216 28 230 27 c 1
 225 -7 l 1x44
 191 -1 172 4 130 4 c 3
 100 4 64 -3 34 -5 c 1
 32 28 l 1
 43 29 54 31 64 33 c 0
 87 40 94 48 96 76 c 0
 101 128 105 170 105 235 c 3
 105 251.155 103 276 101 308 c 0
 100 324 94 338 77 338 c 3
 71 338 51 335 41 334 c 1
 36 363 l 1
 88 374 124 381 167 415 c 1x2c
 187 399 l 1
 181 385 174.291 357.97 173 347 c 0
 171 325.982 168 264.163 167 211 c 1
 202.172 243.143 253.931 289.428 287 328 c 0
 292.772 334.732 301 348 301 355 c 3
 301 373 277 372 267 374 c 1
 269 401 l 1
 295 399 330 399 357 399 c 3
 390 399 433 399 465 403 c 1
 467 373 l 1
 404 365.731 362.85 347.417 333 319 c 2
 243.5 236.952 l 17
 355.5 173.635 404.57 9.25076 505.9 7.89941 c 1
 501 -18 l 5
 315.95 -45.3387 265.5 174.952 179 185 c 1x94
EndSplineSet
Validated: 33
MultipleSubs2: "case-2" K quoteleft
EndChar

StartChar: OE
Encoding: 338 338 347
Width: 1081
VWidth: 1159
Flags: W
HStem: -7 49<336.528 518.419> 334 36<614 882.393> 650 44<298.396 500.529>
VStem: 37 93<266.365 448.041> 533 81<87.3014 334 370 605.156> 906 36<250 306.348> 947 30<539 621.889> 1007 28<152.034 171.75>
LayerCount: 2
Fore
SplineSet
385 650 m 3
 244 650 130 535.515933333 130 377 c 3
 130 202.722537538 273 42 443 42 c 3
 495.7 42 533 62.631 533 92 c 1
 537 161.67328125 534.279 500.831760417 531 577 c 0
 528.17 641.262 448.642 650 385 650 c 3
424 -7 m 3
 210 -7 37 145.659140762 37 336 c 3
 37 527.127628169 212 694 422 694 c 3
 507.490017004 694 461.789007914 684.96875 696.956054688 684.96875 c 3
 838.863027557 684.96875 966.475003159 689.186881304 983 693 c 1
 1015 665 988 672 977 539 c 1
 947 536 l 1
 936 572 955 619 919 630 c 0
 856 648 737 653 656 643 c 0
 638 641 625 627 624 609 c 0
 620 526.970338983 615 445.953389831 614 370 c 1
 678 372 838 372 852 373 c 0
 889 378 894 404 910 448 c 1
 944 441 l 1
 927 377 931 314 942 250 c 1
 906 241 l 1
 886 312 893 325 852 329 c 0
 808 334 707 333 614 334 c 1
 613 236.227091633 617 147.525896414 629 81 c 0
 633 64 642 50 659 49 c 0
 752 40 823 32 899 58 c 0
 958 78 968 101 1007 177 c 1
 1035 170 l 1
 1019 104 1008 62 996 0 c 1
 886.301 -0.545565 771.508 3.06988 667.928 3.06988 c 3
 487.932 3.06988 491.022 -7.00001 424 -7 c 3
EndSplineSet
Validated: 33
Position2: "cpsp-1" dx=0 dy=0 dh=10 dv=20
EndChar

StartChar: uni2605
Encoding: 9733 9733 348
Width: 821
VWidth: 0
Flags: W
LayerCount: 2
Fore
SplineSet
796.5 438.6 m 1
 558 264.9 l 1
 648.9 -15 l 1
 410.4 158.7 l 1
 171.9 -15 l 1
 262.8 265.8 l 1
 24.2998 438.6 l 1
 318.6 437.7 l 1
 410.4 718.5 l 1
 501.3 438.6 l 1
 796.5 438.6 l 1
EndSplineSet
Validated: 1
EndChar

StartChar: uni2606
Encoding: 9734 9734 349
Width: 821
VWidth: 30
Flags: W
LayerCount: 2
Fore
SplineSet
687.677 404.8 m 1
 466.221 390.918 l 1
 410.41 606.049 l 1
 354.579 390.141 l 1
 133.292 404.738 l 1
 320.536 284.324 l 1
 239.062 78.2873 l 1
 410.4 219.894 l 1
 581.711 78.307 l 1
 500.264 283.547 l 1
 687.677 404.8 l 1
796.5 438.6 m 1
 558 264.9 l 1
 648.9 -15 l 1
 410.4 158.7 l 1
 171.9 -15 l 1
 262.8 265.8 l 1
 24.2998 438.6 l 1
 318.6 437.7 l 1
 410.4 718.5 l 1
 501.3 438.6 l 1
 796.5 438.6 l 1
EndSplineSet
Validated: 1
EndChar

StartChar: uni261C
Encoding: 9756 9756 350
Width: 2241
Flags: W
HStem: -39.8809 34.5928<702.366 803.644>
VStem: 65.4062 47.9922<389.495 407.811>
LayerCount: 2
Fore
SplineSet
65.4062 488.98 m 1
 133.471 493.169 171.866 495.579 238.634 514.306 c 1
 246.596 504.546 534.656 534.515 542.911 561.332 c 1
 564.898 551.482 577.512 547.037 605.929 570.229 c 1
 773.769 556.794 986.458 616.839 1106 648 c 1
 1329.25 569.701 1572.25 468.729 1696.18 430.638 c 1
 1739.57 483.052 1793.53 507.924 1848.05 516.793 c 1
 2110.43 547.303 l 1
 2163.02 255.056 2175.68 -29.6611 2148.35 -306.85 c 1
 1892.24 -297.519 l 1
 1875.45 -261.822 1858.65 -226.126 1841.85 -190.43 c 1
 1814.48 -179.761 1789.09 -165.358 1754.94 -149.172 c 1
 1614.8 -241.059 1469.34 -206.779 1327.96 -171.926 c 1
 1302.89 -235.181 1261.64 -288.312 1185.82 -267.69 c 1
 1164.81 -330.418 1107.45 -355.95 1072.25 -326.185 c 0
 999.4 -264.557 891.756 -230.288 835.198 -172.483 c 1
 682.232 -206.512 560.41 -112.538 687.913 48.1104 c 1
 660.334 112.992 745.543 185.467 777.889 271.683 c 1
 695.375 282.243 590.004 307.018 566.297 298.763 c 0
 515.511 281.073 363.284 309.172 334.218 317.119 c 1
 176.398 304.119 59.9014 331.849 65.4062 488.98 c 1
227.493 480.275 m 1
 178.401 472.663 150.689 468.371 101.594 460.757 c 1
 93.8691 413.082 244.447 408.912 227.493 480.275 c 1
1084.38 592.183 m 0
 825.397 554.269 996.286 546.32 636.788 522.399 c 0
 585.692 519 590.137 488.802 569.033 486.987 c 0
 550.55 485.4 544.591 511.314 526.415 507.695 c 0
 434.1 489.321 365.902 488.599 263.3 476.39 c 1
 250.997 394.928 192.292 410.334 113.398 407.811 c 1
 114.412 376.567 264.124 347.652 350.099 377.665 c 1
 407.623 368.682 461.089 357.379 523.575 380.384 c 1
 604.456 372.626 651.254 355.211 727.339 401.371 c 1
 807.605 356.047 974.055 358.16 1064.13 421.6 c 1
 1070.94 421.779 1071.33 413.38 1077.52 410.565 c 1
 1051.33 362.256 1084.46 312.087 1114.36 315.387 c 0
 1130.39 317.154 1149.22 354.088 1163.9 376.21 c 0
 1172.19 388.706 1208.8 379.251 1202.08 365.563 c 0
 1164.56 289.234 1183.03 221.194 1302.92 308.083 c 0
 1330.21 327.857 1391.28 329.565 1389.06 296.334 c 0
 1387.54 273.576 1345.13 302.372 1303.25 264.596 c 0
 1210.07 180.539 1123.04 118.563 1008.84 107.013 c 1
 996.464 98.4824 989.483 93.6709 977.105 85.1396 c 1
 876.257 142.62 705.042 54.8047 694.435 -5.28809 c 1
 757.921 -1.57617 796.29 11.3975 834.737 -28.0469 c 1
 861.688 11.0107 922.306 3.84277 985.483 11.0127 c 1
 998.435 5.33398 1005.74 2.13281 1018.69 -3.54395 c 1
 1031.07 4.98828 1038.05 9.79883 1050.42 18.3291 c 1
 1063.43 11.9795 1070.77 8.39844 1083.78 2.04883 c 1
 1093.29 11.6924 1098.66 17.1289 1108.17 26.7725 c 1
 1169 0.666992 1265.6 3.79102 1298.85 55.3369 c 0
 1307.77 69.1582 1331.21 74.7871 1353.92 73.9941 c 0
 1497.96 68.9609 1697.02 60.1641 1760.13 150.666 c 0
 1796.28 202.51 1766.13 361.801 1721.3 387.54 c 1
 1551.99 437.4 1391.01 515.096 1175.49 584.343 c 0
 1141.59 595.234 1119.66 597.348 1084.38 592.183 c 0
823.456 -100.385 m 1
 821.674 -60.501 792.91 -39.6387 757.787 -39.8809 c 0
 715.507 -40.1699 663.499 -75.8311 669.326 -101.442 c 0
 672.815 -116.764 791.04 -134.5 823.456 -100.385 c 1
1825.2 474.796 m 1
 1793.57 452.477 1775.72 439.887 1744.09 417.571 c 1
 1790.28 409.132 l 1
 1834.35 392.028 1910.85 90.5078 1840.19 -91.3711 c 1
 1844.61 -94.3838 1847.1 -96.085 1851.52 -99.1006 c 1
 1989.62 -17.6104 1923.24 389.222 1825.2 474.796 c 1
EndSplineSet
Validated: 33
EndChar

StartChar: uni261E
Encoding: 9758 9758 351
Width: 2241
Flags: HMW
LayerCount: 2
Fore
SplineSet
2162.17 488.98 m 1
 2167.68 331.849 2051.18 304.119 1893.36 317.119 c 1
 1864.29 309.172 1712.07 281.073 1661.28 298.763 c 0
 1637.57 307.018 1532.2 282.243 1449.69 271.683 c 1
 1482.03 185.467 1567.24 112.992 1539.66 48.1104 c 1
 1667.17 -112.538 1545.34 -206.512 1392.38 -172.483 c 1
 1335.82 -230.288 1228.18 -264.557 1155.32 -326.185 c 0
 1120.13 -355.95 1062.77 -330.418 1041.76 -267.69 c 1
 965.937 -288.312 924.688 -235.181 899.613 -171.926 c 1
 758.235 -206.779 612.779 -241.059 472.641 -149.172 c 1
 438.485 -165.358 413.094 -179.761 385.725 -190.43 c 1
 368.927 -226.126 352.131 -261.822 335.333 -297.519 c 1
 79.2285 -306.85 l 1
 51.9014 -29.6611 64.5586 255.056 117.149 547.303 c 1
 379.524 516.793 l 1
 434.047 507.924 488.01 483.052 531.394 430.638 c 1
 655.332 468.729 898.328 569.701 1121.58 648 c 1
 1241.12 616.839 1453.81 556.794 1621.65 570.229 c 1
 1650.07 547.037 1662.68 551.482 1684.67 561.332 c 1
 1692.92 534.515 1980.98 504.546 1988.94 514.306 c 1
 2055.71 495.579 2094.11 493.169 2162.17 488.98 c 1
2000.08 480.275 m 1
 1983.13 408.912 2133.71 413.082 2125.98 460.757 c 1
 2076.89 468.371 2049.18 472.663 2000.08 480.275 c 1
1143.19 592.183 m 0
 1107.92 597.348 1085.99 595.234 1052.09 584.343 c 0
 836.569 515.096 675.586 437.4 506.281 387.54 c 1
 461.443 361.801 431.295 202.51 467.448 150.666 c 0
 530.558 60.1641 729.622 68.9609 873.661 73.9941 c 0
 896.366 74.7871 919.808 69.1582 928.726 55.3369 c 0
 961.981 3.79102 1058.58 0.666992 1119.41 26.7725 c 1
 1128.92 17.1289 1134.29 11.6924 1143.8 2.04883 c 1
 1156.8 8.39844 1164.14 11.9795 1177.15 18.3291 c 1
 1189.53 9.79883 1196.51 4.98828 1208.89 -3.54395 c 1
 1221.83 2.13281 1229.14 5.33398 1242.09 11.0127 c 1
 1305.27 3.84277 1365.89 11.0107 1392.84 -28.0469 c 1
 1431.29 11.3975 1469.66 -1.57617 1533.14 -5.28809 c 1
 1522.54 54.8047 1351.32 142.62 1250.47 85.1396 c 1
 1238.09 93.6709 1231.11 98.4824 1218.74 107.013 c 1
 1104.54 118.563 1017.5 180.539 924.325 264.596 c 0
 882.445 302.372 840.035 273.576 838.518 296.334 c 0
 836.301 329.565 897.366 327.857 924.653 308.083 c 0
 1044.55 221.194 1063.02 289.234 1025.5 365.563 c 0
 1018.77 379.251 1055.38 388.706 1063.68 376.21 c 0
 1078.36 354.088 1097.19 317.154 1113.21 315.387 c 0
 1143.12 312.087 1176.25 362.256 1150.06 410.565 c 1
 1156.25 413.38 1156.63 421.779 1163.45 421.6 c 1
 1253.52 358.16 1419.97 356.047 1500.24 401.371 c 1
 1576.32 355.211 1623.12 372.626 1704 380.384 c 1
 1766.49 357.379 1819.95 368.682 1877.48 377.665 c 1
 1963.45 347.652 2113.17 376.567 2114.18 407.811 c 1
 2035.29 410.334 1976.58 394.928 1964.28 476.39 c 1
 1861.67 488.599 1793.48 489.321 1701.16 507.695 c 0
 1682.99 511.314 1677.03 485.4 1658.54 486.987 c 0
 1637.44 488.802 1641.88 519 1590.79 522.399 c 0
 1231.29 546.32 1402.18 554.269 1143.19 592.183 c 0
1404.12 -100.385 m 1
 1436.54 -134.5 1554.76 -116.764 1558.25 -101.442 c 0
 1564.08 -75.8311 1512.07 -40.1699 1469.79 -39.8809 c 0
 1434.67 -39.6387 1405.9 -60.501 1404.12 -100.385 c 1
402.373 474.796 m 1
 304.342 389.222 237.955 -17.6104 376.058 -99.1006 c 1
 380.473 -96.085 382.967 -94.3838 387.383 -91.3711 c 1
 316.725 90.5078 393.227 392.028 437.294 409.132 c 1
 483.483 417.571 l 1
 451.853 439.887 434.009 452.477 402.373 474.796 c 1
EndSplineSet
Validated: 33
EndChar

StartChar: uni268A
Encoding: 9866 9866 352
Width: 746
VWidth: 0
Flags: W
HStem: 24 66<30 716>
LayerCount: 2
Fore
SplineSet
30 24 m 25
 30 90 l 25
 716 90 l 25
 716 24 l 25
 30 24 l 25
EndSplineSet
Validated: 1
EndChar

StartChar: uni211F
Encoding: 8479 8479 430
Width: 747
UnlinkRmOvrlpSave: 1
Flags: W
HStem: -32 36<596.499 649.034> -10 44<-1.96609 66.894 174.767 220.739> 322 45<232.034 342.548> 649 37<157.034 205.076> 664 42<320.477 473.152>
LayerCount: 2
Fore
SplineSet
454.415039062 -78 m 1x20
 530.537109375 198.296875 611.952148438 497.405273438 660.034179688 714 c 1
 598.068359375 687.286132812 500.405273438 809.122070312 472.034179688 765 c 0
 425.58203125 682.696289062 359.776367188 776.22265625 432.034179688 825.578125 c 0
 517.8984375 876.98828125 640.034179688 639 673.034179688 795.578125 c 9
 694.874023438 788.557617188 707.194335938 784.59765625 729.034179688 777.578125 c 1
 684.784179688 645.232421875 584.415039062 263.926757812 491.48828125 -90 c 1
 454.415039062 -78 l 1x20
EndSplineSet
Refer: 43 82 N 1 0 0 1 0 0 2
EndChar

StartChar: uni2123
Encoding: 8483 8483 431
Width: 691
UnlinkRmOvrlpSave: 1
Flags: W
HStem: 651 42<102.467 150.064 254.484 335.001 557.449 609.482 700.59 769.885>
VStem: 160.765 42.7793<-27 14.614> 161.254 85.0049<111 591.14> 161.391 92.2598<137.86 646.685>
LayerCount: 2
Fore
SplineSet
193.03125 -78 m 1x80
 269.154296875 198.296875 350.569335938 497.405273438 398.650390625 714 c 1
 336.684570312 687.286132812 239.021484375 809.122070312 210.650390625 765 c 0
 164.198242188 682.696289062 98.392578125 776.22265625 170.650390625 825.578125 c 0
 256.515625 876.98828125 378.650390625 639 411.650390625 795.578125 c 9
 433.490234375 788.557617188 445.810546875 784.59765625 467.650390625 777.578125 c 1
 423.400390625 645.232421875 323.032226562 263.926757812 230.104492188 -90 c 1
 193.03125 -78 l 1x80
EndSplineSet
Refer: 55 86 N 1 0 0 1 0 0 2
EndChar

StartChar: estimated
Encoding: 8494 8494 432
Width: 752
VWidth: 0
Flags: W
HStem: -9 50.917<266.135 484.333> 310.923 51.15<191.384 562.454> 632.006 50.917<264.706 485.147>
VStem: 30.1973 161.187<217.349 310.923 362.073 455.702> 562.454 159.576<362.073 456.3>
LayerCount: 2
Fore
SplineSet
632.777 191.846 m 1
 676.861 166.441 l 1
 673.98 161.581 l 2
 613.377 59.3301 501.767 -9 376 -9 c 0
 189.553 -9 30.1973 142.604 30.1973 338.341 c 0
 30.1973 525.945 184.438 682.615 375.52 682.923 c 2
 376.044 682.923 l 2
 564.48 682.923 722.035 529.016 722.03 336.942 c 0
 722.03 329.967 721.813 323.039 721.4 316.168 c 2
 721.084 310.923 l 1
 191.384 310.923 l 1
 191.384 107.399 l 1
 242.467 66.2236 307.069 41.917 376 41.917 c 0
 483.087 41.917 578.216 100.053 629.964 187.113 c 2
 632.777 191.846 l 1
191.384 566.668 m 1
 191.384 362.073 l 1
 562.454 362.073 l 1
 562.454 565.158 l 1
 511.302 606.997 446.18 632.006 376.044 632.006 c 2
 375.598 632.006 l 2
 305.803 631.894 241.805 607.323 191.384 566.668 c 1
EndSplineSet
Validated: 33
EndChar

StartChar: bullet
Encoding: 8226 8226 436
Width: 446
Flags: W
HStem: 122 288<148.717 298.663>
VStem: 79 288<191.67 339.225>
LayerCount: 2
Fore
SplineSet
79 266 m 0
 79 353 151 410 223 410 c 0
 311.5 410 367 336.5 367 264.5 c 0
 367 188 307 122 223 122 c 0
 149.5 122 79 180.5 79 266 c 0
EndSplineSet
Validated: 1
Position2: "cpsp-1" dx=0 dy=0 dh=10 dv=20
EndChar

StartChar: uni2023
Encoding: 8227 8227 437
Width: 614
Flags: W
HStem: 245.313 86.8271<277.825 527.585>
LayerCount: 2
Back
Fore
SplineSet
555 306.641 m 9
 555 276 l 17
 520 256 406.973 263.594 356 245.313 c 0
 137.841 205.319 171.251 96.8509 73.7197 8.78027 c 1
 52.1201 23.8203 l 17
 78.4402 121.58 102.61 383.548 37.0801 561.5 c 1
 69.96 569.021 l 17
 118.84 486.301 160.28 337.61 325.64 332.141 c 0
 415.653 328.91 517.4 321.212 555 306.641 c 9
EndSplineSet
Validated: 33
EndChar

StartChar: dagger
Encoding: 8224 8224 438
Width: 442
Flags: W
HStem: -237 10G<208 216> 247 98 290 55 728 10G<216 238>
VStem: 165 134<639 645 621 646 644 645 621 662> 202 39<-219 -3> 202 207<61 289 186 289 266 315 266 324>
LayerCount: 2
Fore
SplineSet
275 370 m 1x90
 247 262 246 250 234 -18 c 9
 209 -18 l 17
 195 266 194.440429688 282.899414062 168 370 c 1
 196 441 201 460 209 523 c 1
 134 513 l 2
 79 503 83 491 57 491 c 3
 43.9615951896 491 17 518 17 535 c 3
 17 552 45.9580078125 580 58 580 c 3
 83 580 84 569 134 560 c 2
 209 550 l 1
 198 620 l 2
 191 658 177 681 177 702 c 3
 177 718 205 741 222 741 c 3
 239 741 267 718 267 704 c 3
 267 681 253 657 246 620 c 2
 235 550 l 1
 310 560 l 2
 365 570 360 581 386 581 c 3
 398.165039062 581 427 554 427 537 c 3
 427 520 398.038085938 492 385 492 c 3
 360 492 360 504 310 513 c 2
 234 523 l 1
 242 461 247 442 275 370 c 1x90
EndSplineSet
Validated: 1
EndChar

StartChar: daggerdbl
Encoding: 8225 8225 439
Width: 442
Flags: W
HStem: -6 21G<212.5 229.5> 154 89<27.3301 140.031 301.969 413.942> 491 89<28.326 133.984 310.016 414.906>
VStem: 176 90<3.37628 120.469 620.011 730.972>
LayerCount: 2
Fore
SplineSet
176 369 m 1
 198.536585366 440 202.56097561 460 209 523 c 1
 134 513 l 2
 79 503 83 491 57 491 c 3
 43.9619140625 491 17 518 17 535 c 3
 17 552 45.9580078125 580 58 580 c 3
 83 580 84 569 134 560 c 2
 209 550 l 1
 198 620 l 2
 191 658 177 681 177 702 c 3
 177 718 205 741 222 741 c 3
 239 741 267 718 267 704 c 3
 267 681 253 657 246 620 c 2
 235 550 l 1
 310 560 l 2
 365 570 360 581 386 581 c 3
 398.165039062 581 427 554 427 537 c 3
 427 520 398.038085938 492 385 492 c 3
 360 492 360 504 310 513 c 2
 234 523 l 1
 240.43902439 461 244.463414634 441 267 369 c 1
 244.463414634 298 240.43902439 275 234 212 c 1
 309 222 l 2
 364 232 360 244 386 244 c 3
 399.038085938 244 426 217 426 200 c 3
 426 183 397.041992188 155 385 155 c 3
 360 155 359 166 309 175 c 2
 234 185 l 1
 245 115 l 2
 252 77 266 54 266 33 c 3
 266 17 238 -6 221 -6 c 3
 204 -6 176 17 176 31 c 3
 176 54 190 78 197 115 c 2
 208 185 l 1
 133 175 l 2
 78 165 83 154 57 154 c 3
 44.8349609375 154 16 181 16 198 c 3
 16 215 44.9619140625 243 58 243 c 3
 83 243 83 231 133 222 c 2
 209 212 l 1
 202.56097561 274 198.536585366 297 176 369 c 1
EndSplineSet
Validated: 1
EndChar

StartChar: uni0335
Encoding: 821 821 442
Width: 0
VWidth: 1159
Flags: W
HStem: 508.5 38<-325.5 -27.5>
VStem: -325.5 298<508.5 546.5>
LayerCount: 2
Fore
SplineSet
-325.5 546.5 m 25
 -27.5 546.5 l 25
 -27.5 508.5 l 25
 -325.5 508.5 l 25
 -325.5 546.5 l 25
EndSplineSet
Validated: 1
EndChar

StartChar: longs
Encoding: 383 383 446
Width: 210
VWidth: 1159
Flags: W
HStem: -326 36<-164.972 -124.316> 697 57<308.191 397.684>
AnchorPoint: "Top" 298 748 basechar 0
AnchorPoint: "Bottom" 75 -204 basechar 0
LayerCount: 2
Fore
SplineSet
111 493 m 0
 132 626 185.583007812 654.627929688 256 701 c 0
 297 728 334 754 391 754 c 3
 422 754 493 728 514 706 c 1
 509 679 500 672 448 646 c 1
 412 664 374 697 337 697 c 3
 255 697 231.352539062 620.734375 184 498 c 0
 126.142578125 348.038085938 108 19 40 -172 c 0
 17.5068359375 -235.178710938 -12.7578125 -278.947265625 -48 -323 c 1
 -58 -322 -57 -321 -99 -321 c 3
 -120 -321 -152 -325 -164 -326 c 1
 -169 -290 l 1
 -109.891601562 -275.814453125 -74.1162109375 -237.158203125 -46 -187 c 0
 22.359375 -65.0498046875 78.96484375 290.11328125 111 493 c 0
EndSplineSet
Validated: 1
Substitution2: "case-1" S
EndChar

StartChar: yen
Encoding: 165 165 452
Width: 463
VWidth: 1159
UnlinkRmOvrlpSave: 1
Flags: W
HStem: -4.67871 27.0137<146.569 183.29 299.257 339.58> 171.125 39.1<81 396> 271.775 39.1<81 396> 587.232 25.69<19.3948 54.5358 167.676 182.54 281.486 320.156 397.924 437>
VStem: 81 315<171.125 210.225> 81 315<271.775 310.875> 207.261 75.837<36.0924 306.389>
LayerCount: 2
Fore
SplineSet
185.742 586.334 m 1xf2
 192.531 586.418 175.157 583.632 167.301 583.917 c 0
 155.331 581.691 154.813 575.465 161.169 562.095 c 0
 210.725 457.854 251.72 406.49 255.486 401.838 c 1
 288.578 474.974 296.853 483.776 315.947 539.048 c 0
 320.974 553.598 329.289 569.356 316.519 578.514 c 0
 310.401 583.77 292.681 586.523 280.505 587.232 c 1
 281.818 612.922 l 1
 303.4 609.144 401.166 602.808 437 612.588 c 1
 437 584.514 l 1
 399.769 581.961 385.546 571.019 364.396 543.431 c 0
 331.463 500.469 300.119 425.931 274.891 363.709 c 1
 274.315 309.249 272.282 244.117 283.098 65.501 c 0
 285.016 33.8209 297.386 32.9414 342.783 26.6895 c 1
 339.58 -1.14258 l 1
 280.655 7.16309 208.32 10.7812 148.485 -4.67871 c 1
 141.09 22.335 l 1
 185.948 31.7314 205.669 38.7314 207.261 76.7793 c 0
 207.788 89.3788 205.843 344.768 205.118 337.751 c 1
 203.981 344.357 150.2 451.985 77.1982 552.015 c 0
 58.1482 578.118 49.2658 578.581 17.5654 587.716 c 1
 20.0312 613.417 l 1
 52.2452 609.881 150.699 605.606 182.54 612.427 c 1
 185.742 586.334 l 1xf2
EndSplineSet
Refer: 453 -1 N 0.9 0 0 0.85 443.25 -108.95 2
Refer: 453 -1 N 0.9 0 0 0.85 443.25 -8.29971 2
EndChar

StartChar: eth
Encoding: 240 240 454
Width: 471
VWidth: 1159
UnlinkRmOvrlpSave: 1
Flags: W
HStem: -5 49<172.89 302.553> 359 46<174.141 312.123> 700 27.453<74.4455 86.7927>
VStem: 28 64<133.432 266.724> 366 69<130.061 315.66>
LayerCount: 2
Fore
SplineSet
348.139 315.39 m 1
 309.311 349.295 235.815 359 222 359 c 0
 198 359 92 331.005 92 226 c 0
 92 129.917 150.98 44 252 44 c 0
 332.374 44 366 128.15 366 202 c 0
 366 235.619 359.775 274.394 348.139 315.39 c 1
319.727 395.21 m 1
 297.195 448.096 267.132 501.537 231.091 549.926 c 1
 113 477 l 1
 97 506 l 1
 210.377 576.358 l 1
 168.161 627.531 119.003 671.266 65 700 c 1
 69.0967 706.582 77.2373 727.453 77.2373 727.453 c 1
 145.386 707.325 209.364 664.636 263.844 609.538 c 1
 379 681 l 1
 398 653 l 1
 287.162 584.553 l 1
 376.496 483.21 435 349.111 435 235 c 0
 435 113.963 360.284 -5 193 -5 c 0
 102.911 -5 28 65.9238 28 171 c 0
 28 326.39 176 405 264 405 c 0
 275.736 405 298.098 401.774 319.727 395.21 c 1
EndSplineSet
Substitution2: "case-1" Eth
EndChar

StartChar: Uni0336
Encoding: 65556 -1 456
Width: 0
VWidth: 1159
Flags: W
HStem: 509.5 36<-818.5 -32.5>
LayerCount: 2
Fore
SplineSet
-818.5 545.5 m 25
 -32.5 545.5 l 25
 -32.5 509.5 l 25
 -818.5 509.5 l 25
 -818.5 545.5 l 25
EndSplineSet
Validated: 1
EndChar

StartChar: quotereversed
Encoding: 8219 8219 463
Width: 200
VWidth: 1159
Flags: W
HStem: 451 252
VStem: 113.632 141
LayerCount: 2
Fore
SplineSet
209.540039062 451 m 1
 103.000976562 516 112.573242188 627 113.631835938 633 c 0
 114.689453125 639 118.571289062 644 123.923828125 646 c 0
 146.86328125 657 167.684570312 673 182.387695312 694 c 0
 185.26953125 699 191.974609375 703 197.974609375 703 c 3
 203.974609375 703 209.26953125 699 210.387695312 694 c 0
 217.684570312 673 230.86328125 657 249.923828125 646 c 0
 254.571289062 644 255.689453125 639 254.631835938 633 c 0
 253.573242188 627 250.338867188 620 244.986328125 618 c 0
 222.046875 607 197.40234375 592 183.5234375 570 c 0
 164.056640625 539 199.651367188 497 229.948242188 476 c 1
 209.540039062 451 l 1
EndSplineSet
Position2: "cpsp-1" dx=0 dy=0 dh=10 dv=20
EndChar

StartChar: uni20B9
Encoding: 8377 8377 467
Width: 539
VWidth: 1159
UnlinkRmOvrlpSave: 1
Flags: W
HStem: -33 37<438.45 490> 322 45<41 147.579> 492.095 42.999<42.25 496.25> 685.094 20G<41.5 496.25>
VStem: 297 87<441.267 575.707>
LayerCount: 2
Fore
SplineSet
42.25 705.094 m 25
 496.25 705.094 l 25
 496.25 662.095 l 25
 42.25 662.095 l 25
 42.25 705.094 l 25
42.25 535.094 m 25
 496.25 535.094 l 25
 496.25 492.095 l 25
 42.25 492.095 l 25
 42.25 535.094 l 25
41.5 705 m 1
 80.2881 705 96.5903 705 141 705 c 0
 274 705 384 622 384 519 c 0
 384 432 314 373 234 343 c 1
 324.192 140 395.438 6 497 4 c 1
 490 -33 l 1
 347.099 -38 207.409 153 148 323 c 1
 139 322 131 322 124 322 c 0
 91.5904 322 73.4096 324.4 41 325 c 1
 41 369 l 9
 73.2426 368.5 89.7574 367 122 367 c 3
 268 367 297 455 297 508 c 3
 297 568 236 663 120 663 c 3
 95.4844 663 45.6632 663 42.5 663 c 1
 41.5 705 l 1
EndSplineSet
EndChar

StartChar: eng
Encoding: 331 331 468
Width: 499
VWidth: 1159
Flags: W
HStem: -7 21G<208.5 230.353> -5 33<20.3636 70.2898> 335 29<32 79.6511> 338 61<245.574 353.747> 396 20G<129 175>
VStem: 95 75<72.7464 318.176 330 331.265> 379 69<-91.4785 313.154>
LayerCount: 2
Fore
SplineSet
379 143 m 3x16
 379 187 376 253 374 271 c 0
 369 310 348 338 293 338 c 3
 245 338 203 326 170 308 c 1
 168 224 161 107 161 71 c 3
 161 41 174 37 194 32 c 0
 203 30 222 28 232 27 c 1
 228 -7 l 1x96
 189 -1 159 4 117 4 c 3
 87 4 51 -1 21 -5 c 1
 18 28 l 1
 29 30 35 31 46 33 c 0
 69 39 81 49 87 76 c 0
 94 107 95 167 95 199 c 3
 95 219 93 288 86 308 c 0
 77 334 72 336 54 336 c 3
 44 336 41 335 32 335 c 1
 30 364 l 1
 67 371 104 375 154 416 c 1x6e
 175 401 l 1
 170 383 167 357 167 330 c 1
 215 361 267 399 330 399 c 3
 403 399 448 359 448 288 c 3
 448 255 446 219 446 183 c 3
 446 80.0143 445 -34.4143 445 -84 c 3
 445 -134 433 -165 419 -186 c 0
 397 -220 363 -249 329 -267 c 0
 314 -274 282 -298 262 -316 c 1
 244 -294 l 1
 269 -273 288 -258 316 -225 c 0
 337 -199 353 -166 362 -140 c 0
 371.562 -110.021 379 -38.072 379 143 c 3x16
EndSplineSet
Validated: 1
Substitution2: "case-1" Eng
EndChar

StartChar: Eng
Encoding: 330 330 469
Width: 863
VWidth: 1159
Flags: W
HStem: -10 44<32 96.238> 665 37<780.205 840> 673 38<608.263 685.298>
VStem: 105 55<63.5964 311.035> 113 56<364.701 560>
LayerCount: 2
Fore
SplineSet
755 0 m 3xc8
 755 -92 694 -151 625 -200 c 0
 600 -217 575 -235 550 -251 c 9
 525 -218 l 1
 548 -207 567 -196 583 -182 c 0
 588 -178 593 -175 597 -171 c 0
 643.129 -130.678 660.071 -79.1809 670.66 -21 c 0
 683 46.8 658.328 97.5469 612 139.091 c 0
 467.896 283.034 321.026 422.806 169 560 c 1xc8
 160 154 l 2
 158 49 194 41 285 31 c 1
 277 -15 l 1
 182 16 100 -3 32 -10 c 1
 27 34 l 1
 85 34 103 45 105 93 c 0xd0
 114 250 115 416 113 581 c 0
 112 624 77 659 20 658 c 1
 22 702 l 1xc8
 61 698 113 695 154 694 c 0
 169 694 170 690 177 683 c 0
 326.792 523.458 481.299 370.2 644 223.228 c 0
 667.155 202.311 690.86 176.949 707 154 c 1
 716 285.255 718 416.51 717 555 c 0
 716 677 664 666 605 673 c 1
 609 711 l 1xa8
 701 697 769 698 840 702 c 1
 845 665 l 1
 796 659 775 661 771 619 c 0
 756 449 751 268 753 86 c 0
 753 63 755 43 755 0 c 3xc8
EndSplineSet
Validated: 33
Position2: "cpsp-1" dx=0 dy=0 dh=10 dv=20
EndChar

StartChar: circumcombhigh
Encoding: 65558 -1 472
Width: 0
VWidth: 1159
Flags: W
HStem: 450.319 133.361
VStem: -323.78 252.561
LayerCount: 2
Fore
SplineSet
-71.2197 465.56 m 1
 -93.3955 450.319 l 1
 -197.5 518.507 l 1
 -301.604 450.319 l 1
 -323.78 465.56 l 1
 -215.364 583.681 l 1
 -179.636 583.681 l 1
 -71.2197 465.56 l 1
EndSplineSet
Validated: 1
EndChar

StartChar: a.pcap
Encoding: 65568 -1 645
Width: 486
VWidth: 1159
Flags: W
HStem: -6.72754 24.5371<40.1534 63.4002 300.216 318.521> 138.178 25.7979<183.397 283.759> 394.827 20G<239.66 272.077>
VStem: 241.215 30.8623<358.173 414.501>
LayerCount: 2
Fore
SplineSet
181.972 168.094 m 1
 212.171 163.279 255.937 163.976 283.87 163.976 c 1
 261.54 219.156 254.36 228.901 230.438 282.917 c 1
 208.113 227.402 202.201 215.762 181.972 168.094 c 1
301.917 -6.72754 m 1
 301.917 -6.72754 297.573 10.3799 295.592 17.8096 c 1
 313.077 22.7344 330.908 36.7637 327.831 44.2598 c 0
 317.018 82.2109 307.17 97.3613 295.585 131.543 c 1
 274.338 138.334 200.348 142.833 169.37 138.178 c 1
 155.028 103.774 143.828 84.0557 133.173 50.7568 c 0
 129.067 36.9463 150.283 17.5801 187.904 22.4062 c 1
 186.511 -6.72754 l 1
 154.104 0.415039 73.1396 1.73926 40.6533 -3.68652 c 1
 40.4922 -2.07324 38.2686 12.4873 37.4512 21.5996 c 1
 67.0371 27.0771 87.0947 42.8047 89.4863 47.4512 c 0
 145.098 166.269 193.772 274.791 232.885 371.904 c 0
 241.662 393.705 238.104 389.572 241.215 414.827 c 1
 272.077 414.501 l 1
 275.683 394.878 272.319 395.758 280.222 373.374 c 0
 323.06 244.742 352.074 160.877 413.856 37.1631 c 0
 419.89 26.3779 438.806 20.4307 449 20.6895 c 1
 448.919 18.9961 448.182 4.68848 447.605 -3.11035 c 1
 408.944 2.71875 336.396 2.97168 301.917 -6.72754 c 1
EndSplineSet
Validated: 33
EndChar

StartChar: b.pcap
Encoding: 65569 -1 646
Width: 457
VWidth: 1159
Flags: W
HStem: -2.78809 27.4912<62.207 100.731 197.924 282.256> 199.25 19.0244<179.031 243.925> 372.902 26.8418<62.1856 92.4674 187.554 242.168>
VStem: 110.511 69.0166<32.0583 168.354 218.274 369.351> 270.896 77.8525<248.787 352.694> 310.656 78.3438<44.8722 163.307>
LayerCount: 2
Fore
SplineSet
60.3174 21.9229 m 1xf4
 72.3818 22.5107 104.204 25.1719 106.671 54.7432 c 0
 108.363 55.7578 110.511 106.556 110.511 168.354 c 1
 110.511 252.696 106.19 325.063 105.902 325.613 c 0
 105.326 350.167 103.921 364.521 92.7119 369.596 c 0
 87.793 370.668 63.6816 374.458 58.9238 375.114 c 1
 63.4395 399.905 l 1
 71.0547 399.502 102.634 393.984 134.866 393.984 c 1
 165.152 393.984 206.247 399.744 234.886 399.744 c 1
 313.945 399.744 348.749 335.024 348.749 297.562 c 3xf8
 348.749 257.757 317.145 237.154 278.824 214.922 c 1
 339.031 202.519 389 160.57 389 104.82 c 1
 389 40.2393 329.119 -2.78809 238.342 -2.78809 c 1
 208.137 -2.78809 170.002 0.587891 137.332 0.587891 c 1
 101.896 0.587891 68.3359 -1.63574 62.207 -1.79688 c 1
 60.3174 21.9229 l 1xf4
225.148 219.427 m 0
 250.729 223.739 270.896 249.198 270.896 282.829 c 1
 270.896 308.618 255.775 372.902 215.022 372.902 c 1
 212.665 372.902 201.064 371.993 198.942 372.468 c 0
 185.805 369.841 186.954 354.052 185.405 344.161 c 0
 180.247 281.553 179.674 220.524 179.031 218.274 c 1
 220.305 218.274 224.358 218.904 225.148 219.427 c 0
214.187 197.517 m 1
 211.768 199.33 165.858 199.25 177.96 199.25 c 1
 178.174 150.626 178.012 102.975 179.527 72.707 c 0
 180.465 45.1475 184.029 36.4541 197.757 31.8389 c 0
 200.974 29.5166 227.228 24.7031 235.683 24.7031 c 1
 284.38 24.7031 310.656 54.5156 310.656 99.2637 c 1xf4
 310.656 149.534 284.333 197.449 214.187 197.517 c 1
EndSplineSet
Validated: 37
EndChar

StartChar: c.pcap
Encoding: 65570 -1 647
Width: 515
VWidth: 1159
Flags: W
HStem: -5.74805 28.2881<248.634 357.7> 292.83 101.134<394.14 439.115> 378.525 27.4531<229.308 349.526>
VStem: 57.1709 86.0049<120.466 288.088> 394.14 24.333<294.116 340.369> 422.871 20.6309<91.7972 107.381>
LayerCount: 2
Fore
SplineSet
57.1709 199.964 m 1xbc
 57.1709 301.4 137.331 405.979 307.982 405.979 c 1xbc
 334.304 405.979 357.912 405.807 388.174 396.685 c 0
 417.198 388.228 426.598 393.725 439.115 393.964 c 1
 458 383.436 l 1
 431.056 349.01 419.476 329.918 418.473 311.272 c 0
 417.326 291.928 413.054 292.91 394.14 292.83 c 1xdc
 391.994 308.739 391.996 335.537 372.912 351.017 c 0
 345.431 369.314 326.109 378.525 292.753 378.525 c 1
 208.891 378.525 143.176 318.994 143.176 214.198 c 1
 143.176 96.4648 227.964 22.54 304.806 22.54 c 1
 354.975 22.54 398.156 57.1416 422.871 111.092 c 1
 443.502 105.476 l 1
 438.822 73.4639 435.665 59.6973 429.699 27.1543 c 1
 393.169 9.21777 340.326 -5.74805 286.92 -5.74805 c 1
 174.96 -5.74805 57.1709 73.4541 57.1709 199.964 c 1xbc
EndSplineSet
Validated: 33
EndChar

StartChar: d.pcap
Encoding: 65571 -1 648
Width: 554
VWidth: 1159
Flags: W
HStem: -4.59668 29.1143<50.9419 88.4936 154.692 316.994> 371.701 25.1631<179.271 302.206>
VStem: 91.8701 76.4385<33.3188 293.547> 410.276 82.7236<105.346 283.871>
LayerCount: 2
Fore
SplineSet
231.245 24.5176 m 1
 351.633 24.5176 410.276 87.2832 410.276 197.244 c 1
 410.276 302.179 331.503 371.701 233.188 371.701 c 1
 220.777 371.701 207.868 367.074 185.443 361.279 c 0
 171.237 358.229 170.505 348.569 170.11 338.861 c 0
 166.66 237.457 163.207 162.892 168.309 62.7852 c 0
 168.507 53.0225 170.745 40.2129 184.552 36.1045 c 0
 196.3 29.1631 212.636 24.5176 231.245 24.5176 c 1
49.4375 392.417 m 1
 74.6885 391.104 99.7891 388.8 124.88 388.8 c 1
 174.75 388.8 201.995 396.864 251.623 396.864 c 1
 414.622 396.864 493 295.459 493 199.296 c 1
 493 41.4717 354.094 -4.59668 237.96 -4.59668 c 1
 195.82 -4.59668 171.536 -0.564453 128.993 -0.564453 c 1
 85.1592 -0.564453 70.1387 -3.36426 51.2461 -6.56641 c 1
 49.8516 18.4668 l 1
 78.9395 20.5713 85.6084 18.9678 91.8701 54.0566 c 0
 99.3271 144.802 95.8662 282.266 89.2451 335.135 c 0
 85.335 365.741 86.5176 363.943 48.7002 365.737 c 1
 49.4375 392.417 l 1
EndSplineSet
Validated: 33
EndChar

StartChar: e.pcap
Encoding: 65572 -1 649
Width: 469
VWidth: 1159
Flags: W
HStem: -5.91016 22.9825<59.1113 83.6865> 189.377 23.64<167.007 306.626> 378.477 18.703<53.1904 82.1411>
VStem: 94.7002 72.1458<37.9719 189.377 213.017 361.009> 329.12 22.856<134.074 169.743 236.082 261.296> 347.939 19.861<295.923 342.541> 387.05 18.95<105.023 116.752>
LayerCount: 2
Fore
SplineSet
53.1904 397.18 m 1xfa
 161.847 391.742 356.483 394.968 373.153 398.907 c 1
 393.842 381.342 375.656 369.023 367.8 295.923 c 1
 347.939 294.034 l 1xf6
 342.85 305.504 351.86 335.474 328.811 352.161 c 0
 304.662 367.982 238.654 373.214 193.415 362.852 c 0
 184.088 361.398 176.87 352.257 176.596 343.823 c 0
 171.753 298.136 167.583 255.329 167.007 213.017 c 1
 203.392 213.35 270.707 214.094 285.123 217.4 c 0
 314.656 222.447 320.666 235.584 331.234 264.385 c 1
 352.172 259.788 l 1
 342.139 224.124 345.397 170.047 351.976 134.074 c 1
 329.12 128.003 l 1
 317.196 185.242 316.839 176.603 284.035 182.951 c 0
 258.188 189.784 218.582 189.526 166.846 189.377 c 1
 166.351 134.473 167.447 88.501 179.032 51.2109 c 0
 181.07 43.4648 185.288 37.8574 194.564 35.7217 c 0
 245.671 24.9014 276.268433608 17.988619498 323.852 48.4092 c 0
 363.276 73.6133 366.005 85.0664 387.05 119.701 c 1
 406 115.024 l 1
 396.623 75.3066 388.521 32.8184 381.367 -4.19141 c 1
 272.549 -2.67188 140.76 3.67871 59.1113 -5.91016 c 1
 52.626 17.0723 l 1
 81.4795 23.8145 90.9883 27.0146 94.7002 52.6143 c 1
 101.907 91.5518 101.718 297.985 97.2383 340.19 c 0
 94.8389 368.212 88.6953 369.499 49.9072 378.477 c 1
 53.1904 397.18 l 1xfa
EndSplineSet
Validated: 33
EndChar

StartChar: f.pcap
Encoding: 65573 -1 650
Width: 446
VWidth: 1159
Flags: W
HStem: -5.91016 22.9825<64.1621 84.3336> 186.35 27.987<174.2 297.49> 374.123 20.518<53.6328 85.7743> 387.355 20G<352.946 370.807>
VStem: 103.567 69.304<36.7848 186.35 214.337 364.086> 318.66 23.107<131.986 167.294 239.369 264.909> 348.485 20.517<297.745 329.862 401.111 402.897>
LayerCount: 2
Fore
SplineSet
246.621 -8.95117 m 1xde
 186.705 6.50879 138.454 6.50879 64.1621 -5.91016 c 1
 57.6758 17.0723 l 1
 85.3135 24.6523 100.32 34.2383 103.567 67.4854 c 1
 106.166 102.873 107.041 300.842 102.928 341.279 c 0
 100.854 362.674 88.2549 366.463 50.1885 374.123 c 1
 53.6328 394.641 l 1xee
 160.918 389.284 351.262 392.135 354.63 407.355 c 1
 386.983 391.904 371.802 373.95 369.002 297.745 c 1
 348.485 295.855 l 1
 342.068 312.844 343.632 338.674 318.409 350.974 c 0
 281.21 369.058 230.511 370.471 189.97 364.137 c 0
 180.893 363.182 179.325 354.241 178.83 344.519 c 0
 174.35 299.991 174.562 255.202 174.2 214.337 c 1
 203.477 214.582 268.227 216.925 276.003 217.916 c 0
 304.307 223.327 311.384 245.892 321.945 268.398 c 1
 344.356 263.91 l 1
 334.161 227.349 335.108 168.94 341.767 131.986 c 1
 318.66 125.996 l 1
 307.885 176.487 305.396 179.955 276.003 184.189 c 0
 249.275 188.822 227.632 188.58 172.871 186.35 c 1
 176.052 128.543 174.713 99.3564 179.862 70.0312 c 0
 184.992273142 40.8126554404 186.532 26.8887 250.642 26.4502 c 1
 246.621 -8.95117 l 1xde
EndSplineSet
Validated: 33
EndChar

StartChar: g.pcap
Encoding: 65574 -1 651
Width: 548
VWidth: 1159
Flags: W
HStem: -5.66797 27.3799<253.573 365.873> 383.816 28.5996<232.932 357.943>
VStem: 56.5967 83.7168<123.612 291.688> 396.628 71.5527<44.5193 178.581> 437.751 20.5176<299.387 313.65>
LayerCount: 2
Fore
SplineSet
56.5967 204.987 m 3xf0
 56.5967 367.702 235.931 412.416 318.59 412.416 c 1
 354.636 412.416 381.356 400.011 409.686 393.835 c 0
 417.871 392.239 424.124 395.388 429.481 406.736 c 1
 447.037 406.08 l 1
 458.269 300.813 l 1
 437.751 296.632 l 1xe8
 407.969 360.977 333.57 383.816 296.779 383.816 c 3
 187.493 383.816 140.313 281.57 140.313 211.323 c 1
 140.313 113.449 218.34 21.7119 312.605 21.7119 c 1
 338.183 21.7119 355.583 26.6211 381.844 44.3018 c 0
 390.111 48.7861 394.092 63.3535 394.455 74.2402 c 0
 394.434 93.1299 395.902 114.35 396.628 134.659 c 0
 395.504 160.904 391.576 177.173 365.781 181.129 c 0
 347.269 183.007 333.537 183.582 314.782 183.433 c 1
 316.177 205.252 l 1
 374.848 199.33 458.919 199.826 488.03 203.523 c 1
 490 186.716 l 1
 474.862 182.784 469.039 172.854 468.181 151.362 c 0
 466.818 119.9 466.126 92.4941 464.575 67.6523 c 0
 463.999 50.3057 467.536 45.2256 480.703 32.959 c 1
 478.813 18.7656 l 1
 433.068 11.6924 321.464 -5.66797 289.231 -5.66797 c 1
 159.113 -5.66797 56.5967 77.7305 56.5967 204.987 c 3xf0
EndSplineSet
Validated: 33
EndChar

StartChar: h.pcap
Encoding: 65575 -1 652
Width: 584
VWidth: 1159
Flags: W
HStem: -9.52734 21G<374.397 398.917> -7.95996 23.0508<52.1693 73.5435 185.361 217.797 503.01 528.587> 186.323 27.501<171.585 420.307> 378.489 24.8721<53.1371 88.1347 185.834 222.389 373.337 404.007>
LayerCount: 2
Fore
SplineSet
53.6689 403.361 m 1xb0
 112.056 398.094 159.699 393.48 222.389 401.138 c 1
 223.782 376.923 l 1
 210.467 373.938 182.153 372.797 179.209 360.095 c 1
 174.207 340.058 173.463 270.639 171.585 213.824 c 1
 420.307 214.55 l 1
 419.943 248.461 419.249 288.051 417.57 336.559 c 0
 415.986 371.478 392.946 370.641 370.135 379.388 c 1
 373.337 401.795 l 1
 423.61 392.095 473.928 392.176 527.818 405.826 c 1
 532 381.611 l 1
 506.495 374.231 498.557 372.18 495.388 346.344 c 0
 485.644 258.586 478.428 76.2197 491.073 48.5889 c 0
 497.849 19.1143 514.664 18.0928 531.09 15.0908 c 1
 531.09 15.0908 527.968 -1.02539 528.464 -7.95996 c 1x70
 486.923 1.16309 423.276 2.55762 374.559 -9.52734 c 1
 374.236 -7.83398 370.86 5.5752 369.467 13.6162 c 1
 394.821 21.8184 408.716 24.3721 412.54 53.2891 c 0
 417.524 103.581 418.861 132.254 420.307 185.598 c 1
 170.445 186.323 l 1
 169.144 139.279 168.947 90.3389 171.746 51.6719 c 0
 172.818 19.8066 201.971 20.8721 220.154 15.3447 c 1
 220.154 15.3447 217.608 -2.01562 217.112 -8.95117 c 1
 161.736 0.587891 99.1611 2.39648 53.2539 -7.79883 c 1
 53.2539 -7.79883 49.7285 10.541 48.7383 19.457 c 1
 67.7119 24.7314 90.6973 23.793 94.1924 53.2842 c 0
 104.311 151.288 105.503 331.745 98.6035 349.921 c 0
 93.8594 373.847 73.5869 375.332 51.7793 378.489 c 1
 53.6689 403.361 l 1xb0
EndSplineSet
Validated: 33
EndChar

StartChar: i.pcap
Encoding: 65576 -1 653
Width: 331
VWidth: 1159
Flags: W
HStem: -6.56641 26.1846<56.4055 101.954> 372.891 27.752<59.5411 109.06>
VStem: 57.2832 202.17
LayerCount: 2
Fore
SplineSet
60.1631 400.643 m 1
 126.092 388.224 188.098 390.032 258.059 398.834 c 1
 259.453 371.002 l 1
 230.134 369.739 211.722 375.403 203.805 340.755 c 0
 194.795 280.067 186.511 198.761 196.859 65.4365 c 0
 199.488 36.2217 229.711 20.6895 262.561 19.5381 c 1
 261.823 -5.8291 l 1
 202.277 0.749023 108.855 1.73926 57.2832 -6.56641 c 1
 54 19.6182 l 1
 88.3945 20.2725 118.453 31.7285 122.894 68.9414 c 0
 130.785 147.271 130.267 276.957 121.459 339.603 c 0
 113.778 370.183 85.2676 369.028 57.6973 372.891 c 1
 60.1631 400.643 l 1
EndSplineSet
Validated: 33
EndChar

StartChar: j.pcap
Encoding: 65577 -1 654
Width: 316
VWidth: 1355
Flags: W
HStem: 372.729 26.105<53.8711 99.9628>
VStem: 122.568 74.57<-62.9141 275.502>
LayerCount: 2
Fore
SplineSet
113.274 331.094 m 0
 105.885 372.844 80.9775 369.819 51.3252 372.729 c 1
 53.8711 398.834 l 1
 120.93 386.254 181.322 390.113 251.606 398.834 c 1
 253 371.002 l 1
 222.017 370.253 200.127199562 376.338476425 195.602 333.214 c 0
 188.902 269.364 191.187 208.438 191.126 130.164 c 1
 191.126 55.8486 195.94 26.4619 197.138 1.69336 c 1
 197.138 -51.9434 160.214165189 -87.7258593452 119.46 -114.877 c 0
 96.5996 -130.107 71.5762 -142.066 48.7939 -151.443 c 1
 41.5391 -151.443 24.9541 -125.225 24.9541 -125.225 c 1
 39.0488 -114.334 69.6035 -101.602 81.1172 -93.7793 c 1
 81.1171949359 -93.779300905 81.1171933134 -93.7792971211 81.1171875 -93.779296875 c 1
 135.924967514 -57.4340985684 123.123494802 13.15407535 122.568 38.166 c 1
 122.22 62.5186 118.830980299 299.695444381 113.274 331.094 c 0
EndSplineSet
Validated: 33
EndChar

StartChar: k.pcap
Encoding: 65578 -1 655
Width: 491
VWidth: 1159
Flags: W
HStem: -6.56641 20.3447<48.6875 73.7133 191.575 219.431> 375.852 20.5977<52.3848 78.3378 182.87 216.46 264.771 288.293 384.532 407.859>
VStem: 95.1924 68.2002<27.0142 170.655 245.78 368.209>
LayerCount: 2
Fore
SplineSet
264.771 393.569 m 1
 301.957 389.215 367.213 390.608 406.623 398.915 c 1
 412.371 375.356 l 1
 387.376 369.841 371.54 360.341 350.284 342.062 c 0
 296.952 295.877 256.671 262.555 208.098 220.446 c 1
 379.38 66.3945 l 1
 398.642 49.4443 426.913 28.1064 448 18.4727 c 1
 445.293 1.9873 l 1
 429.345 3.02637 396.788 3.6543 382.458 3.6543 c 0
 363.047 3.6543 324.173 1.76465 305.66 -1.11523 c 1
 302.791 16.3486 l 1
 306.967 22.0713 322.732 25.4287 307.29 43.5645 c 1
 297.376 59.4287 220.059 128.151 163.393 178.097 c 1
 163.393 132.041 164.684 91.8057 166.557 60.7793 c 0
 168.109 26.0664 187.331 25.3975 221.154 13.7783 c 1
 218.527 -6.56641 l 1
 173.854 0.587891 107.013 3.30664 48.6875 -3.60547 c 1
 46.7168 18.5469 l 1
 76.0293 20.1699 87.5176 25.082 91.5098 57.5811 c 0
 100.238 141.261 100.895 231.585 95.1924 321.732 c 0
 91.2383 366.209 84.1016 366.714 48.3643 375.852 c 1
 52.3848 396.449 l 1
 98.9492 389.215 170.336 391.023 216.002 396.944 c 1
 218.133 375.367 l 1
 186.405 371.497 175.571 373.231 170.203 332.756 c 1
 166.605 285.933 163.815 256.897 163.393 209.283 c 1
 210.891 253.817 242.615 282.028 287.338 327.521 c 0
 292.747 334.299 295.627 334.995 295.627 348.104 c 0
 296.122 365.864 283.352 371.577 263.953 374.872 c 1
 264.771 393.569 l 1
EndSplineSet
Validated: 33
EndChar

StartChar: l.pcap
Encoding: 65579 -1 656
Width: 465
VWidth: 1159
Flags: W
HStem: -4.59668 28.0859<59.7842 90.0198> 0.587891 34.6445<181.572 340.673> 369.193 29.8018<55.1737 92.4492 185.106 232.682>
VStem: 100.52 72.7471<67.0997 363.83> 388.018 22.9824<89.3817 109.699>
LayerCount: 2
Fore
SplineSet
232.682 397.105 m 1xb8
 235.147 370.668 l 1
 187.639 362.8 182.547 372.73 178.188 315.446 c 0
 173.959 298.379 172.613 95.1543 173.267 104.887 c 1
 173.869 59.749 179.234 36.3525 215.439 35.2324 c 0
 210.032 36.0293 287.885 37.3096 285.346 36.291 c 0
 338.585 34.5342 378.696 79.6211 388.018 114.296 c 1
 411 109.699 l 1
 410.295 67.6436 402.386 64.7168 384.434 -18.6309 c 1
 363.73 -8.94043 361.061 -4.11426 335.322 -2.59961 c 0
 328.906 -2.16797 278.448 0.587891 220.583 0.587891 c 0x78
 95.3721 0.587891 69.2656 -4.59668 59.7842 -4.59668 c 1
 56.6621 23.4893 l 1
 87.6084 30.0029 96.1396 33.8857 98.749 67.2725 c 0
 99.5107 62.7598 100.156 111.462 100.52 173.042 c 0
 101.245 254.564 98.0117 332.553 97.5781 333.961 c 0
 95.2588 367.256 88.501 367.029 53.2871 369.193 c 1
 55.7529 398.995 l 1
 105.53 386.496 188.664 390.367 232.682 397.105 c 1xb8
EndSplineSet
Validated: 33
EndChar

StartChar: m.pcap
Encoding: 65580 -1 657
Width: 648
VWidth: 1159
Flags: W
HStem: -6.56641 26.5195<42.204 86.2866 162.423 202.403 412.047 452.632> 377.833 28.4082<49.9604 98.5728 551.364 588.655>
VStem: 104.824 40.3398<79.1084 279.542> 292.358 29.4043<3.74121 55.1367> 469.391 62.8096<84.0046 286.745 347.435 370.37>
LayerCount: 2
Fore
SplineSet
590.44 -0.311523 m 1
 545.363 8.0752 470.439 8.73242 412.839 -1.95801 c 1
 409.476 23.1553 l 1
 466.302 28.5752 472.014 34.7354 469.391 108.509 c 0
 469.396 178.485 468.319 220.58 461.811 289.979 c 1
 418.614 228.975 389.621 180.521 355.436 104.692 c 0
 341.57 74.1768 327.65 32.2432 321.763 3.74121 c 1
 292.358 3.74121 l 1
 291.687 39.8232 275.847 79.8584 261.181 109.957 c 1
 262.492 108.667 166.155 290.334 165.044 283.034 c 1
 153.729 208.005 146.219 166.837 145.164 84.9814 c 0
 144.749 28.3623 166.152 28.2578 205.687 20.1943 c 1
 202.403 -6.40527 l 1
 160.193 0.253906 94.7178 2.97168 42.6357 -6.56641 c 1
 41 19.9531 l 1
 86.0439 26.0596 100.242 28.9863 104.824 79.1084 c 1
 104.847 77.5938 124.31 283.142 124.543 280.593 c 1
 125.428 312.119 123.231 334.988 109.906 352.588 c 0
 98.9219 367.95 82.708 375.792 46.1836 377.833 c 1
 51.1953 406.241 l 1
 85.248 401.887 140.876 397.44 177.74 398.592 c 1
 191.703 398.816 193.919 387.165 197.549 376.978 c 0
 239.518 281.575 276.571 216.599 329.241 134.17 c 1
 330.438 128.134 474.91 393.976 474.91 393.097 c 0
 477.951 398.684 483.458 401.553 487.881 400.896 c 0
 516.509 397.44 559.51 398.834 588.057 401.714 c 1
 590.683 375.529 l 1
 547.243 376.101 533.583 367.854 532.2 311.311 c 0
 533.477 233.201 530.705 160.88 536.871 104.488 c 0
 542.877 35.5352 554.787 28.2588 591.177 27.6826 c 1
 590.44 -0.311523 l 1
EndSplineSet
Validated: 33
EndChar

StartChar: n.pcap
Encoding: 65581 -1 658
Width: 564
VWidth: 1159
Flags: W
HStem: -9.68848 21G<175.92 206.616> -6.56641 28.9727<47.6191 85.8788> 384.584 25.2744<377.511 418.246 495.265 519.797>
VStem: 95.8086 41.3701<41.9182 308.676> 439.42 30.418<130.871 238.18> 452.616 24.2949<-5.99538 11.9605>
LayerCount: 2
Fore
SplineSet
47.2031 404.514 m 1x74
 81.1211 399.126 120.901 397.531 150.243 399.744 c 0
 159.358 399.903 160.749 396.634 164.62 392.763 c 0
 259.871 290.703 339.446 209.835 434.217 127.984 c 1
 441.572 189.917 436.655 229.738 439.42 297.312 c 0
 439.343 379.526 410.264 382.18 375.554 384.584 c 1
 378.261 409.858 l 1
 431.172 401.714 477.853 402.129 519.797 404.514 c 1
 523 380.298 l 1
 495.951 376.962 486.376 374.165 482.472 334.579 c 0
 472.358 247.635 468.687 136.86 469.838 44.3408 c 0x78
 469.838 30.2432 473.456 9.52441 476.911 -3.91406 c 1
 452.616 -11.1377 l 1
 443.136 14.0811 429.888 26.543 412.26 46.3018 c 0
 326.692 136.729 234.259 223.957 142.121 308.565 c 1
 142.121 314.254 135.698 104.428 137.179 109.984 c 1
 136.685 47.9697 159.563 28.5654 208.372 20.3555 c 1
 203.119 -9.68848 l 1xb4
 148.722 8.8125 88.3193 -2.29199 47.6191 -6.56641 c 1
 44.2549 22.4062 l 1
 79.9121 23.5762 94.6572 32.3037 95.8086 74.9287 c 0
 101.158 155.011 101.787 228.775 100.417 322.109 c 0
 96.3789 356.649 69.4004 368.719 45.9707 376.104 c 1
 47.2031 404.514 l 1x74
EndSplineSet
Validated: 33
EndChar

StartChar: o.pcap
Encoding: 65582 -1 659
Width: 589
VWidth: 1159
Flags: W
HStem: -4.67676 36.2852<246.986 376.4> 377.726 35.2666<208.211 328.755>
VStem: 62.1523 77.6943<147.048 285.958> 434.492 83.5078<110.981 270.329>
LayerCount: 2
Fore
SplineSet
263.874 377.726 m 1
 191.771 377.726 139.847 325.002 139.847 242.805 c 1
 139.847 135.743 217.9 31.6084 312.758 31.6084 c 1
 390.912 31.6084 434.492 91.7939 434.492 173.613 c 1
 434.492 291.393 350.277 377.726 263.874 377.726 c 1
298.191 412.992 m 1
 422.59 412.992 518 314.149 518 200.125 c 1
 518 87.1484 427.5 -4.67676 293.277 -4.67676 c 1
 149.817 -4.67676 62.1523 109.651 62.1523 200.287 c 1
 62.1523 313.839 171.565 412.992 298.191 412.992 c 1
EndSplineSet
Validated: 1
EndChar

StartChar: p.pcap
Encoding: 65583 -1 660
Width: 454
VWidth: 1159
Flags: W
HStem: -10.5986 24.3877<54.8303 72.329> -6.56641 29.8945<181.382 229.625> 137.215 22.421<171.622 250.081> 366.889 27.257<44.4043 90.4189> 374.598 17.082<172.148 239.359>
VStem: 100.282 71.34<28.9752 139.505 159.766 361.71> 304.887 76.668<198.808 328.194>
LayerCount: 2
Fore
SplineSet
197.55 159.636 m 1x2e
 246.794 159.636 304.887 183.529 304.887 260.963 c 1
 304.887 310.294 269.6 350.14 257.73 357.805 c 0
 233.949 372.343 206.477 374.598 175.354 374.598 c 1
 172.436 374.598 171.397 360.975 170.847 351.363 c 0
 172.268 308.679 168.267 239.423 169.895 166.133 c 1
 179.353 162.507 185.371 159.636 197.55 159.636 c 1x2e
44.8896 394.146 m 1xb6
 60.752 392.832 89.751 391.68 113.021 391.68 c 1
 153.675 391.68 185.796 398.016 226.288 398.016 c 1
 320.845 398.016 381.555 324.825 381.555 266.135 c 1
 381.555 175.145 293.667 137.215 195.643 137.215 c 1
 182.614 137.215 182.602 137.362 171.622 139.505 c 1
 172.693 103.331 171.391 69.5625 175.35 54.7227 c 0
 180.239 24.499 190.469 28.832 232.171 23.3281 c 1
 229.625 -6.56641 l 1x6e
 169.79 4.12402 122.143 5.85254 57.4688 -10.5986 c 1
 48.2764 13.7891 l 1
 91.3037 33.748 98.8848 32.7314 100.282 60.9404 c 0
 105.011 135.688 102.478 246.529 95.7744 337.311 c 0
 93.6631 358.095 81.8262 366.312 43 366.889 c 1
 44.8896 394.146 l 1xb6
EndSplineSet
Validated: 33
EndChar

StartChar: q.pcap
Encoding: 65584 -1 661
Width: 564
VWidth: 1187
Flags: W
HStem: -150.849 45.027<519.002 707.554> 387.413 25.003<210.377 313.492>
VStem: 66.252 79.212<133.813 305.67> 405.267 81.781<119.857 294.903>
LayerCount: 2
Fore
SplineSet
263.718 387.413 m 3
 193.141 387.413 145.464 339.343 145.464 243.161 c 3
 145.464 138.426 200.559 28.6729 289.269 28.6729 c 3
 361.35 28.6729 405.267 87.3115 405.267 188.062 c 3
 405.267 307.792 340.95 387.413 263.718 387.413 c 3
351.935 13.5684 m 1
 456.991 -50.9404 518.276 -105.822 629.213 -105.822 c 7
 684.912 -105.822 753.848 -93.5605 774.453 -81.9951 c 1
 782 -102.916 l 1
 756.723 -116.645 649.17 -150.849 575.363 -150.849 c 7
 456.368 -150.849 383.393 -78.7578 256.088 -5.94336 c 1
 153.324 0.195312 66.252 96.4004 66.252 210.159 c 3
 66.252 349.012 171.419 412.416 280.629 412.416 c 3
 386.199 412.416 487.048 332.977 487.048 211.392 c 3
 487.048 116.09 424.594 46.2803 351.935 13.5684 c 1
EndSplineSet
Validated: 1
EndChar

StartChar: r.pcap
Encoding: 65585 -1 662
Width: 528
VWidth: 1159
Flags: W
HStem: -19.4922 24.1348<440.728 488.323> -6.64746 28.3281<59.4863 93.8987 187.39 220.647> 187.868 27.2793<170.981 223.708> 371.002 24.1338<52.7471 92.0511> 381.646 24.4346<184.127 252.133>
VStem: 99.792 71.1895<30.229 187.868 215.147 367.283> 304.484 74.6406<239.885 343.529>
LayerCount: 2
Fore
SplineSet
170.981 215.147 m 1x2e
 192.288 214.571 203.004 212.924 224.062 212.924 c 1
 276.897 212.924 304.484 243.815 304.484 285.676 c 1
 304.484 324.894 270.116 380.148 207.99 381.646 c 1
 194.689 379.909 181.619 377.828 175.975 346.091 c 0
 168.601 310.358 169.628 255.776 170.981 215.147 c 1x2e
52.7471 395.136 m 1x76
 79.2871 394.56 98.0967 393.984 127.871 393.984 c 1
 170.749 393.984 189.901 406.08 238.673 406.08 c 1
 314.636 406.08 379.125 358.353 379.125 298.218 c 1
 379.125 249.389 340.982 215.822 296.514 198.575 c 1
 373.762 78.3896 408.814 3.51758 493 4.64258 c 1
 488.323 -19.4922 l 1xae
 369.416 -29.4619 286.699 55.2324 220.598 184.767 c 1
 218.128 184.67 216.595 185.068 215.595 185.068 c 1
 196.113 185.468 190.318 187.131 170.981 187.868 c 1
 173.418 136.366 174.934 98.0781 179.546 55.2812 c 0
 181.95 29.7051 194.083 26.5615 224.48 21.6807 c 1
 219.389 -6.64746 l 1
 167.642 3.54785 111.576 4.7002 59.4863 -4.83887 c 1
 54.8086 21.9229 l 1
 86.2236 23.9697 96.7324 28.9385 99.792 53.9707 c 1
 106.098 178.697 107.229 221.016 101.883 330.543 c 1
 96.8086 362.487 88.9375 369.85 52.7471 371.002 c 1
 52.7471 395.136 l 1x76
EndSplineSet
Validated: 33
EndChar

StartChar: s.pcap
Encoding: 65586 -1 663
Width: 435
VWidth: 1159
Flags: W
HStem: -6.32422 31.0566<160.899 271.688> 384.129 24.8311<174.521 272.438>
VStem: 59.124 24.2441<89.4071 119.203> 72.3828 21.1738<-0.40332 6.53268> 78.2148 65.7725<264.338 350.96> 296.743 66.2568<45.4187 137.196>
LayerCount: 2
Fore
SplineSet
59.124 117.835 m 1xe4
 83.3682 122.572 l 1xe4
 86.4854 103.654 93.8984 86.2178 108.776 71.8281 c 0
 136.09 45.0244 191.478 24.7324 225.811 24.7324 c 1
 273.165 24.7324 296.743 59.2188 296.743 86.6455 c 1
 296.743 163.083 196.922 169.416 142.034 194.954 c 0
 129.367 201.141 78.2148 226.787 78.2148 285.216 c 1
 78.2148 344.695 126.946 408.96 232.861 408.96 c 1
 259.59 408.96 288.232 403.31 297.997 401.136 c 0
 310.743 398.444 321.678 395.564 332.888 404.018 c 1
 352.909 398.27 l 1
 342.574 346.854 344.892 344.891 352.058 307.205 c 0
 355.841 296.757 343.732 285.365 330.059 289.542 c 1
 328.042 285.741 319.918 315.502 321.492 325.57 c 0
 314.117 355.134 263.677 384.129 223.016 384.129 c 1
 192.891 384.129 143.987 374.947 143.987 311.486 c 1xcc
 143.987 245.562 197.238 259.072 286.258 219.792 c 0
 350.391 192.037 363 139.771 363 105.933 c 1
 363 59.4492 324.839 -6.32422 209.016 -6.32422 c 1
 171.384 -6.32422 139.788 -2.0957 109.809 8.43359 c 1
 96.3301 11.1748 97.8828 9.3877 93.5566 -2.94922 c 1
 72.3828 -0.40332 l 1xd4
 72.3789 33.7441 67.6924 73.4971 59.124 117.835 c 1xe4
EndSplineSet
Validated: 33
EndChar

StartChar: t.pcap
Encoding: 65587 -1 664
Width: 492
VWidth: 1159
Flags: W
HStem: -13.0635 32.3594<143.255 195.791> 356.938 36.833<78.4714 207.69 290.969 412.151> 381.541 28.882G<64.7353 74.521 438.326 457>
VStem: 411.213 24.78<307.432 347.986>
LayerCount: 2
Fore
SplineSet
115.856 393.771 m 0xd0
 215.792 390.805 317.316 390.741 418.776 392.256 c 0
 428.366712035 392.399208444 436.229 396.196 440.423 401.541 c 1
 457 390.874 l 1
 447.884 365.301 437.622 341.277 435.993 304.605 c 1
 411.213 308.545 l 1
 411.213 308.545 413.186 323.282 413.796 326.39 c 1
 422.496 364.585 318.641 358.276 290.969 356.725 c 1
 284.896 257.502 283.362 174.165 286.875 68.8457 c 0
 289.636 24.3916 289.737 28.4551 347.391 21.1855 c 1
 343.116 -7.30371 l 1
 286.729 4.45801 196.503 0.425781 144.356 -13.0635 c 1
 139.265 19.2959 l 1
 201.216 29.3027 202.098 36.4658 204.399 54.2949 c 0
 211.482 118.648 218.468 320.393 203.553 356.938 c 1xd0
 161.128 358.884 139.167 358.614 104.915 349.201 c 0
 78.6291736044 341.977232516 79.584 346.038 52.9971 301.563 c 1
 27.4688 313.557 l 1
 42.6631 344.199 60.8799 393.468 68.5908 410.423 c 1xb0
 80.4512 401.362 92.7311647272 394.45732186 115.856 393.771 c 0xd0
EndSplineSet
Validated: 33
EndChar

StartChar: u.pcap
Encoding: 65588 -1 665
Width: 569
VWidth: 1159
Flags: W
HStem: -6.32422 38.3193<209.793 379.971> 370.506 25.9434<49.1221 91.4305 184.262 228.194 476.24 521.102>
VStem: 97.4258 71.7637<67.9692 317.161> 424.758 38.1787<73.1868 350.523>
LayerCount: 2
Fore
SplineSet
49.1221 396.449 m 1
 89.9785 392.256 174.922 392.176 228.194 396.368 c 1
 230.901 372.729 l 1
 192.753 369.273 175.196 366.645 172.422 317.178 c 0
 172.781 319.347 168.826 157.697 169.189 147.122 c 1
 169.539 113.947 175.896 85.4844 193.203 65.042 c 0
 211.924 43.54 243.329 31.9951 295.392 31.9951 c 1
 313.291 31.9951 362.244 30.4541 394.69 59.7773 c 0
 416.688 80.0293 422.651 104.969 424.758 147.709 c 0
 426.659 199.1 425.216 283.375 424.246 336.538 c 0
 422.534 371.175 405.515 369.931 365.323 370.506 c 1
 366.475 396.449 l 1
 399.653 392.176 497.628 389.629 521.102 395.539 c 1
 523.072 369.769 l 1
 490.47 370.242 474.48 372.032 471.522 340.041 c 0
 468.616 337.492 464.154 273.926 462.937 146.719 c 0
 462.666 102.01 448.814 67.4678 425.372 42.6191 c 0
 392.334 9.70703 338.631 -6.32422 269.959 -6.32422 c 1
 205.032 -6.32422 159.566 9.13574 132.032 36.3574 c 0
 107.929 60.6299 96.8135 94.3467 97.4258 136.017 c 0
 98.8408 147.049 100.153 318.175 99.1367 324.629 c 0
 95.6357 364.291 93.5557 363.907 46 370.506 c 1
 49.1221 396.449 l 1
EndSplineSet
Validated: 33
EndChar

StartChar: v.pcap
Encoding: 65589 -1 666
Width: 568
VWidth: 1159
Flags: W
HStem: 374.123 20.792<39.2647 67.4909 168.045 209.199 377.926 414.003 495.88 525.325>
VStem: 265.175 30.749<-21.6221 26.4169>
LayerCount: 2
Fore
SplineSet
209.36 393.521 m 1
 209.199 373.397 l 1
 196.142 373.802 182.577 372.104 176.148 369.143 c 0
 160.309 366.479 164.8 359.358 167.409 353.929 c 1
 165.393 361.116 307.434 73.542 305.163 84.4854 c 1
 300.473 71.3936 423.415 357.782 419.632 350.969 c 1
 421.406 357.238 419.757 363.916 407.203 368.048 c 0
 403.203 369.364 378.223 374.58 377.27 374.631 c 1
 377.926 397.795 l 1
 425.024 388.913 495.03 390.398 524.717 398.036 c 1
 528 373.962 l 1
 498.827 371.275 480.558 358.764 453.556 316.909 c 0
 440.604 299.336 347.528 119.958 311.236 34.7217 c 0
 304.598 18.5928 296.978 -3.63867 295.924 -21.6221 c 1
 265.175 -21.7021 l 1
 265.197 -3.89258 257.645 8.79199 247.429 32.9131 c 0
 221.138 89.3086 158.769 210.567 95.0469 327.235 c 0
 74.3672 363.621 65.9941 370.156 36.4629 374.123 c 1
 39.9072 394.915 l 1
 107.732 384.224 139.823 390.56 209.36 393.521 c 1
EndSplineSet
Validated: 37
EndChar

StartChar: w.pcap
Encoding: 65590 -1 667
Width: 720
VWidth: 1159
Flags: W
HStem: -9.94141 21G<466.738 488.395> 377.366 23.293<183.943 212.214 262.861 292.197 397.092 446.03 656.434 677.117>
VStem: 259.773 23.5693<-12.6602 25.9001> 467.073 21.3213<-9.2041 22.3598>
LayerCount: 2
Fore
SplineSet
676.061 401.569 m 1
 680 378.253 l 1
 629.955 363.745 630.323 329.177 596.45 249.366 c 1
 528.413 79.041 510.181 45.7744 499.614 24.3535 c 0
 493.874 10.3926 489.56 4.19336 488.395 -9.2041 c 1
 467.073 -9.94141 l 1
 466.403 1.95801 467.588 10.9844 457.071 33.8916 c 0
 426.155 98.7871 404.246 162.39 373.75 227.843 c 1
 337.63 137.078 315.909 78.627 289.944 13.8125 c 0
 285.524 1.89551 283.781 -3.70898 283.343 -12.6602 c 1
 259.773 -12.6602 l 1
 259.219 -2.72461 260.68 6.96973 245.371 40.9004 c 0
 179.891 194.095 114.422 319.264 101.765 331.585 c 0
 97.6973 336.503 93.5186 342.317 81.9521 356.683 c 0
 69.8281 371.755 50.2969 373.689 33.5947 375.131 c 1
 37.6963 401.892 l 1
 81.0771 388.989 161.987 389.727 212.214 400.659 c 1
 217.387 377.366 l 1
 187.566 377.076 178.049 367.958 178.049 347.565 c 1
 178.049 340.573 181.098 331.479 184.303 325.74 c 1
 183.768 332.816 297.162 86.9609 296.53 102.379 c 1
 308.516 124.409 335.385 207.479 354.213 264.877 c 1
 323.453 336.854 308.47 349.132 305.265 354.773 c 1
 291.231 374.092 270.022 375.322 258.841 380.073 c 1
 262.861 399.922 l 1
 317.363 393.264 387.353 392.111 445.306 401.649 c 1
 448.013 378.184 l 1
 447.081 378.078 428.024 377.11 421.271 377.973 c 0
 399.806 377.9 391.969 364.171 396.645 352.057 c 1
 396.479 347.934 505.399 90.6016 500.251 104.556 c 1
 538.148 176.489 552.579 222.287 572.092 296.131 c 0
 587.192 352.302 588.931 379.266 518.932 377.285 c 1
 519.173 398.689 l 1
 554.898 394.254 616.321 393.344 676.061 401.569 c 1
EndSplineSet
Validated: 33
EndChar

StartChar: x.pcap
Encoding: 65591 -1 668
Width: 536
VWidth: 1159
Flags: W
HStem: -0.806641 24.7109<177.68 212.974 458.226 489.403> 382.011 17.7178<47.4873 70.5438 201.107 223.314 295.207 309.292 445.836 460.234>
LayerCount: 2
Fore
SplineSet
47.4873 399.729 m 1
 115.029 396.272 162.501 395.121 223.314 403.922 c 1
 224.052 381.273 l 1
 219.87 379.88 209.322 380.273 200.701 377.91 c 0
 190.402 374.781 193.968 361.902 199.268 352.315 c 1
 198.129 351.951 276.814 237.887 274.987 239.363 c 1
 299.577 274.071 316.484 305.304 326.826 321.331 c 0
 334.28 332.783 340.941 356.92 323.173 367.286 c 1
 319.143 371.029 295.276 377.981 291.924 377.817 c 1
 295.207 398.081 l 1
 343.591 392.655 411.267 393.888 460.054 399.81 c 1
 461.528 376.827 l 1
 453.687 374.717 424.223 372.056 397.685 347.773 c 0
 383.641 336.52 378.72 333.405 290.174 224.337 c 1
 319.48 190.495 417.995 69.8252 430.369 59.4668 c 1
 459.224 29.1221 469.517 30.5703 494 23.9043 c 1
 489.403 -0.806641 l 1
 449.176 7.58008 346.812 5.19531 304.925 -4.42383 c 1
 302.955 17.5684 l 1
 307.819 22.1553 320.577 25.2607 326.193 29.4609 c 0
 342.331 40.6553 331.387 60.209 321.521 75.167 c 0
 302.697 106.938 285.612 132.64 253.359 173.014 c 1
 218.332 127.936 200.782 97.8213 183.032 67.7861 c 0
 175.723 55.7861 167.956 36.8369 188.065 25.4453 c 0
 197.257 20.8291 207.702 18.3809 213.135 17.4756 c 1
 212.974 -3.60547 l 1
 159.9 0.0917969 102.685 1.82031 53.7363 -4.75781 c 1
 52.5039 16.8311 l 1
 63.5049 18.0898 94.1689 29.5723 119.936 55.0322 c 0
 127.75 65.1035 131.788 60.6191 235.633 190.147 c 1
 123.683 329.364 121.053 335.136 110.766 341.393 c 0
 77.5244 371.968 62.874 379.804 46.9111 382.011 c 1
 47.4873 399.729 l 1
EndSplineSet
Validated: 37
EndChar

StartChar: y.pcap
Encoding: 65592 -1 669
Width: 516
VWidth: 1159
Flags: W
HStem: -10.6787 27.0137<170.569 207.29 323.346 363.58> 374.232 25.6895<35.3949 72.2345 191.676 206.54 305.486 343.412 427.91 469>
VStem: 231.261 67.6299<31.4137 177.802>
LayerCount: 2
Fore
SplineSet
209.742 373.334 m 1
 216.531 373.418 199.157 370.632 191.301 370.917 c 0
 179.331 368.691 177.291 361.629 185.169 349.095 c 1
 234.725 269.571 275.72 230.387 279.486 226.838 c 1
 312.578 279.719 338.956 320.174 339.947 326.048 c 1
 347.674 340.57 353.289 356.356 340.519 365.514 c 0
 334.401 370.77 316.681 373.523 304.505 374.232 c 1
 305.818 399.922 l 1
 328.513 396.144 431.318 389.808 469 399.588 c 1
 469 371.514 l 1
 427.667 368.961 414.763 355.815 388.396 330.431 c 1
 354.463 300.139 324.119 247.581 298.891 203.709 c 1
 298.315 177.372 296.282 145.876 307.098 59.501 c 0
 311.748 28.1055 321.386 26.9414 366.783 20.6895 c 1
 363.58 -7.14258 l 1
 304.655 1.16309 232.32 4.78125 172.485 -10.6787 c 1
 165.09 16.335 l 1
 209.948 25.7314 229.669 32.7314 231.261 70.7793 c 1
 231.516 67.749 229.843 180.628 229.118 177.751 c 1
 227.981 182.724 174.2 263.729 101.198 339.015 c 1
 75.9092 362.404 69.5186 365.581 33.5654 374.716 c 1
 36.0312 400.417 l 1
 69.8311 396.881 173.132 392.606 206.54 399.427 c 1
 209.742 373.334 l 1
EndSplineSet
Validated: 33
EndChar

StartChar: z.pcap
Encoding: 65593 -1 670
Width: 511
VWidth: 1159
Flags: W
HStem: -0.0693359 29.9336<166.464 340.178> 363.469 5.20508<184.875 185.177> 398.473 20G<76.9077 94.3906>
LayerCount: 2
Fore
SplineSet
42.2568 309.852 m 1
 83.6367 398.928 64.4365 412.493 89.3789 418.473 c 1
 99.4023 398.247 125.271 399.204 142.265 397.652 c 0
 158.232 393.232 354.822 392.286 414.867 394.192 c 0
 422.216 394.382 433.307 395.431 437.333 396.5 c 1
 445.455 381.57 l 1
 444.867 381.272 428.418 360.615 427.909 360.47 c 0
 432.441 361.552 160.091 28.459 166.464 29.8643 c 1
 175.597 30.1504 175.452 27.6113 209.5 27.3418 c 0
 338.531 29.8809 428 66.3955 437.303 102.073 c 1
 456 92.7188 l 1
 432.483 37.4521 422.725 10.832 406.105 -16.6807 c 1
 391.054 -9.7207 385.132 -3.95801 336.046 -3.53027 c 0
 248.551 0.529297 100.491 4.46387 51.0371 -0.0693359 c 1
 44.3906 17.8213 l 1
 67.5205 29.917 86.8242 50.2852 102.157 68.2676 c 1
 180.299 163.868 259.215 263.555 328.956 361.165 c 1
 328.918 361.193 331.18 363.469 331.18 363.469 c 1
 349.313 366.733 175.91 368.276 185.177 368.674 c 1
 129.771 364.54 95.5713 350.173 62.0488 299.655 c 1
 42.2568 309.852 l 1
EndSplineSet
Validated: 37
EndChar

StartChar: Q.alt
Encoding: 65565 -1 672
Width: 707
VWidth: 1361
Flags: W
HStem: -260 55<583.1 867.225> 684 32<367.942 519.956>
AnchorPoint: "Top" 461.779 699 basechar 0
AnchorPoint: "Bottom" 217.779 -15 basechar 0
LayerCount: 2
Fore
SplineSet
446.779296875 684 m 3
 318.779296875 684 196.779296875 567 153.779296875 392 c 0
 109.779296875 214 159.779296875 46 310.779296875 46 c 3
 439.779296875 46 560.779296875 171 604.779296875 347 c 0
 657.779296875 560 576.779296875 684 446.779296875 684 c 3
1045.77929688 -187 m 17
 995.779296875 -210 821.779296875 -260 687.779296875 -260 c 3
 469.779296875 -260 310.779296875 -159 240.779296875 -2 c 1
 86.779296875 25 5.779296875 173 53.779296875 364 c 0
 107.779296875 582 287.779296875 716 464.779296875 716 c 3
 642.779296875 716 754.779296875 567 704.779296875 367 c 0
 660.779296875 189 502.779296875 33 335.779296875 1 c 1
 416.779296875 -153 590.779296875 -205 751.779296875 -205 c 3
 860.779296875 -205 992.779296875 -178 1041.77929688 -156 c 9
 1045.77929688 -187 l 17
EndSplineSet
Position2: "cpsp-1" dx=0 dy=0 dh=10 dv=20
EndChar

